<?xml version="1.0" encoding="utf-8"?>
<!-- Generator: Adobe Illustrator 22.0.1, SVG Export Plug-In . SVG Version: 6.00 Build 0)  -->
<svg version="1.1" id="Capa_1" xmlns="http://www.w3.org/2000/svg" xmlns:xlink="http://www.w3.org/1999/xlink" x="0px" y="0px"
	 viewBox="0 0 100 100" style="enable-background:new 0 0 100 100;" xml:space="preserve">
<path style="fill:#EFEBE2;" d="M58.1,85.8l-22.2-3.7c-1.6-0.3-2.7-1.8-2.4-3.4l8.2-48.9c0.3-1.6,1.8-2.7,3.4-2.4l22.2,3.7
	c1.6,0.3,2.7,1.8,2.4,3.4l-8.2,48.9C61.2,85,59.7,86.1,58.1,85.8z"/>
<polygon id="COLOR" class="mainColorFill" style="fill:#6F9A2E;" points="41.8,33.2 35.9,66.6 64.3,66.8 68.9,37.6 "/>
<polygon style="opacity:0.1;" points="59.3,79.9 62.1,79.7 68.9,37.3 66.6,36.9 "/>
<polygon style="opacity:8.000000e-02;fill:#FFFFFF;" points="63.2,36.5 40.6,76.7 62,80.3 68.9,37.3 "/>
<g>
	<path style="fill:#644E43;" d="M77.9,63.7c-0.6,0-1,0.4-1,1v1h-1c-0.6,0-1,0.4-1,1s0.4,1,1,1h2c0.6,0,1-0.4,1-1v-2
		C78.9,64.1,78.5,63.7,77.9,63.7z"/>
	<path style="fill:#644E43;" d="M71.1,65.7h-3.9c-0.6,0-1,0.4-1,1s0.4,1,1,1h3.9c0.6,0,1-0.4,1-1S71.6,65.7,71.1,65.7z"/>
	<path style="fill:#644E43;" d="M27.1,65.7h-1v-1c0-0.6-0.4-1-1-1s-1,0.4-1,1v2c0,0.6,0.4,1,1,1h2c0.6,0,1-0.4,1-1
		S27.7,65.7,27.1,65.7z"/>
	<path style="fill:#644E43;" d="M25.1,30.9c0.6,0,1-0.4,1-1v-4.3c0-0.6-0.4-1-1-1s-1,0.4-1,1v4.3C24.1,30.5,24.6,30.9,25.1,30.9z"/>
	<path style="fill:#644E43;" d="M25.1,60.3c0.6,0,1-0.4,1-1v-4.3c0-0.6-0.4-1-1-1s-1,0.4-1,1v4.3C24.1,59.8,24.6,60.3,25.1,60.3z"/>
	<path style="fill:#644E43;" d="M25.1,50.5c0.6,0,1-0.4,1-1v-4.3c0-0.6-0.4-1-1-1s-1,0.4-1,1v4.3C24.1,50,24.6,50.5,25.1,50.5z"/>
	<path style="fill:#644E43;" d="M25.1,40.7c0.6,0,1-0.4,1-1v-4.3c0-0.6-0.4-1-1-1s-1,0.4-1,1v4.3C24.1,40.3,24.6,40.7,25.1,40.7z"/>
	<path style="fill:#644E43;" d="M27.1,17.2h-2c-0.6,0-1,0.4-1,1v2c0,0.6,0.4,1,1,1s1-0.4,1-1v-1h1c0.6,0,1-0.4,1-1
		S27.7,17.2,27.1,17.2z"/>
	<path style="fill:#644E43;" d="M40.8,19.2h3.9c0.6,0,1-0.4,1-1s-0.4-1-1-1h-3.9c-0.6,0-1,0.4-1,1S40.3,19.2,40.8,19.2z"/>
	<path style="fill:#644E43;" d="M32,19.2h3.9c0.6,0,1-0.4,1-1s-0.4-1-1-1H32c-0.6,0-1,0.4-1,1S31.5,19.2,32,19.2z"/>
	<path style="fill:#644E43;" d="M71.1,17.2h-3.9c-0.6,0-1,0.4-1,1s0.4,1,1,1h3.9c0.6,0,1-0.4,1-1S71.6,17.2,71.1,17.2z"/>
	<path style="fill:#644E43;" d="M58.4,19.2h3.9c0.6,0,1-0.4,1-1s-0.4-1-1-1h-3.9c-0.6,0-1,0.4-1,1S57.8,19.2,58.4,19.2z"/>
	<path style="fill:#644E43;" d="M49.6,19.2h3.9c0.6,0,1-0.4,1-1s-0.4-1-1-1h-3.9c-0.6,0-1,0.4-1,1S49,19.2,49.6,19.2z"/>
	<path style="fill:#644E43;" d="M77.9,17.2h-2c-0.6,0-1,0.4-1,1s0.4,1,1,1h1v1c0,0.6,0.4,1,1,1s1-0.4,1-1v-2
		C78.9,17.6,78.5,17.2,77.9,17.2z"/>
	<path style="fill:#644E43;" d="M77.9,24.6c-0.6,0-1,0.4-1,1v4.3c0,0.6,0.4,1,1,1s1-0.4,1-1v-4.3C78.9,25,78.5,24.6,77.9,24.6z"/>
	<path style="fill:#644E43;" d="M77.9,34.4c-0.6,0-1,0.4-1,1v4.3c0,0.6,0.4,1,1,1s1-0.4,1-1v-4.3C78.9,34.8,78.5,34.4,77.9,34.4z"/>
	<path style="fill:#644E43;" d="M77.9,53.9c-0.6,0-1,0.4-1,1v4.3c0,0.6,0.4,1,1,1s1-0.4,1-1v-4.3C78.9,54.4,78.5,53.9,77.9,53.9z"/>
	<path style="fill:#644E43;" d="M77.9,44.1c-0.6,0-1,0.4-1,1v4.3c0,0.6,0.4,1,1,1s1-0.4,1-1v-4.3C78.9,44.6,78.5,44.1,77.9,44.1z"/>
	<path style="fill:#644E43;" d="M70.2,37.2l0.4-2.6c0.2-1-0.1-2.1-0.7-3c-0.6-0.9-1.5-1.4-2.6-1.6l-22.2-3.7
		C43,26,41,27.5,40.6,29.6l-4.4,26l-1.7,10.1H32c-0.6,0-1,0.4-1,1s0.4,1,1,1h2.2l-1.3,7.7c0,0,0,0,0,0l-0.5,3.1
		c-0.4,2.2,1.1,4.2,3.3,4.6l22.2,3.7c0.2,0,0.4,0.1,0.7,0.1c0.8,0,1.6-0.3,2.3-0.7c0.9-0.6,1.4-1.5,1.6-2.6l0.5-3.1c0,0,0,0,0,0
		L70.2,37.2C70.2,37.2,70.2,37.2,70.2,37.2z M60.5,83.3c-0.1,0.5-0.4,1-0.8,1.3c-0.4,0.3-0.9,0.4-1.5,0.3L36,81.1
		c-1.1-0.2-1.8-1.2-1.6-2.3l0.4-2.1l26.1,4.4L60.5,83.3z M61.2,79.1l-26.1-4.4L42,33.5l26.1,4.4L61.2,79.1z M68.7,34.3l-0.3,1.6
		l-26.1-4.4l0.3-1.6c0.1-0.5,0.4-1,0.8-1.3c0.3-0.2,0.7-0.4,1.1-0.4c0.1,0,0.2,0,0.3,0l22.2,3.7c0.5,0.1,1,0.4,1.3,0.8
		C68.7,33.3,68.8,33.8,68.7,34.3z"/>
	<path style="fill:#644E43;" d="M58.3,31.4l-4.9-0.8c-0.6-0.1-1.1,0.3-1.2,0.8c-0.1,0.5,0.3,1.1,0.8,1.2l4.9,0.8c0.1,0,0.1,0,0.2,0
		c0.5,0,0.9-0.3,1-0.8C59.2,32,58.8,31.5,58.3,31.4z"/>
	<path style="fill:#644E43;" d="M47.8,82.4c0.8,0,1.5-0.7,1.5-1.5s-0.7-1.5-1.5-1.5s-1.5,0.7-1.5,1.5S47,82.4,47.8,82.4z M47.8,80.4
		c0.3,0,0.5,0.2,0.5,0.5s-0.2,0.5-0.5,0.5c-0.3,0-0.5-0.2-0.5-0.5S47.6,80.4,47.8,80.4z"/>
</g>
</svg>
