<?xml version="1.0" encoding="utf-8"?>
<!-- Generator: Adobe Illustrator 19.2.0, SVG Export Plug-In . SVG Version: 6.00 Build 0)  -->
<svg version="1.1" id="Capa_1" xmlns="http://www.w3.org/2000/svg" xmlns:xlink="http://www.w3.org/1999/xlink" x="0px" y="0px"
	 width="100px" height="100px" viewBox="0 0 100 100" enable-background="new 0 0 100 100" xml:space="preserve">
<path fill="#E3DACD" d="M78,50c2.9,0,5.3,2.4,5.3,5.3v9.8c0-2.9-2.4-5.3-5.3-5.3v-9.7L78,50z"/>
<path fill="#FFFFFF" d="M72.7,70V37.7c2.9,0,5.3-2.4,5.3-5.3v32.5c0,2.9-2.4,5.3-5.3,5.3"/>
<path fill="#FFFFFF" d="M78,32.4c0-2.9-2.4-5.3-5.3-5.3H33.6v35.8l39.1-0.1v-3.2V37.7C75.6,37.7,78,35.4,78,32.4z"/>
<g>
	<defs>
		<path id="XMLID_10_" d="M31.8,30.3c-2.6,0-4.7-2.1-4.7-4.7v0c0-2.6,2.1-4.7,4.7-4.7h27.7v5.8"/>
	</defs>
	<use xlink:href="#XMLID_10_"  overflow="visible" fill="#EFEBE2"/>
	<clipPath id="XMLID_2_">
		<use xlink:href="#XMLID_10_"  overflow="visible"/>
	</clipPath>
	<path clip-path="url(#XMLID_2_)" fill="#E3DACD" d="M31.2,21c-1.8,0-4.1,2.3-4.1,5.2c0,0,1.1,4.3,2.8,4.3l13.3-9.6L30,20.8"/>
</g>
<g>
	<defs>
		<path id="XMLID_172_" d="M30.8,43.1H22c-2.9,0-5.3-2.4-5.3-5.3v-9.7c0,2.9,2.4,5.3,5.3,5.3h8.8V43.1z"/>
	</defs>
	<use xlink:href="#XMLID_172_"  overflow="visible" fill="#EFEBE2"/>
	<clipPath id="XMLID_3_">
		<use xlink:href="#XMLID_172_"  overflow="visible"/>
	</clipPath>
</g>
<path fill="#E3DACD" d="M22,22.8c-2.9,0-5.3,2.4-5.3,5.3v9.8c0-2.9,2.4-5.3,5.3-5.3v-9.7V22.8z"/>
<path fill="none" stroke="#644E43" stroke-width="2.0176" stroke-linecap="round" stroke-linejoin="round" stroke-miterlimit="10" d="
	M22,43"/>
<path fill="none" stroke="#644E43" stroke-width="2.0176" stroke-linecap="round" stroke-linejoin="round" stroke-miterlimit="10" d="
	M27.6,53.7"/>
<path fill="none" stroke="#644E43" stroke-width="2.0176" stroke-linecap="round" stroke-linejoin="round" stroke-miterlimit="10" d="
	M22,21.8"/>
<path fill="#EFEBE2" d="M69.2,80.8c-2.9,0-5.3-2.4-5.3-5.3v-9.8c0,2.9,2.4,5.3,5.3,5.3v9.7V80.8z"/>
<path fill="none" stroke="#644E43" stroke-width="2.0176" stroke-linecap="round" stroke-linejoin="round" stroke-miterlimit="10" d="
	M77.1,40.7"/>
<path fill="none" stroke="#644E43" stroke-width="2.0176" stroke-linecap="round" stroke-linejoin="round" stroke-miterlimit="10" d="
	M68.3,61.1"/>
<path class="mainColorFill" fill="#7DA92B" d="M69.9,38.8v-3.3c0-0.9-0.8-1.7-1.7-1.7h-2.4v-3.4h-34c-2.2,0-4-1.6-4.5-3.6h-0.2v40.1c0,2.6,2.1,4.7,4.7,4.7
	h31.9l0.2-6.4l1.9-3.4l0-8.7l2.8-2.5c0.8-0.7,1.3-1.8,1.3-2.8v-3.3c0-0.9-0.8-1.7-1.7-1.7h-0.7l1.1-1C69.4,40.9,69.9,39.9,69.9,38.8
	z"/>
<path fill="#644E43" d="M56,25.2H33.6c-0.6,0-1-0.5-1-1s0.5-1,1-1H56c0.6,0,1,0.5,1,1S56.5,25.2,56,25.2z"/>
<g>
	<defs>
		<path id="XMLID_169_" d="M67,70.8c0.7-0.3,1.4-0.5,2.2-0.5H78c2.9,0,5.3-2.4,5.3-5.3v-9.7c0,2.9-2.4,5.3-5.3,5.3h-8.8
			c-2.9,0-5.3,2.4-5.3,5.3C63.9,68.1,65.2,69.9,67,70.8z"/>
	</defs>
	<use xlink:href="#XMLID_169_"  overflow="visible" fill="#EFEBE2"/>
	<clipPath id="XMLID_4_">
		<use xlink:href="#XMLID_169_"  overflow="visible"/>
	</clipPath>
	<path clip-path="url(#XMLID_4_)" fill="#E3DACD" d="M66.8,61c-1.8,0-4.1,2.3-4.1,5.2c0,0,1.1,4.3,2.8,4.3l13.3-9.6l-13.3-0.2"/>
	
		<line clip-path="url(#XMLID_4_)" fill="none" stroke="#FFFFFF" stroke-width="2.0176" stroke-linecap="round" stroke-linejoin="round" stroke-miterlimit="10" x1="79.5" y1="59.1" x2="79.5" y2="71.3"/>
</g>
<rect x="31.4" y="30.9" opacity="0.1" fill="#FFFFFF" width="7.9" height="40.6"/>
<polygon opacity="7.000000e-02" points="62.3,71.5 65.8,71.5 65.8,69.8 64.4,65.5 65.8,61.7 65.8,30.3 62.3,30.3 "/>
<polygon opacity="7.000000e-02" points="26.9,68.6 31.4,72.5 31.4,30.3 26.9,27.1 "/>
<polygon fill="#FFFFFF" points="19.6,42.5 21.6,42.9 21.6,33.5 19.6,32.8 "/>
<path fill="#644E43" d="M75.4,67.7L75.4,67.7c-0.3,0-0.5,0.2-0.5,0.4s0.2,0.4,0.5,0.4s0.4-0.2,0.4-0.4S75.6,67.7,75.4,67.7z"/>
<path fill="#644E43" d="M77.2,67.7L77.2,67.7c-0.3,0-0.5,0.2-0.5,0.4s0.2,0.4,0.5,0.4s0.4-0.2,0.4-0.4S77.4,67.7,77.2,67.7z"/>
<path fill="#644E43" d="M78.9,67.7L78.9,67.7c-0.3,0-0.4,0.2-0.4,0.4c0,0.2,0.2,0.4,0.5,0.4c0,0,0,0,0,0c0.2,0,0.4-0.2,0.4-0.4
	S79.1,67.7,78.9,67.7z"/>
<path fill="#644E43" d="M73.7,67.7L73.7,67.7c-0.3,0-0.5,0.2-0.5,0.4s0.2,0.4,0.5,0.4s0.4-0.2,0.4-0.4S73.9,67.7,73.7,67.7z"/>
<path fill="#644E43" d="M71.9,67.7L71.9,67.7c-0.3,0-0.5,0.2-0.5,0.4s0.2,0.4,0.5,0.4s0.4-0.2,0.4-0.4S72.1,67.7,71.9,67.7z"/>
<path fill="#644E43" d="M70.2,67.7L70.2,67.7c-0.3,0-0.5,0.2-0.5,0.4s0.2,0.4,0.5,0.4s0.4-0.2,0.4-0.4S70.4,67.7,70.2,67.7z"/>
<path fill="#644E43" d="M66.6,67.8C66.6,67.8,66.5,67.8,66.6,67.8c-0.3,0.1-0.4,0.3-0.4,0.5c0,0.2,0.2,0.3,0.4,0.3c0,0,0.1,0,0.1,0
	c0.2,0,0.4-0.3,0.3-0.5C67,67.9,66.8,67.8,66.6,67.8z"/>
<path fill="#644E43" d="M68.4,67.7L68.4,67.7c-0.3,0-0.5,0.2-0.5,0.4s0.2,0.4,0.5,0.4s0.4-0.2,0.4-0.4S68.6,67.7,68.4,67.7z"/>
<path fill="#644E43" d="M80.4,67.3l0.1,0.4l0.2,0.4c0.2-0.1,0.3-0.3,0.2-0.6C80.9,67.3,80.6,67.2,80.4,67.3z"/>
<path fill="#644E43" d="M77.9,62.4L77.9,62.4c-0.3,0-0.5,0.2-0.5,0.4s0.2,0.4,0.5,0.4s0.4-0.2,0.4-0.4S78.1,62.4,77.9,62.4z"/>
<path fill="#644E43" d="M79.5,62.3l0,0.4l0.1,0.4c0.2,0,0.4-0.3,0.3-0.5C80,62.4,79.7,62.3,79.5,62.3z"/>
<path fill="#644E43" d="M81,61.8l0.2,0.4l0.3,0.3c0.2-0.1,0.3-0.4,0.1-0.6C81.5,61.7,81.2,61.6,81,61.8z"/>
<path fill="#644E43" d="M76.1,62.4L76.1,62.4c-0.3,0-0.5,0.2-0.5,0.4s0.2,0.4,0.5,0.4s0.4-0.2,0.4-0.4S76.3,62.4,76.1,62.4z"/>
<path fill="#644E43" d="M72.6,62.4L72.6,62.4c-0.3,0-0.5,0.2-0.5,0.4s0.2,0.4,0.5,0.4s0.4-0.2,0.4-0.4S72.8,62.4,72.6,62.4z"/>
<path fill="#644E43" d="M70.9,62.4L70.9,62.4c-0.3,0-0.5,0.2-0.5,0.4s0.2,0.4,0.5,0.4s0.4-0.2,0.4-0.4S71.1,62.4,70.9,62.4z"/>
<path fill="#644E43" d="M69.1,62.4L69.1,62.4c-0.3,0-0.5,0.2-0.5,0.4s0.2,0.4,0.5,0.4s0.4-0.2,0.4-0.4S69.3,62.4,69.1,62.4z"/>
<path fill="#644E43" d="M74.4,62.4L74.4,62.4c-0.3,0-0.5,0.2-0.5,0.4s0.2,0.4,0.5,0.4s0.4-0.2,0.4-0.4S74.6,62.4,74.4,62.4z"/>
<path fill="#644E43" d="M67.3,62.7l0.1,0.4l0.2,0.4c0.2-0.1,0.3-0.3,0.3-0.5C67.7,62.7,67.5,62.6,67.3,62.7z"/>
<path fill="#644E43" d="M18.9,35.5C18.9,35.5,19,35.5,18.9,35.5c0.1,0.1,0.2,0.1,0.2,0.1c0.1,0,0.3-0.1,0.4-0.2
	c0.1-0.2,0-0.5-0.2-0.6c-0.2-0.1-0.5,0-0.6,0.2C18.7,35.1,18.7,35.4,18.9,35.5z"/>
<path fill="#644E43" d="M20.8,35.2c-0.2,0-0.4,0.2-0.5,0.4c0,0.2,0.2,0.4,0.4,0.5c0,0,0.1,0,0.1,0c0,0,0,0,0,0
	c0.2,0,0.4-0.2,0.4-0.4C21.3,35.4,21.1,35.2,20.8,35.2z"/>
<path fill="#644E43" d="M24.3,36L24.3,36c0.3,0,0.5-0.2,0.5-0.4s-0.2-0.4-0.5-0.4s-0.4,0.2-0.4,0.4S24.1,36,24.3,36z"/>
<path fill="#644E43" d="M22.5,36L22.5,36c0.3,0,0.5-0.2,0.5-0.4s-0.2-0.4-0.5-0.4s-0.4,0.2-0.4,0.4S22.3,36,22.5,36z"/>
<path fill="#644E43" d="M19.4,39.9c-0.2-0.1-0.5,0-0.6,0.2c-0.1,0.2,0,0.5,0.2,0.6l0.1,0c0.1,0,0.1,0.1,0.2,0.1
	c0.1,0,0.3-0.1,0.4-0.2C19.7,40.3,19.6,40,19.4,39.9z"/>
<path fill="#644E43" d="M20.9,40.4c-0.2,0-0.4,0.1-0.5,0.3c0,0.2,0.1,0.4,0.3,0.5c0,0,0.1,0,0.1,0c0,0,0,0,0.1,0
	c0.2,0,0.3-0.1,0.4-0.3C21.3,40.7,21.1,40.5,20.9,40.4z"/>
<path fill="#644E43" d="M24.3,41.4L24.3,41.4c0.3,0,0.5-0.2,0.5-0.4s-0.2-0.4-0.5-0.4s-0.4,0.2-0.4,0.4S24.1,41.4,24.3,41.4z"/>
<path fill="#644E43" d="M22.5,41.4L22.5,41.4c0.3,0,0.5-0.2,0.5-0.4s-0.2-0.4-0.5-0.4s-0.4,0.2-0.4,0.4S22.3,41.4,22.5,41.4z"/>
<path fill="#644E43" d="M79.1,49C79.1,49,79,49,79.1,49l0-16.6c0-3.5-2.8-6.3-6.3-6.3H60.5v-5.2c0-0.6-0.5-1-1-1H31.8
	c-3.2,0-5.7,2.6-5.7,5.7c0,0.3,0,1,0,1.1v5.6H23v-9.6c0-0.6-0.5-1-1-1c-3.5,0-6.3,2.8-6.3,6.3v9.8c0,3.5,2.8,6.3,6.3,6.3h4.1v22.6
	c0,3.2,2.6,5.7,5.7,5.7h31v3.2c0,3.5,2.8,6.3,6.3,6.3c0.6,0,1-0.5,1-1c0,0,0-0.1,0-0.1c0,0,0-0.1,0-0.1v-9.5H78
	c3.5,0,6.3-2.8,6.3-6.3v-9.8C84.3,52.2,82.1,49.6,79.1,49z M21,23.8v8.4c-1.9-0.5-3.3-2.2-3.3-4.2S19.1,24.3,21,23.8z M26.1,35.2
	C26.1,35.2,26.1,35.2,26.1,35.2c-0.3,0-0.5,0.2-0.5,0.4S25.8,36,26,36h0v4.5c0,0,0,0,0,0c-0.2,0-0.4,0.2-0.4,0.4s0.2,0.4,0.4,0.4h0
	v0.8H22c-1.8,0-3.3-1.1-4-2.6c0,0,0.1,0,0.1-0.1c0.2-0.1,0.2-0.4,0-0.6c-0.1-0.1-0.3-0.2-0.4-0.1c-0.1-0.3-0.1-0.5-0.1-0.8v-3.4
	c0,0,0.1,0,0.1,0c0.1,0,0.2,0,0.3-0.1c0.2-0.2,0.2-0.4,0-0.6c-0.1-0.1-0.3-0.2-0.4-0.1v-1c1.1,1.1,2.6,1.7,4.3,1.7h4.1V35.2z
	 M79,51.1c1.9,0.5,3.3,2.2,3.3,4.2c0,2-1.4,3.7-3.3,4.2V51.1z M72.7,28.1c2.4,0,4.3,1.9,4.3,4.3s-1.9,4.3-4.3,4.3c-0.6,0-1,0.5-1,1
	v21.9h-2.5c-0.8,0-1.6,0.2-2.4,0.5v-6.6l2.5-2.2c1-0.9,1.6-2.2,1.6-3.6v-3.3c0-1-0.5-1.8-1.3-2.3c0.8-0.9,1.3-2,1.3-3.3v-3.3
	c0-1.5-1.2-2.7-2.7-2.7h-1.4v-2.4c0-0.6-0.5-1-1-1H34.6v-1.2H72.7z M77,37.1v22.6h-3.3V38.7c0.4-0.1,0.7-0.1,1-0.3
	c0.1,0,0.2-0.1,0.3-0.1c0.2-0.1,0.4-0.2,0.6-0.3c0.1-0.1,0.2-0.1,0.3-0.2c0.2-0.1,0.4-0.2,0.5-0.4c0.1-0.1,0.2-0.2,0.3-0.2
	C76.9,37.1,77,37.1,77,37.1z M67.9,43.6h0.3c0.4,0,0.7,0.3,0.7,0.7v3.3c0,0.8-0.3,1.6-0.9,2.1l-1.1,1v-6.2L67.9,43.6z M66.8,41.6
	v-6.8h1.4c0.4,0,0.7,0.3,0.7,0.7v3.3c0,0.8-0.3,1.6-0.9,2.1l-0.9,0.8H66.8z M31.8,21.9h26.7v4.2H33.6c-0.6,0-1,0.5-1,1v2.2h-0.7
	c-0.2,0-0.4,0-0.7-0.1c-0.1,0-0.3-0.1-0.4-0.1c0,0-0.1,0-0.1,0c-1.1-0.4-2-1.4-2.3-2.6c0-0.1-0.1-0.2-0.1-0.3c0-0.2-0.1-0.3-0.1-0.5
	C28.1,23.6,29.8,21.9,31.8,21.9z M62.9,70.5h-31c-2,0-3.7-1.7-3.7-3.7V30c0.7,0.6,1.7,1.1,2.7,1.3c0,0,0,0,0,0
	c0.3,0.1,0.7,0.1,1,0.1h33v2.4v8.9v1.5V53v8.4c-1.2,1.2-1.9,2.8-1.9,4.6V70.5z M68.2,80c-1.9-0.5-3.3-2.2-3.3-4.2v-3.5v-2.1
	c0,0,0.5,1,1.7,1.5c0.7,0.3,1.7,0.4,1.7,0.4V80z M78,69.5H66.7c-1.1-0.8-1.8-2.1-1.8-3.5c0-0.2,0-0.3,0-0.5c0,0,0.1,0,0.1-0.1
	c0.1-0.1,0.1-0.3,0-0.5c0.1-0.4,0.2-0.7,0.4-1c0,0.1,0,0.2,0.1,0.2c0.1,0.1,0.2,0.2,0.3,0.2c0.1,0,0.2,0,0.3-0.1
	c0.2-0.1,0.2-0.4,0.1-0.6c-0.1-0.2-0.4-0.2-0.6-0.1c0.8-1.1,2.1-1.9,3.6-1.9H78c1.7,0,3.2-0.7,4.3-1.7v0.7c0,0-0.1,0.1-0.1,0.1
	l0.1,0.1v4.3c0,0.4-0.1,0.8-0.2,1.2c-0.1,0-0.3,0-0.4,0.1l0.2,0.3l0,0C81.3,68.4,79.8,69.5,78,69.5z"/>
</svg>
