<?xml version="1.0" encoding="utf-8"?>
<?xml-stylesheet href="style.css" type="text/css"?>

<!-- Generator: Adobe Illustrator 19.2.0, SVG Export Plug-In . SVG Version: 6.00 Build 0)  -->
<svg version="1.1" id="Capa_1" xmlns="http://www.w3.org/2000/svg" xmlns:xlink="http://www.w3.org/1999/xlink" x="0px" y="0px"
	 width="100px" height="100px" viewBox="0 0 100 100" enable-background="new 0 0 100 100" xml:space="preserve">
<g>
	<defs>
		<rect id="XMLID_11_" x="19.2" y="24.1" width="61.7" height="33.2"/>
	</defs>
	<use xlink:href="#XMLID_11_"  overflow="visible" fill="#EFEBE2"/>
	<clipPath id="XMLID_2_">
		<use xlink:href="#XMLID_11_"  overflow="visible"/>
	</clipPath>
	<polyline opacity="0.4" clip-path="url(#XMLID_2_)" fill="#FFFFFF" points="55.6,23.5 42,58.1 81.3,58.1 81.5,23.5 55.6,23.5 	"/>
</g>
<g>
	<defs>
		<path id="XMLID_12_" d="M53.6,63.2L53.6,63.2c0,3.4,3.4,5.7,6.3,5.7h1.1c1.7,0,3,1.4,3,3v0H34.6v0c0-1.7,1.4-3,3-3h1.1
			c2.9,0,6.3-2.3,6.3-5.8v0.1H53.6z"/>
	</defs>
	<use xlink:href="#XMLID_12_"  overflow="visible" fill="#FFFFFF"/>
	<clipPath id="XMLID_3_">
		<use xlink:href="#XMLID_12_"  overflow="visible"/>
	</clipPath>
	<polygon clip-path="url(#XMLID_3_)" fill="#ECEBE9" points="44.6,66.1 56,68.2 54.2,62.7 44.8,62.6 	"/>
</g>
<path fill="#644E43" d="M49.4,61.5c-0.9,0-1.6-0.7-1.6-1.6c0-0.9,0.7-1.6,1.6-1.6S51,59,51,59.9C51,60.8,50.2,61.5,49.4,61.5z
	 M49.4,59.8c-0.1,0-0.2,0.1-0.2,0.2c0,0.2,0.3,0.2,0.3,0C49.5,59.8,49.5,59.8,49.4,59.8z"/>
<path fill="#644E43" d="M34.4,33.9c-0.6,0-1,0.5-1,1v13.8c0,0.6,0.5,1,1,1s1-0.5,1-1V34.9C35.4,34.4,34.9,33.9,34.4,33.9z"/>
<path fill="#644E43" d="M31.5,33.9c-0.6,0-1,0.5-1,1v13.8c0,0.6,0.5,1,1,1s1-0.5,1-1V34.9C32.5,34.4,32.1,33.9,31.5,33.9z"/>
<path fill="#644E43" d="M53.2,37c-0.6,0-1,0.5-1,1v10.7c0,0.6,0.5,1,1,1s1-0.5,1-1V38C54.2,37.5,53.7,37,53.2,37z"/>
<path fill="#644E43" d="M50.3,37c-0.6,0-1,0.5-1,1v10.7c0,0.6,0.5,1,1,1s1-0.5,1-1V38C51.3,37.5,50.9,37,50.3,37z"/>
<path fill="#644E43" d="M72,28.9c-0.6,0-1,0.5-1,1v18.8c0,0.6,0.5,1,1,1s1-0.5,1-1V29.9C73,29.4,72.5,28.9,72,28.9z"/>
<path fill="#644E43" d="M69.1,28.9c-0.6,0-1,0.5-1,1v18.8c0,0.6,0.5,1,1,1s1-0.5,1-1V29.9C70.1,29.4,69.7,28.9,69.1,28.9z"/>
<path fill="#644E43" d="M27.3,30c-0.2,0-0.4-0.2-0.4-0.4s0.2-0.4,0.4-0.4s0.4,0.2,0.4,0.4v0C27.7,29.8,27.5,30,27.3,30z"/>
<path fill="#644E43" d="M27.3,53.5c-0.2,0-0.4-0.2-0.4-0.4s0.2-0.5,0.4-0.5s0.4,0.2,0.4,0.4v0.1C27.7,53.3,27.5,53.5,27.3,53.5z
	 M27.3,51.7c-0.2,0-0.4-0.2-0.4-0.4s0.2-0.5,0.4-0.5s0.4,0.2,0.4,0.4v0.1C27.7,51.5,27.5,51.7,27.3,51.7z M27.3,49.9
	c-0.2,0-0.4-0.2-0.4-0.4S27,49,27.3,49s0.4,0.2,0.4,0.4v0.1C27.7,49.7,27.5,49.9,27.3,49.9z M27.3,48.1c-0.2,0-0.4-0.2-0.4-0.4
	s0.2-0.5,0.4-0.5s0.4,0.2,0.4,0.4v0.1C27.7,47.9,27.5,48.1,27.3,48.1z M27.3,46.2c-0.2,0-0.4-0.2-0.4-0.4s0.2-0.5,0.4-0.5
	s0.4,0.2,0.4,0.4v0.1C27.7,46.1,27.5,46.2,27.3,46.2z M27.3,44.4c-0.2,0-0.4-0.2-0.4-0.4s0.2-0.5,0.4-0.5s0.4,0.2,0.4,0.4V44
	C27.7,44.3,27.5,44.4,27.3,44.4z M27.3,42.6c-0.2,0-0.4-0.2-0.4-0.4s0.2-0.5,0.4-0.5s0.4,0.2,0.4,0.4v0.1
	C27.7,42.4,27.5,42.6,27.3,42.6z M27.3,40.8c-0.2,0-0.4-0.2-0.4-0.4S27,40,27.3,40s0.4,0.2,0.4,0.4v0.1
	C27.7,40.6,27.5,40.8,27.3,40.8z M27.3,39c-0.2,0-0.4-0.2-0.4-0.4s0.2-0.5,0.4-0.5s0.4,0.2,0.4,0.4v0.1C27.7,38.8,27.5,39,27.3,39z
	 M27.3,37.2c-0.2,0-0.4-0.2-0.4-0.4s0.2-0.5,0.4-0.5s0.4,0.2,0.4,0.4v0.1C27.7,37,27.5,37.2,27.3,37.2z M27.3,35.4
	c-0.2,0-0.4-0.2-0.4-0.4s0.2-0.5,0.4-0.5s0.4,0.2,0.4,0.4V35C27.7,35.2,27.5,35.4,27.3,35.4z M27.3,33.6c-0.2,0-0.4-0.2-0.4-0.4
	s0.2-0.5,0.4-0.5s0.4,0.2,0.4,0.4v0.1C27.7,33.4,27.5,33.6,27.3,33.6z M27.3,31.8c-0.2,0-0.4-0.2-0.4-0.4s0.2-0.5,0.4-0.5
	s0.4,0.2,0.4,0.4v0.1C27.7,31.6,27.5,31.8,27.3,31.8z"/>
<path fill="#644E43" d="M27.3,55.2c-0.2,0-0.4-0.2-0.4-0.4s0.2-0.4,0.4-0.4s0.4,0.2,0.4,0.4v0C27.7,55.1,27.5,55.2,27.3,55.2z"/>
<path fill="#644E43" d="M76.3,51.7c-0.2,0-0.5-0.2-0.5-0.4s0.2-0.4,0.4-0.4h0.1c0.2,0,0.4,0.2,0.4,0.4S76.5,51.7,76.3,51.7z
	 M74.5,51.7c-0.2,0-0.5-0.2-0.5-0.4s0.2-0.4,0.4-0.4h0.1c0.2,0,0.4,0.2,0.4,0.4S74.8,51.7,74.5,51.7z M72.8,51.7
	c-0.2,0-0.5-0.2-0.5-0.4s0.2-0.4,0.4-0.4h0.1c0.2,0,0.4,0.2,0.4,0.4S73,51.7,72.8,51.7z M71,51.7c-0.2,0-0.5-0.2-0.5-0.4
	s0.2-0.4,0.4-0.4H71c0.2,0,0.4,0.2,0.4,0.4S71.3,51.7,71,51.7z M69.3,51.7c-0.2,0-0.5-0.2-0.5-0.4s0.2-0.4,0.4-0.4h0.1
	c0.2,0,0.4,0.2,0.4,0.4S69.5,51.7,69.3,51.7z M67.5,51.7c-0.2,0-0.5-0.2-0.5-0.4s0.2-0.4,0.4-0.4h0.1c0.2,0,0.4,0.2,0.4,0.4
	S67.8,51.7,67.5,51.7z M65.8,51.7c-0.2,0-0.5-0.2-0.5-0.4s0.2-0.4,0.4-0.4h0.1c0.2,0,0.4,0.2,0.4,0.4S66,51.7,65.8,51.7z M64,51.7
	c-0.2,0-0.5-0.2-0.5-0.4s0.2-0.4,0.4-0.4H64c0.2,0,0.4,0.2,0.4,0.4S64.3,51.7,64,51.7z M62.3,51.7c-0.2,0-0.5-0.2-0.5-0.4
	s0.2-0.4,0.4-0.4h0.1c0.2,0,0.4,0.2,0.4,0.4S62.5,51.7,62.3,51.7z M60.5,51.7c-0.2,0-0.5-0.2-0.5-0.4s0.2-0.4,0.4-0.4h0.1
	c0.2,0,0.4,0.2,0.4,0.4S60.8,51.7,60.5,51.7z M58.8,51.7c-0.2,0-0.5-0.2-0.5-0.4s0.2-0.4,0.4-0.4h0.1c0.2,0,0.4,0.2,0.4,0.4
	S59,51.7,58.8,51.7z M57,51.7c-0.2,0-0.5-0.2-0.5-0.4s0.2-0.4,0.4-0.4H57c0.2,0,0.4,0.2,0.4,0.4S57.3,51.7,57,51.7z M55.3,51.7
	c-0.2,0-0.5-0.2-0.5-0.4s0.2-0.4,0.4-0.4h0.1c0.2,0,0.4,0.2,0.4,0.4S55.5,51.7,55.3,51.7z M53.5,51.7c-0.2,0-0.5-0.2-0.5-0.4
	s0.2-0.4,0.4-0.4h0.1c0.2,0,0.4,0.2,0.4,0.4S53.8,51.7,53.5,51.7z M51.8,51.7c-0.2,0-0.5-0.2-0.5-0.4s0.2-0.4,0.4-0.4h0.1
	c0.2,0,0.4,0.2,0.4,0.4S52,51.7,51.8,51.7z M50,51.7c-0.2,0-0.5-0.2-0.5-0.4s0.2-0.4,0.4-0.4H50c0.2,0,0.4,0.2,0.4,0.4
	S50.3,51.7,50,51.7z M48.3,51.7c-0.2,0-0.5-0.2-0.5-0.4s0.2-0.4,0.4-0.4h0.1c0.2,0,0.4,0.2,0.4,0.4S48.5,51.7,48.3,51.7z M46.5,51.7
	c-0.2,0-0.5-0.2-0.5-0.4s0.2-0.4,0.4-0.4h0.1c0.2,0,0.4,0.2,0.4,0.4S46.8,51.7,46.5,51.7z M44.8,51.7c-0.2,0-0.5-0.2-0.5-0.4
	s0.2-0.4,0.4-0.4h0.1c0.2,0,0.4,0.2,0.4,0.4S45,51.7,44.8,51.7z M43,51.7c-0.2,0-0.5-0.2-0.5-0.4s0.2-0.4,0.4-0.4H43
	c0.2,0,0.4,0.2,0.4,0.4S43.3,51.7,43,51.7z M41.3,51.7c-0.2,0-0.5-0.2-0.5-0.4s0.2-0.4,0.4-0.4h0.1c0.2,0,0.4,0.2,0.4,0.4
	S41.5,51.7,41.3,51.7z M39.5,51.7c-0.2,0-0.5-0.2-0.5-0.4s0.2-0.4,0.4-0.4h0.1c0.2,0,0.4,0.2,0.4,0.4S39.8,51.7,39.5,51.7z
	 M37.8,51.7c-0.2,0-0.5-0.2-0.5-0.4s0.2-0.4,0.4-0.4h0.1c0.2,0,0.4,0.2,0.4,0.4S38,51.7,37.8,51.7z M36.1,51.7
	c-0.2,0-0.5-0.2-0.5-0.4s0.2-0.4,0.4-0.4h0.1c0.2,0,0.4,0.2,0.4,0.4S36.3,51.7,36.1,51.7z M34.3,51.7c-0.2,0-0.5-0.2-0.5-0.4
	s0.2-0.4,0.4-0.4h0.1c0.2,0,0.4,0.2,0.4,0.4S34.5,51.7,34.3,51.7z M32.6,51.7c-0.2,0-0.5-0.2-0.5-0.4s0.2-0.4,0.4-0.4h0.1
	c0.2,0,0.4,0.2,0.4,0.4S32.8,51.7,32.6,51.7z M30.8,51.7c-0.2,0-0.5-0.2-0.5-0.4s0.2-0.4,0.4-0.4h0.1c0.2,0,0.4,0.2,0.4,0.4
	S31,51.7,30.8,51.7z M29.1,51.7c-0.2,0-0.5-0.2-0.5-0.4s0.2-0.4,0.4-0.4h0.1c0.2,0,0.4,0.2,0.4,0.4S29.3,51.7,29.1,51.7z M27.3,51.7
	c-0.2,0-0.5-0.2-0.5-0.4s0.2-0.4,0.4-0.4h0.1c0.2,0,0.4,0.2,0.4,0.4S27.5,51.7,27.3,51.7z M25.6,51.7c-0.2,0-0.5-0.2-0.5-0.4
	s0.2-0.4,0.4-0.4h0.1c0.2,0,0.4,0.2,0.4,0.4S25.8,51.7,25.6,51.7z M23.8,51.7c-0.2,0-0.5-0.2-0.5-0.4s0.2-0.4,0.4-0.4h0.1
	c0.2,0,0.4,0.2,0.4,0.4S24,51.7,23.8,51.7z"/>
<path fill="#644E43" d="M25.6,46.2c-0.2,0-0.5-0.2-0.5-0.4s0.2-0.4,0.4-0.4h0.1c0.2,0,0.4,0.2,0.4,0.4S25.8,46.2,25.6,46.2z
	 M23.8,46.2c-0.2,0-0.5-0.2-0.5-0.4s0.2-0.4,0.4-0.4h0.1c0.2,0,0.4,0.2,0.4,0.4S24,46.2,23.8,46.2z"/>
<path fill="#644E43" d="M25.6,40.8c-0.2,0-0.5-0.2-0.5-0.4s0.2-0.4,0.4-0.4h0.1c0.2,0,0.4,0.2,0.4,0.4S25.8,40.8,25.6,40.8z
	 M23.8,40.8c-0.2,0-0.5-0.2-0.5-0.4s0.2-0.4,0.4-0.4h0.1c0.2,0,0.4,0.2,0.4,0.4S24,40.8,23.8,40.8z"/>
<path fill="#644E43" d="M25.6,35.4c-0.2,0-0.5-0.2-0.5-0.4s0.2-0.4,0.4-0.4h0.1c0.2,0,0.4,0.2,0.4,0.4S25.8,35.4,25.6,35.4z
	 M23.8,35.4c-0.2,0-0.5-0.2-0.5-0.4s0.2-0.4,0.4-0.4h0.1c0.2,0,0.4,0.2,0.4,0.4S24,35.4,23.8,35.4z"/>
<path fill="#644E43" d="M25.6,30c-0.2,0-0.5-0.2-0.5-0.4s0.2-0.4,0.4-0.4h0.1c0.2,0,0.4,0.2,0.4,0.4S25.8,30,25.6,30z M23.8,30
	c-0.2,0-0.5-0.2-0.5-0.4s0.2-0.4,0.4-0.4h0.1c0.2,0,0.4,0.2,0.4,0.4S24,30,23.8,30z"/>
<path fill="#644E43" d="M86.1,48.4h-3.9V24.3c0-2.2-1.8-4-4-4H22.1c-2,0-3.7,1.5-3.9,3.5c0,0.1-0.1,0.2-0.1,0.3c0,0,0,0.1,0,0.1
	c0,0,0,0.1,0,0.1v5.4h-5c-4.7,0-8.5,3.8-8.5,8.5s3.8,8.5,8.5,8.5h5v13.5c0,2.2,1.8,4,4,4H44c-0.6,2.4-3.2,3.8-5.2,3.8h-0.4h-0.7
	c-1.9,0-3.4,1.3-3.9,3h-6.1c-0.6,0-1,0.5-1,1s0.5,1,1,1h6.9h29.5h15c0.6,0,1-0.5,1-1s-0.5-1-1-1H65c-0.5-1.7-2-3-3.9-3h-1.1
	c-2.2,0-4.6-1.5-5.2-3.8h23.5c2.2,0,4-1.8,4-4v-2h3.9c2.7,0,4.8-2.2,4.8-4.8C91,50.5,88.8,48.4,86.1,48.4z M18.2,44.6h-5
	c-3.6,0-6.4-2.9-6.4-6.4s2.9-6.4,6.4-6.4h5V44.6z M52.9,69.9h7.1h1.1c0.7,0,1.4,0.4,1.7,1H35.9c0.3-0.6,1-1,1.7-1h0.7h0.4h7.4
	c0.6,0,1-0.5,1-1s-0.5-1-1-1h-2.3c1.1-1,1.9-2.2,2.1-3.7h6.7c0.3,1.5,1,2.7,2.1,3.7h-1.9c-0.6,0-1,0.5-1,1S52.3,69.9,52.9,69.9z
	 M22.1,22.3h56.1c0.6,0,1.2,0.3,1.6,0.8H20.6C21,22.6,21.5,22.3,22.1,22.3z M80.2,60.1c0,1.1-0.9,2-2,2H22.1c-1.1,0-2-0.9-2-2v-1.8
	h60V60.1z M80.2,56.3h-60V25.1h60V56.3z M86.1,56h-3.9v-5.7h3.9c1.6,0,2.8,1.3,2.8,2.8C89,54.8,87.7,56,86.1,56z"/>
<path fill="#644E43" d="M86.3,70.9h-3.4c-0.6,0-1,0.5-1,1s0.5,1,1,1h3.4c0.6,0,1-0.5,1-1S86.8,70.9,86.3,70.9z"/>
<path fill="#644E43" d="M22.7,70.9h-4.9c-0.6,0-1,0.5-1,1s0.5,1,1,1h4.9c0.6,0,1-0.5,1-1S23.3,70.9,22.7,70.9z"/>
<path fill="#644E43" d="M13,70.9h-2.3c-0.6,0-1,0.5-1,1s0.5,1,1,1H13c0.6,0,1-0.5,1-1S13.5,70.9,13,70.9z"/>
<path class="mainColorFill" fill="#6F9A2E" d="M43.8,49.8c-0.6,0-1-0.5-1-1v-8.2c0-0.6,0.5-1,1-1s1,0.5,1,1v8.2C44.8,49.3,44.3,49.8,43.8,49.8z"/>
<path class="mainColorFill" fill="#6F9A2E" d="M40.9,49.8c-0.6,0-1-0.5-1-1v-8.2c0-0.6,0.5-1,1-1s1,0.5,1,1v8.2C41.9,49.3,41.5,49.8,40.9,49.8z"/>
<path class="mainColorFill" fill="#6F9A2E" d="M62.6,49.8c-0.6,0-1-0.5-1-1v-6.5c0-0.6,0.5-1,1-1s1,0.5,1,1v6.5C63.6,49.3,63.1,49.8,62.6,49.8z"/>
<path class="mainColorFill" fill="#6F9A2E" d="M59.7,49.8c-0.6,0-1-0.5-1-1v-6.5c0-0.6,0.5-1,1-1s1,0.5,1,1v6.5C60.7,49.3,60.3,49.8,59.7,49.8z"/>
</svg>
