<?xml version="1.0" encoding="utf-8"?>
<!-- Generator: Adobe Illustrator 22.0.1, SVG Export Plug-In . SVG Version: 6.00 Build 0)  -->
<svg version="1.1" id="Capa_1" xmlns="http://www.w3.org/2000/svg" xmlns:xlink="http://www.w3.org/1999/xlink" x="0px" y="0px"
	 viewBox="0 0 100 100" style="enable-background:new 0 0 100 100;" xml:space="preserve">
<path style="fill:#EFEAE2;" d="M19,42.3v43.1h62.5V42.3H19z M77,81.2H23.6v-35H77V81.2z"/>
<polygon style="opacity:5.000000e-02;" points="81.9,43.3 19.2,84.8 19,42.6 "/>
<rect id="color" class="mainColorFill" x="23.6" y="46.2" style="fill:#7DA82B;" width="53.4" height="35"/>
<path style="fill:#FFFFFF;" d="M61.2,58.5H54l-3.5,6.3l-3.7-6.3h-8.4c-2.5,0-4.6-2.1-4.6-4.6V37c0-2.5,2.1-4.6,4.6-4.6h22.8
	c2.5,0,4.6,2.1,4.6,4.6v16.9C65.8,56.4,63.7,58.5,61.2,58.5z"/>
<polyline style="opacity:0.2;fill:#FFFFFF;" points="77,80.2 26.3,80.2 78,46.2 "/>
<path style="fill:#644E43;" d="M18.2,65.4c-4.7,0-8.5-3.8-8.5-8.5s3.8-8.5,8.5-8.5c0.6,0,1,0.5,1,1c0,0.6-0.5,1-1,1
	c-3.6,0-6.4,2.9-6.4,6.4s2.9,6.4,6.4,6.4c0.6,0,1,0.5,1,1S18.8,65.4,18.2,65.4z"/>
<line style="opacity:0.2;fill:#FFFFFF;" x1="77" y1="46.3" x2="77" y2="81.3"/>
<path style="fill:#EFEAE2;" d="M59,51.9h-4.2h-9.5h-4.1l2.3-5.4c0-2.4,0-2.4,0-2.4s0-7.4,6.5-7.4c6.1,0,6.5,7.4,6.5,7.4s0,0,0,2.2
	L59,51.9z"/>
<polygon style="opacity:5.000000e-02;" points="41.5,52 44,46.8 56.2,46.8 58.5,52 "/>
<g>
	<path style="fill:#634E42;" d="M38.4,27.2c-0.2-0.2-0.3-0.4-0.3-0.7l0,0c0-0.3,0.1-0.5,0.3-0.7l0,0c0.2-0.2,0.5-0.3,0.7-0.3l0,0
		c0.3,0,0.5,0.1,0.7,0.3l0,0c0.2,0.2,0.3,0.5,0.3,0.7l0,0c0,0.3-0.1,0.5-0.3,0.7l0,0c-0.2,0.2-0.4,0.3-0.7,0.3l0,0
		C38.9,27.4,38.6,27.3,38.4,27.2z M59,26.6L59,26.6c-0.4-0.4-0.5-1-0.1-1.4l0,0c0.4-0.4,1-0.4,1.4-0.1l0,0c0.4,0.4,0.4,1,0.1,1.4
		l0,0c-0.2,0.2-0.5,0.3-0.8,0.3l0,0C59.5,26.8,59.2,26.8,59,26.6z M41.9,24.2c-0.3-0.5-0.1-1.1,0.4-1.4l0,0c0.5-0.3,1.1-0.1,1.4,0.4
		l0,0c0.3,0.5,0.1,1.1-0.4,1.4l0,0c-0.2,0.1-0.3,0.1-0.5,0.1l0,0C42.4,24.8,42,24.6,41.9,24.2z M55.5,24.3C55,24.1,54.8,23.5,55,23
		l0,0c0.2-0.5,0.8-0.7,1.3-0.5l0,0c0.5,0.2,0.7,0.8,0.5,1.3l0,0c-0.2,0.4-0.5,0.6-0.9,0.6l0,0C55.8,24.4,55.6,24.3,55.5,24.3z
		 M46,22.5c-0.1-0.5,0.3-1.1,0.8-1.2l0,0c0.5-0.1,1.1,0.3,1.2,0.8l0,0c0.1,0.5-0.3,1.1-0.8,1.2l0,0c-0.1,0-0.1,0-0.2,0l0,0
		C46.6,23.3,46.1,22.9,46,22.5z M51.4,23.2L51.4,23.2c-0.5-0.1-0.9-0.6-0.9-1.1l0,0c0.1-0.6,0.6-0.9,1.1-0.9l0,0l0,0l0,0
		c0.5,0.1,0.9,0.6,0.9,1.1l0,0c-0.1,0.5-0.5,0.9-1,0.9l0,0C51.5,23.2,51.5,23.2,51.4,23.2z"/>
</g>
<path style="fill:#634E42;" d="M34.1,22.5c-0.4-0.4-0.4-1,0-1.4l0,0l0,0l0,0c0.4-0.4,1-0.4,1.4,0l0,0c0.4,0.4,0.4,1,0,1.4l0,0
	c-0.2,0.2-0.5,0.3-0.7,0.3l0,0C34.6,22.8,34.3,22.7,34.1,22.5z M63,21.4L63,21.4c-0.4-0.4-0.5-1-0.1-1.4l0,0c0.4-0.4,1-0.5,1.4-0.1
	l0,0c0,0,0,0,0,0l0,0c0.4,0.4,0.5,1,0.1,1.4l0,0c-0.2,0.2-0.5,0.3-0.8,0.3l0,0C63.5,21.6,63.2,21.6,63,21.4z M37.5,19.5
	c-0.3-0.5-0.2-1.1,0.3-1.4l0,0c0.5-0.3,1.1-0.2,1.4,0.3l0,0c0.3,0.5,0.2,1.1-0.3,1.4l0,0c-0.2,0.1-0.4,0.2-0.5,0.2l0,0
	C38,19.9,37.7,19.8,37.5,19.5z M59.5,19c-0.5-0.3-0.7-0.9-0.4-1.4l0,0c0.3-0.5,0.9-0.7,1.3-0.4l0,0c0.5,0.3,0.7,0.9,0.4,1.4l0,0
	c-0.2,0.3-0.5,0.5-0.9,0.5l0,0C59.8,19.1,59.6,19,59.5,19z M41.4,17.2c-0.2-0.5,0.1-1.1,0.6-1.3l0,0c0.5-0.2,1.1,0.1,1.3,0.6l0,0
	c0.2,0.5-0.1,1.1-0.6,1.3l0,0c-0.1,0-0.2,0.1-0.4,0.1l0,0C42,17.9,41.6,17.6,41.4,17.2z M55.5,17.3c-0.5-0.2-0.8-0.7-0.7-1.2l0,0
	c0.2-0.5,0.7-0.8,1.2-0.7l0,0l0,0l0,0c0.5,0.2,0.8,0.7,0.7,1.2l0,0c-0.1,0.4-0.5,0.7-1,0.7l0,0C55.7,17.4,55.6,17.4,55.5,17.3z
	 M45.8,15.9c-0.1-0.5,0.3-1.1,0.8-1.1l0,0c0.5-0.1,1.1,0.3,1.1,0.8l0,0c0.1,0.6-0.3,1.1-0.9,1.1l0,0c-0.1,0-0.1,0-0.1,0l0,0
	C46.3,16.8,45.9,16.4,45.8,15.9z M51.2,16.6c-0.6,0-1-0.5-0.9-1.1l0,0c0-0.6,0.5-1,1.1-0.9l0,0c0.5,0,1,0.5,0.9,1.1l0,0
	C52.3,16.2,51.8,16.6,51.2,16.6L51.2,16.6C51.3,16.6,51.3,16.6,51.2,16.6z"/>
<path style="fill:#634E42;" d="M29.3,17.6c-0.4-0.4-0.4-1,0-1.4l0,0l0,0l0,0c0.4-0.4,1-0.4,1.4,0l0,0c0.4,0.4,0.4,1,0,1.4l0,0
	c-0.2,0.2-0.4,0.3-0.7,0.3l0,0C29.8,17.8,29.5,17.8,29.3,17.6z M66.7,15.5L66.7,15.5c-0.4-0.3-0.5-1-0.2-1.4l0,0
	c0.4-0.4,1-0.5,1.4-0.2l0,0l0,0l0,0c0.4,0.3,0.5,1,0.2,1.4l0,0c-0.2,0.3-0.5,0.4-0.8,0.4l0,0C67.1,15.7,66.9,15.6,66.7,15.5z
	 M32.7,14.5c-0.3-0.5-0.2-1.1,0.2-1.4l0,0c0.4-0.3,1.1-0.2,1.4,0.2l0,0c0.3,0.5,0.2,1.1-0.2,1.4l0,0c-0.2,0.1-0.4,0.2-0.6,0.2l0,0
	C33.2,14.9,32.8,14.8,32.7,14.5z M63,13L63,13c-0.5-0.3-0.7-0.9-0.4-1.4l0,0c0.3-0.5,0.9-0.7,1.4-0.4l0,0c0.5,0.3,0.7,0.9,0.4,1.4
	l0,0c-0.2,0.3-0.5,0.5-0.9,0.5l0,0C63.4,13.2,63.2,13.1,63,13z M36.5,12c-0.3-0.5-0.1-1.1,0.4-1.3l0,0c0.5-0.3,1.1-0.1,1.3,0.4l0,0
	c0.3,0.5,0.1,1.1-0.4,1.3l0,0c-0.1,0.1-0.3,0.1-0.5,0.1l0,0C37,12.6,36.6,12.4,36.5,12z M59.1,11.2c-0.5-0.2-0.8-0.8-0.6-1.3l0,0
	c0.2-0.5,0.8-0.8,1.3-0.6l0,0c0.5,0.2,0.8,0.8,0.6,1.3l0,0c-0.1,0.4-0.5,0.7-0.9,0.7l0,0C59.3,11.3,59.2,11.3,59.1,11.2z M40.6,10.2
	c-0.2-0.5,0.1-1.1,0.7-1.3l0,0l0,0l0,0c0.5-0.2,1.1,0.1,1.3,0.7l0,0c0.2,0.5-0.1,1.1-0.7,1.3l0,0c-0.1,0-0.2,0.1-0.3,0.1l0,0
	C41.1,10.9,40.7,10.6,40.6,10.2z M54.8,10.1C54.3,10,54,9.5,54,8.9l0,0c0.1-0.5,0.6-0.9,1.2-0.8l0,0c0,0,0,0,0,0l0,0
	c0.5,0.1,0.9,0.6,0.8,1.2l0,0c-0.1,0.5-0.5,0.8-1,0.8l0,0C55,10.1,54.9,10.1,54.8,10.1z M45,9c-0.1-0.5,0.3-1,0.8-1.1l0,0
	c0.6-0.1,1.1,0.3,1.1,0.9l0,0c0.1,0.5-0.3,1.1-0.9,1.1l0,0c-0.1,0-0.1,0-0.1,0l0,0C45.5,9.9,45.1,9.5,45,9z M50.5,9.6L50.5,9.6
	c-0.6,0-1-0.5-1-1l0,0c0-0.5,0.5-1,1-1l0,0c0.5,0,1,0.5,1,1l0,0C51.5,9.2,51.1,9.6,50.5,9.6L50.5,9.6C50.5,9.6,50.5,9.6,50.5,9.6z"
	/>
<path style="fill:#644E43;" d="M86.8,73h-4.3V42.3c0-0.6-0.4-1-1-1H67v-6c0-2-1.7-3.7-3.7-3.7H37.2c-2,0-3.7,1.7-3.7,3.7v6H19
	c-0.6,0-1,0.4-1,1v43.1c0,0.6,0.4,1,1,1h62.5c0.6,0,1-0.4,1-1v-3.2h4.3c2.3,0,4.2-2.1,4.2-4.6S89.2,73,86.8,73z M35.5,35.3
	c0-0.9,0.8-1.7,1.7-1.7h26.1c0.9,0,1.7,0.8,1.7,1.7v20.6c0,0.9-0.8,1.7-1.7,1.7h-9.2c-0.4,0-0.7,0.2-0.9,0.5l-3,5.2l-2.9-5.1
	c-0.2-0.3-0.5-0.5-0.9-0.5h-9.3c-0.9,0-1.7-0.8-1.7-1.7V35.3z M37.2,59.6h8.7l3.5,6.1c0.2,0.3,0.5,0.5,0.9,0.5c0,0,0,0,0,0
	c0.4,0,0.7-0.2,0.9-0.5l3.6-6.2h8.6c2,0,3.7-1.7,3.7-3.7v-8.7h9v33H24.6v-33h8.9v8.7C33.5,57.9,35.1,59.6,37.2,59.6z M80.5,84.4H20
	V43.3h13.5v1.9h-9.9c-0.6,0-1,0.4-1,1v35c0,0.6,0.4,1,1,1H77c0.6,0,1-0.4,1-1v-35c0-0.6-0.4-1-1-1H67v-1.9h13.6V84.4z M86.8,80.2
	h-4.3V75h4.3c1.2,0,2.2,1.2,2.2,2.6S88.1,80.2,86.8,80.2z"/>
<path style="fill:#644E43;" d="M59.9,51.5l-2.5-5.4l0-2c-0.2-2.9-1.9-8.3-7.5-8.3c-5.9,0-7.5,5.5-7.5,8.4v2.2l-2.2,5.2
	c-0.1,0.3-0.1,0.7,0.1,0.9s0.5,0.4,0.8,0.4h6.7c0.1,1.1,1.1,2,2.2,2c1.1,0,2.1-0.9,2.2-2H59c0.3,0,0.7-0.2,0.8-0.5
	C60,52.1,60,51.8,59.9,51.5z M42.7,50.9l1.6-3.7h7.1c0.6,0,1-0.4,1-1s-0.4-1-1-1h-6.9v-1c0-0.3,0.1-6.4,5.5-6.4c5,0,5.4,6.1,5.5,6.4
	v2.2c0,0.1,0,0.3,0.1,0.4l1.9,4.2H42.7z"/>
</svg>
