<?xml version="1.0" encoding="utf-8"?>
<!-- Generator: Adobe Illustrator 22.0.1, SVG Export Plug-In . SVG Version: 6.00 Build 0)  -->
<svg version="1.1" id="Capa_1" xmlns="http://www.w3.org/2000/svg" xmlns:xlink="http://www.w3.org/1999/xlink" x="0px" y="0px"
	 viewBox="0 0 100 100" style="enable-background:new 0 0 100 100;" xml:space="preserve">
<path id="COLOR" class="mainColorFill" style="fill:#7DA92B;" d="M53.8,29.5c0-1.7-1.3-3-3-3s-3,1.3-3,3c0,1.1,0.6,2.1,1.5,2.6L37.8,88.8h6.1
	c-1.5-2.4-0.4-21.9,2.6-38.2l3-18.5c0.4,0.2,0.9,0.4,1.4,0.4c0.6,0,1.1-0.2,1.5-0.4l3,18.6c3,16.3,4.1,35.8,2.6,38.2h6.1L52.4,32
	C53.2,31.5,53.8,30.5,53.8,29.5z"/>
<g>
	<path style="fill:#644E43;" d="M69.9,90.4H25c-0.6,0-1,0.5-1,1s0.5,1,1,1h45c0.6,0,1-0.5,1-1S70.5,90.4,69.9,90.4z"/>
	<path style="fill:#644E43;" d="M21,90.4h-3.5c-0.6,0-1,0.5-1,1s0.5,1,1,1H21c0.6,0,1-0.5,1-1S21.6,90.4,21,90.4z"/>
	<path style="fill:#644E43;" d="M82.4,90.4h-8c-0.6,0-1,0.5-1,1s0.5,1,1,1h8c0.6,0,1-0.5,1-1S83,90.4,82.4,90.4z"/>
	<path style="fill:#644E43;" d="M36.8,89.8h1h6.1h0.8c0.6,0,1-0.5,1-1s-0.5-1-1-1h-0.1c-0.2-0.8-0.3-2.5-0.3-4.7l6.6-6.6l6.7,6.7
		c0,2.2-0.1,3.8-0.3,4.6h-0.5c-0.6,0-1,0.5-1,1s0.5,1,1,1h1.1H64h0.7c0.6,0,1-0.5,1-1s-0.4-0.9-0.9-1L53.5,32.4
		c0.8-0.7,1.3-1.8,1.3-2.9c0-2.2-1.8-4-4-4s-4,1.8-4,4c0,1.2,0.6,2.3,1.4,3L37,87.8h-0.2c-0.6,0-1,0.5-1,1S36.2,89.8,36.8,89.8z
		 M58.9,69.2l3.8,18.6h-3.5c0.6-3.3,0.4-10.6-0.4-18.6H58.9z M57.5,80.3l-5.2-5.2l4.6-4.6C57.2,74.1,57.4,77.5,57.5,80.3z
		 M56.3,64.6l-4.1-4.1l3.1-3.1C55.7,59.9,56,62.3,56.3,64.6z M53.8,47.6L52.2,46l1.1-1.1L53.8,47.6z M50.8,27.5c1.1,0,2,0.9,2,2
		s-0.9,2-2,2s-2-0.9-2-2S49.7,27.5,50.8,27.5z M50.2,33.4c0.2,0,0.4,0.1,0.6,0.1c0.2,0,0.5,0,0.7-0.1l1.4,9.1l-2.1,2.1l-2-2
		L50.2,33.4z M48.4,45l1,1L48,47.4L48.4,45z M47.5,50.8L47.5,50.8l3.3-3.4l3.5,3.5c0.2,1.3,0.5,2.7,0.7,4l-4.2,4.2L46.7,55
		C47,53.6,47.2,52.2,47.5,50.8z M46.4,57.5l3,3l-3.9,3.9C45.7,62.2,46,59.9,46.4,57.5z M45.1,67.7l5.7-5.7l5.8,5.8l0,0l-5.8,5.8
		l-5.7-5.7C45.1,67.8,45.1,67.8,45.1,67.7z M44.9,70.5l4.5,4.5l-5.1,5.1C44.3,77.4,44.5,74.1,44.9,70.5z M42.8,69.2L42.8,69.2
		c-0.4,4.9-0.8,13.7-0.6,14c0,1.9,0.1,3.5,0.3,4.6H39L42.8,69.2z"/>
</g>
<path style="fill:#644E43;" d="M66,12.4c0.1-0.2,0.1-0.4-0.1-0.6l-0.3,0.3l-0.2,0.4c0.1,0.1,0.2,0.1,0.3,0.1
	C65.8,12.6,65.9,12.5,66,12.4z"/>
<path style="fill:#644E43;" d="M39.5,10.1c0.1,0,0.2,0,0.2-0.1c0.2-0.1,0.3-0.4,0.2-0.6c-0.1-0.2-0.4-0.3-0.6-0.2h-0.1
	C39,9.4,39,9.7,39.1,9.9C39.2,10,39.3,10.1,39.5,10.1z"/>
<path style="fill:#644E43;" d="M30,20.2c0.1,0,0.1,0,0.2,0c0.2,0,0.3-0.1,0.4-0.3c0.1-0.2,0-0.5-0.2-0.6s-0.5,0-0.6,0.2v0.1
	C29.6,19.8,29.8,20.1,30,20.2z"/>
<path style="fill:#644E43;" d="M29.3,21.8h0.1c0.2,0,0.4-0.1,0.4-0.3c0.1-0.2,0-0.5-0.2-0.5c-0.2-0.1-0.5,0-0.5,0.2v0.1
	C29,21.5,29.1,21.7,29.3,21.8z"/>
<path style="fill:#644E43;" d="M38,11c0.1,0,0.2,0,0.3-0.1c0.2-0.1,0.2-0.4,0.1-0.6c-0.1-0.2-0.4-0.2-0.6-0.1h-0.1
	c-0.2,0.1-0.2,0.4-0.1,0.6C37.7,10.9,37.9,11,38,11z"/>
<path style="fill:#644E43;" d="M28.8,23.4h0.1c0.2,0,0.4-0.1,0.4-0.3c0.1-0.2-0.1-0.5-0.3-0.5c-0.2-0.1-0.5,0.1-0.5,0.3V23
	C28.4,23.2,28.6,23.4,28.8,23.4z"/>
<path style="fill:#644E43;" d="M38.5,49.2L38.5,49.2c0.1,0.1,0.2,0.1,0.3,0.1s0.3-0.1,0.4-0.2c0.1-0.2,0-0.5-0.2-0.6
	s-0.5-0.1-0.6,0.1S38.3,49.1,38.5,49.2z"/>
<path style="fill:#644E43;" d="M64.6,11.3c0.1-0.2,0.1-0.5-0.1-0.6L64.2,11L64,11.4c0.1,0.1,0.2,0.1,0.2,0.1
	C64.4,11.5,64.5,11.4,64.6,11.3z"/>
<path style="fill:#644E43;" d="M36.6,12c0.1,0,0.2,0,0.3-0.1c0.2-0.1,0.2-0.4,0.1-0.6c-0.1-0.2-0.4-0.2-0.6-0.1h-0.1
	c-0.2,0.1-0.2,0.4,0,0.6C36.3,12,36.5,12,36.6,12z"/>
<path style="fill:#644E43;" d="M28.5,31.6c0-0.2-0.2-0.4-0.5-0.4c-0.2,0-0.4,0.2-0.4,0.5H28L28.5,31.6z"/>
<path style="fill:#644E43;" d="M28.4,33.8c0.2,0,0.4-0.3,0.3-0.5c0-0.2-0.3-0.4-0.5-0.3c-0.2,0-0.4,0.3-0.3,0.5v0.1
	C27.9,33.7,28.1,33.8,28.4,33.8C28.3,33.8,28.4,33.8,28.4,33.8z"/>
<path style="fill:#644E43;" d="M28.6,34.7c-0.2,0.1-0.4,0.3-0.3,0.5h0.4l0.4-0.2C29,34.8,28.8,34.6,28.6,34.7z"/>
<path style="fill:#644E43;" d="M29.6,36.6c-0.1-0.2-0.3-0.3-0.5-0.3c-0.2,0.1-0.3,0.3-0.3,0.5v0.1c0.1,0.2,0.2,0.3,0.4,0.3
	c0.1,0,0.1,0,0.2,0C29.5,37.1,29.6,36.9,29.6,36.6z"/>
<path style="fill:#644E43;" d="M30.2,38.2c-0.1-0.2-0.3-0.3-0.5-0.2s-0.3,0.3-0.2,0.5v0.1c0.1,0.2,0.2,0.2,0.4,0.2
	c0.1,0,0.1,0,0.2,0C30.2,38.7,30.3,38.5,30.2,38.2z"/>
<path style="fill:#644E43;" d="M28.4,25.1L28.4,25.1c0.3,0,0.5-0.2,0.5-0.4c0-0.2-0.1-0.4-0.3-0.5c-0.2-0.1-0.5,0.1-0.5,0.3l0,0
	C28,24.9,28.2,25.1,28.4,25.1z"/>
<path style="fill:#644E43;" d="M28.4,28.2c0-0.2-0.2-0.4-0.4-0.4c-0.2,0-0.4,0.2-0.4,0.4l0.4,0.1L28.4,28.2z"/>
<path style="fill:#644E43;" d="M28,30.4L28,30.4c0.2,0,0.4-0.2,0.4-0.5c0-0.2-0.2-0.4-0.4-0.4l0,0c-0.2,0-0.4,0.2-0.4,0.4V30
	C27.6,30.2,27.8,30.4,28,30.4z"/>
<path style="fill:#644E43;" d="M28.6,26.5c0-0.2-0.1-0.4-0.4-0.5c-0.2,0-0.4,0.1-0.5,0.4l0.4,0.1H28.6z"/>
<path style="fill:#644E43;" d="M46,7.6C46.1,7.6,46.1,7.6,46,7.6c0.3-0.1,0.5-0.3,0.4-0.5c0-0.2-0.3-0.4-0.5-0.3h-0.1
	c-0.2,0-0.3,0.3-0.3,0.5C45.6,7.4,45.8,7.6,46,7.6z"/>
<path style="fill:#644E43;" d="M55.1,7.1c0-0.2-0.1-0.4-0.3-0.5L54.6,7v0.4c0,0,0,0,0.1,0C54.9,7.4,55.1,7.3,55.1,7.1z"/>
<path style="fill:#644E43;" d="M56.8,7.5C56.9,7.3,56.7,7,56.5,7l-0.2,0.4v0.4h0.1C56.6,7.8,56.8,7.6,56.8,7.5z"/>
<path style="fill:#644E43;" d="M58,8.2L58,8.2c0.3,0,0.4-0.1,0.5-0.3s-0.1-0.5-0.3-0.5h-0.1c-0.2-0.1-0.4,0.1-0.5,0.3
	C57.6,7.9,57.7,8.2,58,8.2z"/>
<path style="fill:#644E43;" d="M44.3,8L44.3,8c0.3-0.1,0.4-0.3,0.4-0.5c-0.1-0.2-0.3-0.4-0.5-0.3h-0.1c-0.2,0.1-0.3,0.3-0.3,0.5
	C43.9,7.9,44.1,8,44.3,8z"/>
<path style="fill:#644E43;" d="M49.5,7.1L49.5,7.1c0.3,0,0.4-0.2,0.4-0.4c0-0.2-0.2-0.4-0.4-0.4h-0.1c-0.2,0-0.4,0.2-0.4,0.4
	S49.3,7.1,49.5,7.1z"/>
<path style="fill:#644E43;" d="M51.7,6.7c0-0.2-0.2-0.4-0.4-0.4l-0.1,0.4l0.1,0.4C51.5,7.1,51.7,6.9,51.7,6.7z"/>
<path style="fill:#644E43;" d="M52.9,7.2C53,7.2,53,7.2,52.9,7.2c0.3,0,0.4-0.2,0.5-0.4c0-0.2-0.1-0.4-0.4-0.5h-0.1
	c-0.2,0-0.4,0.2-0.4,0.4S52.7,7.2,52.9,7.2z"/>
<path style="fill:#644E43;" d="M48.2,6.8c0-0.2-0.3-0.4-0.5-0.4v0.4l0.1,0.4C48,7.2,48.2,7,48.2,6.8z"/>
<path style="fill:#644E43;" d="M61.9,48.9c-0.2,0.1-0.3,0.4-0.2,0.6c0.1,0.1,0.2,0.2,0.4,0.2c0.1,0,0.1,0,0.2-0.1h0.1
	c0.2-0.1,0.2-0.4,0.1-0.6C62.4,48.9,62.1,48.8,61.9,48.9z"/>
<path style="fill:#644E43;" d="M41,9.3c0.1,0,0.1,0,0.2,0c0.2-0.1,0.3-0.3,0.2-0.6c-0.1-0.2-0.3-0.3-0.6-0.2h-0.1
	c-0.2,0.1-0.3,0.3-0.2,0.5C40.7,9.2,40.9,9.3,41,9.3z"/>
<path style="fill:#644E43;" d="M63.2,10.3c0.1-0.2,0.1-0.5-0.1-0.6L62.8,10l-0.2,0.4c0.1,0,0.1,0.1,0.2,0.1
	C63,10.5,63.1,10.4,63.2,10.3z"/>
<path style="fill:#644E43;" d="M60.1,8.6c0.1-0.2,0-0.5-0.2-0.5l-0.2,0.4l-0.1,0.4c0.1,0,0.1,0,0.2,0S60.1,8.8,60.1,8.6z"/>
<path style="fill:#644E43;" d="M61.7,9.4c0.1-0.2,0-0.5-0.2-0.6l-0.2,0.3l-0.1,0.4c0.1,0,0.1,0,0.2,0C61.5,9.6,61.6,9.5,61.7,9.4z"
	/>
<path style="fill:#644E43;" d="M40.1,50.1L40.1,50.1c0.1,0.1,0.2,0.1,0.2,0.1c0.1,0,0.3-0.1,0.4-0.2c0.1-0.2,0-0.5-0.2-0.6
	s-0.5,0-0.6,0.2C39.8,49.7,39.9,50,40.1,50.1z"/>
<path style="fill:#644E43;" d="M41.5,50.3c-0.1,0.2,0,0.5,0.2,0.5l0.2-0.4L42,50C41.8,50,41.5,50.1,41.5,50.3z"/>
<path style="fill:#644E43;" d="M60.4,49.7c-0.2,0.1-0.3,0.4-0.2,0.6c0.1,0.1,0.2,0.2,0.4,0.2c0.1,0,0.1,0,0.2,0l-0.1-0.4L60.4,49.7z
	"/>
<path style="fill:#644E43;" d="M42.8,8.5c0.2,0,0.4-0.3,0.3-0.5c-0.1-0.2-0.3-0.3-0.5-0.2l0.1,0.4L42.8,8.5z"/>
<path style="fill:#644E43;" d="M34.3,13.7c-0.2-0.2-0.4-0.2-0.6,0v0.1c-0.2,0.2-0.1,0.4,0,0.6c0.1,0.1,0.2,0.1,0.3,0.1
	s0.3-0.1,0.3-0.1C34.5,14.1,34.5,13.8,34.3,13.7z"/>
<path style="fill:#644E43;" d="M66,45.9c-0.2,0.2-0.2,0.4,0,0.6c0.1,0.1,0.2,0.1,0.3,0.1s0.2,0,0.3-0.1l-0.2-0.3L66,45.9z"/>
<path style="fill:#644E43;" d="M67.3,44.7c-0.2,0.2-0.1,0.4,0,0.6c0.1,0.1,0.2,0.1,0.3,0.1c0.1,0,0.2,0,0.3-0.1L67.6,45L67.3,44.7z"
	/>
<path style="fill:#644E43;" d="M67.2,13l-0.3,0.3l-0.2,0.3c0.1,0.1,0.2,0.1,0.3,0.1c0.1,0,0.2,0,0.3-0.1
	C67.4,13.5,67.4,13.2,67.2,13z"/>
<path style="fill:#644E43;" d="M68.4,43.4c-0.1,0.2-0.1,0.4,0.1,0.6c0.1,0.1,0.2,0.1,0.3,0.1c0.1,0,0.2-0.1,0.3-0.2
	c0,0,0-0.1,0.1-0.1c0.1-0.2,0.1-0.4-0.1-0.6C68.8,43.1,68.5,43.2,68.4,43.4z"/>
<path style="fill:#644E43;" d="M68.4,14.3L68.4,14.3c-0.2-0.2-0.4-0.2-0.6-0.1c-0.2,0.2-0.2,0.4,0,0.6C67.9,15,68,15,68.1,15
	s0.2,0,0.3-0.1C68.6,14.8,68.6,14.5,68.4,14.3z"/>
<path style="fill:#644E43;" d="M69.6,15.7C69.6,15.7,69.5,15.7,69.6,15.7c-0.2-0.2-0.4-0.3-0.6-0.1c-0.2,0.1-0.2,0.4-0.1,0.6
	c0.1,0.1,0.2,0.2,0.3,0.2c0.1,0,0.2,0,0.2-0.1C69.6,16.2,69.7,15.9,69.6,15.7z"/>
<path style="fill:#644E43;" d="M64.8,47c-0.2,0.1-0.2,0.4-0.1,0.6c0.1,0.1,0.2,0.2,0.3,0.2c0.1,0,0.2,0,0.3-0.1h0.1
	c0.2-0.1,0.2-0.4,0-0.6C65.2,46.9,64.9,46.9,64.8,47z"/>
<path style="fill:#644E43;" d="M72.9,25.6c0,0.2,0.2,0.3,0.4,0.3c0,0,0,0,0.1,0c0.2,0,0.4-0.3,0.3-0.5v-0.1c0-0.2-0.3-0.3-0.5-0.3
	C73,25.1,72.8,25.4,72.9,25.6z"/>
<path style="fill:#644E43;" d="M30.3,39.6c-0.2,0.1-0.3,0.4-0.2,0.6l0.4-0.1l0.3-0.3C30.8,39.6,30.5,39.5,30.3,39.6z"/>
<path style="fill:#644E43;" d="M73.6,28.6c-0.2,0-0.4,0.2-0.4,0.5c0,0.2,0.2,0.4,0.4,0.4l0,0c0.2,0,0.4-0.2,0.4-0.4l0,0
	C74,28.7,73.9,28.6,73.6,28.6z"/>
<path style="fill:#644E43;" d="M72.5,23.9c0,0.2,0.2,0.3,0.4,0.3H73c0.2-0.1,0.4-0.3,0.3-0.5v-0.1c-0.1-0.2-0.3-0.3-0.5-0.3
	C72.6,23.5,72.5,23.7,72.5,23.9z"/>
<path style="fill:#644E43;" d="M72.8,35.5c-0.2-0.1-0.5,0.1-0.5,0.3c-0.1,0.2,0.1,0.5,0.3,0.5h0.1c0.2,0,0.3-0.1,0.4-0.3v-0.1
	C73.2,35.8,73.1,35.6,72.8,35.5z"/>
<path style="fill:#644E43;" d="M72.7,34.2c0,0.2,0.1,0.4,0.3,0.5c0,0,0,0,0.1,0c0.2,0,0.4-0.1,0.4-0.3l-0.4-0.1L72.7,34.2z"/>
<path style="fill:#644E43;" d="M69.4,42c-0.1,0.2-0.1,0.5,0.1,0.6c0.1,0,0.1,0.1,0.2,0.1s0.3-0.1,0.4-0.2l-0.3-0.3L69.4,42z"/>
<path style="fill:#644E43;" d="M73.6,30.3c-0.2,0-0.4,0.2-0.4,0.4c0,0.2,0.2,0.4,0.4,0.5l0,0c0.2,0,0.4-0.2,0.4-0.4v-0.1
	C74,30.5,73.9,30.3,73.6,30.3z"/>
<path style="fill:#644E43;" d="M73.5,32.1c-0.2,0-0.4,0.2-0.5,0.4c0,0.2,0.1,0.4,0.4,0.5c0,0,0,0,0.1,0c0.2,0,0.4-0.2,0.4-0.4v-0.1
	C73.9,32.3,73.7,32.1,73.5,32.1z"/>
<path style="fill:#644E43;" d="M70.9,40.4c-0.2-0.1-0.5,0-0.6,0.2s-0.1,0.5,0.1,0.6c0.1,0,0.1,0.1,0.2,0.1s0.3-0.1,0.4-0.2V41
	C71.2,40.7,71.1,40.5,70.9,40.4z"/>
<path style="fill:#644E43;" d="M70.5,17.2l-0.4,0.2l-0.3,0.3c0.1,0.1,0.2,0.2,0.3,0.2c0.1,0,0.2,0,0.2-0.1
	C70.6,17.6,70.7,17.4,70.5,17.2z"/>
<path style="fill:#644E43;" d="M72.3,37.2c-0.2-0.1-0.5,0.1-0.6,0.3s0,0.5,0.2,0.5H72c0.2,0,0.3-0.1,0.4-0.3v-0.1
	C72.6,37.5,72.5,37.2,72.3,37.2z"/>
<path style="fill:#644E43;" d="M71.1,39c-0.1,0.2,0,0.5,0.2,0.6c0.1,0,0.1,0,0.2,0c0.2,0,0.3-0.1,0.4-0.3l-0.4-0.2L71.1,39z"/>
<path style="fill:#644E43;" d="M73.1,27.3c0,0.2,0.2,0.4,0.4,0.4c0,0,0,0,0.1,0c0.2,0,0.4-0.2,0.4-0.5h-0.4L73.1,27.3z"/>
<path style="fill:#644E43;" d="M34.4,45.9l0.3-0.3L34.4,45.9c0.1,0.1,0.2,0.1,0.3,0.1s0.2,0,0.3-0.1c0.2-0.2,0.1-0.5,0-0.6
	L34.4,45.9z"/>
<path style="fill:#644E43;" d="M33.2,44c-0.2,0.2-0.2,0.4,0,0.6v0.1c0.1,0.1,0.2,0.1,0.3,0.1s0.2,0,0.3-0.1c0.2-0.2,0.2-0.4,0-0.6
	S33.4,43.9,33.2,44z"/>
<path style="fill:#644E43;" d="M71.1,19.4c0.1,0,0.1,0,0.2,0c0.2-0.1,0.3-0.4,0.2-0.6v-0.1c-0.1-0.2-0.3-0.3-0.5-0.1
	c-0.2,0.1-0.3,0.4-0.2,0.6C70.8,19.3,70.9,19.4,71.1,19.4z"/>
<path style="fill:#644E43;" d="M35.6,46.5c-0.2,0.2-0.1,0.4,0,0.6l0.3-0.3l0.2-0.4C36,46.3,35.8,46.4,35.6,46.5z"/>
<path style="fill:#644E43;" d="M35.6,12.4c-0.2-0.2-0.4-0.2-0.6,0l0.2,0.3l0.3,0.3C35.8,12.9,35.8,12.6,35.6,12.4z"/>
<path style="fill:#644E43;" d="M32.1,16.4c-0.2-0.1-0.5-0.1-0.6,0.1l0.3,0.3l0.4,0.2C32.4,16.7,32.3,16.5,32.1,16.4z"/>
<path style="fill:#644E43;" d="M33.2,15c-0.2-0.1-0.4-0.1-0.6,0.1v0.1c-0.1,0.2-0.1,0.4,0.1,0.6c0.1,0.1,0.2,0.1,0.2,0.1
	c0.1,0,0.3-0.1,0.4-0.2C33.4,15.4,33.4,15.1,33.2,15z"/>
<path style="fill:#644E43;" d="M31.2,17.8c-0.2-0.1-0.5,0-0.6,0.2l0.3,0.3l0.4,0.1C31.4,18.2,31.4,17.9,31.2,17.8z"/>
<path style="fill:#644E43;" d="M32.1,42.6c-0.2,0.1-0.2,0.4-0.1,0.6l0.4-0.2l0.3-0.3C32.6,42.5,32.3,42.5,32.1,42.6z"/>
<path style="fill:#644E43;" d="M31.2,41.2c-0.2,0.1-0.3,0.4-0.1,0.6l0.4-0.2l0.3-0.3C31.6,41.1,31.4,41,31.2,41.2z"/>
<path style="fill:#644E43;" d="M71.4,20.7c0.1,0.2,0.2,0.3,0.4,0.3c0.1,0,0.1,0,0.2,0c0.2-0.1,0.3-0.3,0.2-0.5v-0.1
	c-0.1-0.2-0.3-0.3-0.5-0.2C71.4,20.2,71.3,20.5,71.4,20.7z"/>
<path style="fill:#644E43;" d="M72.4,22.6L72.4,22.6c0.3-0.1,0.4-0.3,0.3-0.5l-0.4,0.1L72,22.3C72.1,22.5,72.3,22.6,72.4,22.6z"/>
<path style="fill:#644E43;" d="M37,47.6c-0.1,0.2-0.1,0.5,0.1,0.6h0.1c0.1,0.1,0.1,0.1,0.2,0.1c0.1,0,0.3-0.1,0.3-0.2
	c0.1-0.2,0.1-0.5-0.1-0.6C37.4,47.4,37.1,47.5,37,47.6z"/>
<path style="fill:#644E43;" d="M63.4,48c-0.2,0.1-0.2,0.4-0.1,0.6c0.1,0.1,0.2,0.2,0.3,0.2s0.2,0,0.2-0.1h0.1
	c0.2-0.1,0.2-0.4,0.1-0.6C63.8,47.9,63.6,47.9,63.4,48z"/>
<path style="fill:#644E43;" d="M54.8,15.1c-0.1,0.2,0.1,0.5,0.3,0.5h0.1c0.2,0,0.3-0.1,0.4-0.3c0.1-0.2-0.1-0.5-0.3-0.5h-0.1
	C55,14.8,54.8,14.9,54.8,15.1z"/>
<path style="fill:#644E43;" d="M63.4,21.9c0.1,0,0.2,0,0.2-0.1c0.2-0.1,0.2-0.4,0.1-0.6l-0.4,0.2L63,21.8
	C63.1,21.9,63.2,21.9,63.4,21.9z"/>
<path style="fill:#644E43;" d="M64.2,23.5c0.1,0,0.1,0,0.2,0c0.2-0.1,0.3-0.4,0.2-0.6v-0.1c-0.1-0.2-0.3-0.3-0.5-0.2
	c-0.2,0.1-0.3,0.4-0.2,0.6C63.9,23.4,64,23.5,64.2,23.5z"/>
<path style="fill:#644E43;" d="M49.6,14.7c0,0.2,0.2,0.4,0.5,0.4l0,0c0.2,0,0.4-0.2,0.4-0.4s-0.2-0.4-0.4-0.4H50
	C49.7,14.2,49.6,14.4,49.6,14.7z"/>
<path style="fill:#644E43;" d="M51.8,15.1c0.2,0,0.4-0.2,0.4-0.4s-0.2-0.4-0.4-0.4l-0.1,0.4L51.8,15.1L51.8,15.1z"/>
<path style="fill:#644E43;" d="M56.4,15.7c-0.1,0.2,0,0.5,0.2,0.6c0.1,0,0.1,0,0.2,0c0.2,0,0.3-0.1,0.4-0.2c0.1-0.2,0-0.5-0.2-0.6
	h-0.1C56.7,15.4,56.5,15.5,56.4,15.7z"/>
<path style="fill:#644E43;" d="M63,38.4c0.1,0,0.3-0.1,0.4-0.2l0,0c0.1-0.2,0.1-0.4-0.1-0.6c-0.2-0.1-0.5-0.1-0.6,0.1
	c-0.1,0.2-0.1,0.4,0.1,0.6C62.8,38.4,62.9,38.4,63,38.4z"/>
<path style="fill:#644E43;" d="M53.1,14.8c0,0.2,0.1,0.5,0.4,0.5h0.1c0.2,0,0.4-0.1,0.4-0.3s-0.1-0.4-0.3-0.5h-0.1
	C53.3,14.4,53.1,14.6,53.1,14.8z"/>
<path style="fill:#644E43;" d="M61.4,19.1c0.2-0.2,0.1-0.4,0-0.6l0,0l-0.3,0.3l-0.2,0.4c0.1,0.1,0.2,0.1,0.3,0.1
	C61.2,19.2,61.4,19.2,61.4,19.1z"/>
<path style="fill:#644E43;" d="M64.5,24.8c0.1,0.2,0.2,0.3,0.4,0.3H65c0.2-0.1,0.3-0.3,0.3-0.5l0,0c-0.1-0.2-0.3-0.3-0.5-0.2
	C64.5,24.3,64.4,24.6,64.5,24.8z"/>
<path style="fill:#644E43;" d="M65.6,28.5L65.6,28.5c0.3,0,0.4-0.2,0.4-0.5h-0.4l-0.4,0.1C65.2,28.3,65.4,28.5,65.6,28.5z"/>
<path style="fill:#644E43;" d="M60.3,40.9c0.1,0.1,0.2,0.1,0.3,0.1s0.2,0,0.3-0.1H61c0.2-0.2,0.2-0.4,0-0.6c-0.2-0.2-0.4-0.2-0.6,0
	C60.2,40.5,60.2,40.7,60.3,40.9z"/>
<path style="fill:#644E43;" d="M65.6,30.2C65.6,30.2,65.7,30.2,65.6,30.2c0.2,0,0.4-0.2,0.4-0.4v-0.1c0-0.2-0.2-0.4-0.4-0.4l0,0
	c-0.2,0-0.4,0.2-0.4,0.4C65.2,30,65.4,30.2,65.6,30.2z"/>
<path style="fill:#644E43;" d="M65.7,26.3L65.7,26.3c-0.1-0.3-0.3-0.4-0.5-0.4c-0.2,0.1-0.4,0.3-0.3,0.5c0,0.2,0.2,0.3,0.4,0.3h0.1
	C65.7,26.7,65.8,26.5,65.7,26.3z"/>
<path style="fill:#644E43;" d="M61.6,39.7c0.1,0.1,0.2,0.1,0.3,0.1s0.2,0,0.3-0.1v-0.1c0.2-0.2,0.1-0.4-0.1-0.6
	c-0.2-0.2-0.5-0.1-0.6,0.1S61.4,39.5,61.6,39.7z"/>
<path style="fill:#644E43;" d="M62.3,20.5c0.1,0,0.2,0,0.3-0.1c0.2-0.1,0.2-0.4,0.1-0.6v-0.1c-0.1-0.2-0.4-0.2-0.6,0
	c-0.2,0.1-0.2,0.4,0,0.6C62.1,20.5,62.2,20.5,62.3,20.5z"/>
<path style="fill:#644E43;" d="M58,16.5c-0.1,0.2,0,0.5,0.2,0.6c0.1,0,0.1,0.1,0.2,0.1c0.1,0,0.3-0.1,0.4-0.2
	c0.1-0.2,0.1-0.5-0.1-0.6h-0.1C58.3,16.2,58.1,16.3,58,16.5z"/>
<path style="fill:#644E43;" d="M59.8,17.6L59.6,18c0.1,0.1,0.2,0.1,0.2,0.1c0.1,0,0.3-0.1,0.3-0.2c0.1-0.2,0.1-0.5-0.1-0.6
	L59.8,17.6z"/>
<path style="fill:#644E43;" d="M58.9,41.9c0.1,0.1,0.2,0.2,0.3,0.2s0.2,0,0.3-0.1l-0.2-0.4L59,41.4C58.8,41.5,58.8,41.8,58.9,41.9z"
	/>
<path style="fill:#644E43;" d="M37.3,23.3c0.1,0,0.1,0,0.2,0c0.2,0,0.3-0.1,0.4-0.3c0.1-0.2,0-0.5-0.2-0.6s-0.5,0-0.6,0.2v0.1
	C37,23,37.1,23.2,37.3,23.3z"/>
<path style="fill:#644E43;" d="M38.3,37.5c-0.2,0.1-0.2,0.4-0.1,0.6l0.4-0.2l0.3-0.3C38.7,37.4,38.5,37.4,38.3,37.5z"/>
<path style="fill:#644E43;" d="M43.6,17c0.2-0.1,0.3-0.4,0.1-0.6c-0.1-0.2-0.4-0.3-0.6-0.1l0.2,0.4L43.6,17z"/>
<path style="fill:#644E43;" d="M39.3,20.4c0.1,0,0.3-0.1,0.4-0.2c0.1-0.2,0.1-0.4-0.1-0.6c-0.2-0.1-0.4-0.1-0.6,0.1v0.1
	c-0.1,0.2-0.1,0.4,0.1,0.6C39.2,20.4,39.3,20.4,39.3,20.4z"/>
<path style="fill:#644E43;" d="M36.9,24.1c-0.2-0.1-0.5,0-0.5,0.3l0.4,0.2l0.4,0.1C37.3,24.4,37.2,24.2,36.9,24.1z"/>
<path style="fill:#644E43;" d="M37.4,36c-0.2,0.1-0.3,0.4-0.2,0.6l0,0l0.4-0.2l0.3-0.3C37.9,36,37.6,35.9,37.4,36z"/>
<path style="fill:#644E43;" d="M41.6,17.8c0.1,0.1,0.2,0.2,0.3,0.2s0.2,0,0.3-0.1c0.2-0.1,0.2-0.4,0.1-0.6c-0.1-0.2-0.4-0.2-0.6-0.1
	h-0.1C41.4,17.4,41.4,17.7,41.6,17.8z"/>
<path style="fill:#644E43;" d="M36.2,26.6C36.2,26.6,36.3,26.6,36.2,26.6c0.3,0,0.5-0.2,0.5-0.3c0.1-0.2-0.1-0.5-0.3-0.5
	c-0.2-0.1-0.5,0.1-0.5,0.3v0.1C35.8,26.4,36,26.6,36.2,26.6z"/>
<path style="fill:#644E43;" d="M39.3,39c-0.2,0.2-0.2,0.4,0,0.6l0,0l0.3-0.3l0.3-0.3C39.8,38.8,39.5,38.8,39.3,39z"/>
<path style="fill:#644E43;" d="M42.4,41.2c-0.2-0.1-0.4-0.1-0.6,0.1c-0.1,0.2-0.1,0.5,0.1,0.6l0,0l0.2-0.3L42.4,41.2z"/>
<path style="fill:#644E43;" d="M40.5,40.2c-0.2,0.2-0.1,0.4,0,0.6l0.3-0.3l0.2-0.4C40.9,40,40.7,40,40.5,40.2z"/>
<path style="fill:#644E43;" d="M38,21.2l0.3,0.3l0.4,0.2c0.1-0.2,0.1-0.5-0.1-0.6C38.4,20.9,38.1,21,38,21.2z"/>
<path style="fill:#644E43;" d="M65,35.1C65,35.1,65,35,65,35.1c0.1-0.3,0-0.5-0.2-0.6s-0.5,0-0.6,0.3c-0.1,0.2,0,0.5,0.2,0.6
	c0.1,0,0.1,0,0.2,0C64.8,35.4,64.9,35.3,65,35.1z"/>
<path style="fill:#644E43;" d="M36,31c-0.2,0-0.4,0.2-0.4,0.5H36l0.4-0.1C36.5,31.1,36.2,31,36,31z"/>
<path style="fill:#644E43;" d="M63.5,36.3c-0.1,0.2,0,0.5,0.2,0.6c0.1,0,0.1,0,0.2,0c0.2,0,0.3-0.1,0.4-0.2L64,36.5L63.5,36.3z"/>
<path style="fill:#644E43;" d="M65.5,31.5h-0.4c0,0.2,0.1,0.4,0.4,0.5c0,0,0,0,0.1,0c0.2,0,0.4-0.2,0.4-0.4L65.5,31.5z"/>
<path style="fill:#644E43;" d="M64.8,33.2c-0.1,0.2,0.1,0.5,0.3,0.5h0.1c0.2,0,0.4-0.1,0.4-0.3l-0.4-0.2H64.8z"/>
<path style="fill:#644E43;" d="M36,28h0.4c0-0.2-0.1-0.4-0.4-0.5c-0.2,0-0.4,0.1-0.5,0.4L36,28z"/>
<path style="fill:#644E43;" d="M37.1,35.2c0.2-0.1,0.3-0.4,0.2-0.6c-0.1-0.2-0.3-0.3-0.5-0.2s-0.3,0.3-0.2,0.6l0,0
	C36.7,35.2,36.8,35.2,37.1,35.2C37,35.2,37,35.2,37.1,35.2z"/>
<path style="fill:#644E43;" d="M35.9,30.1c0.2,0,0.4-0.2,0.4-0.5c0-0.2-0.2-0.4-0.4-0.4s-0.4,0.2-0.4,0.4v0.1
	C35.5,30,35.7,30.1,35.9,30.1L35.9,30.1z"/>
<path style="fill:#644E43;" d="M36.3,32.7c-0.2,0.1-0.4,0.3-0.3,0.5h0.4l0.4-0.2C36.7,32.8,36.5,32.6,36.3,32.7z"/>
<path style="fill:#644E43;" d="M40.5,19.1c0.1,0,0.2,0,0.3-0.1c0.2-0.2,0.2-0.4,0-0.6s-0.4-0.2-0.6,0l-0.1,0.1
	c-0.2,0.2-0.1,0.4,0,0.6C40.3,19.1,40.4,19.1,40.5,19.1z"/>
<path style="fill:#644E43;" d="M47.8,14.9c0,0.2,0.2,0.3,0.4,0.3h0.1c0.2,0,0.4-0.3,0.3-0.5c0-0.2-0.3-0.4-0.5-0.3H48
	C47.9,14.5,47.8,14.7,47.8,14.9z"/>
<path style="fill:#644E43;" d="M46.7,15.6c0.2-0.1,0.3-0.3,0.3-0.5c-0.1-0.2-0.3-0.3-0.5-0.3l0.1,0.4L46.7,15.6z"/>
<path style="fill:#644E43;" d="M43.3,42.3c-0.1,0.2,0,0.5,0.2,0.6l0.3-0.3l0.1-0.4C43.7,42,43.4,42.1,43.3,42.3z"/>
<path style="fill:#644E43;" d="M45.1,16.2c0.2-0.1,0.3-0.3,0.2-0.6c-0.1-0.2-0.3-0.3-0.6-0.2l0.1,0.4L45.1,16.2z"/>
<path style="fill:#644E43;" d="M57,25.3c0.1,0.1,0.2,0.2,0.3,0.2s0.2,0,0.2-0.1c0.2-0.1,0.2-0.4,0.1-0.6v-0.1
	c-0.1-0.2-0.4-0.2-0.6-0.1C56.9,24.8,56.9,25.1,57,25.3z"/>
<path style="fill:#644E43;" d="M44.9,23.7L44.9,23.7c-0.2,0.2-0.2,0.5,0,0.6c0.1,0.1,0.2,0.1,0.3,0.1s0.3,0,0.3-0.1
	c0.2-0.2,0.2-0.4,0-0.6S45,23.5,44.9,23.7z"/>
<path style="fill:#644E43;" d="M44.9,34.7c-0.2,0.2-0.2,0.4,0,0.6l0,0c0.1,0.1,0.2,0.1,0.3,0.1s0.2,0,0.3-0.1c0.2-0.2,0.1-0.5,0-0.6
	C45.3,34.5,45.1,34.6,44.9,34.7z"/>
<path style="fill:#644E43;" d="M56.2,24.2c0.1,0,0.2,0,0.3-0.1c0.2-0.2,0.2-0.4,0-0.6l-0.1-0.1c-0.2-0.2-0.4-0.1-0.6,0
	c-0.2,0.2-0.1,0.4,0,0.6C56,24.1,56.1,24.2,56.2,24.2z"/>
<path style="fill:#644E43;" d="M48.1,22.5c0.1,0,0.1,0,0.2,0c0.2-0.1,0.3-0.3,0.2-0.5s-0.3-0.3-0.5-0.2h-0.1
	c-0.2,0.1-0.3,0.3-0.2,0.5C47.7,22.4,47.9,22.5,48.1,22.5z"/>
<path style="fill:#644E43;" d="M49.7,21.7l0.1,0.4c0.2,0,0.4-0.2,0.4-0.5c0-0.2-0.2-0.4-0.5-0.4V21.7z"/>
<path style="fill:#644E43;" d="M53.3,21.6c-0.2-0.1-0.4,0.1-0.5,0.3c-0.1,0.2,0.1,0.5,0.3,0.5h0.1c0.2,0,0.3-0.1,0.4-0.3
	C53.7,21.9,53.6,21.7,53.3,21.6L53.3,21.6z"/>
<path style="fill:#644E43;" d="M46.3,22.5C46.3,22.5,46.2,22.5,46.3,22.5c-0.2,0.1-0.3,0.4-0.1,0.6c0.1,0.1,0.2,0.2,0.4,0.2
	c0.1,0,0.2,0,0.3-0.1c0.2-0.1,0.2-0.4,0.1-0.6C46.7,22.4,46.5,22.4,46.3,22.5z"/>
<path style="fill:#644E43;" d="M54.6,23.1c0.1,0,0.1,0.1,0.2,0.1c0.1,0,0.3-0.1,0.4-0.2c0.1-0.2,0.1-0.5-0.1-0.6H55
	c-0.2-0.1-0.4,0-0.5,0.2C54.3,22.7,54.4,22.9,54.6,23.1z"/>
<path style="fill:#644E43;" d="M42.9,29.9c-0.2,0-0.4,0.2-0.4,0.5h0.4l0.4-0.1C43.4,30.1,43.2,29.9,42.9,29.9z"/>
<path style="fill:#644E43;" d="M44.3,34c0.2-0.1,0.2-0.4,0.1-0.6c-0.1-0.2-0.4-0.3-0.6-0.1c-0.2,0.1-0.3,0.4-0.1,0.6V34
	c0.1,0.1,0.2,0.2,0.3,0.2C44.2,34.1,44.3,34.1,44.3,34z"/>
<path style="fill:#644E43;" d="M42.6,28.6C42.6,28.6,42.5,28.6,42.6,28.6c0,0.3,0.1,0.5,0.4,0.5l0,0c0.2,0,0.4-0.2,0.4-0.4
	c0-0.2-0.1-0.4-0.4-0.5C42.8,28.2,42.6,28.3,42.6,28.6z"/>
<path style="fill:#644E43;" d="M43.7,25.2c-0.1,0.2,0,0.4,0.2,0.5c0.1,0,0.1,0.1,0.2,0.1c0.2,0,0.3-0.1,0.4-0.2
	c0.1-0.2,0.1-0.5-0.1-0.6C44.1,24.9,43.9,24.9,43.7,25.2L43.7,25.2z"/>
<path style="fill:#644E43;" d="M43.8,27c0.1-0.2,0-0.5-0.3-0.5c-0.2-0.1-0.5,0-0.5,0.3l0.4,0.2H43.8z"/>
<path style="fill:#644E43;" d="M43,32.3c0.1,0.2,0.2,0.3,0.4,0.3c0.1,0,0.1,0,0.2,0c0.2-0.1,0.3-0.3,0.3-0.6
	c-0.1-0.2-0.3-0.3-0.5-0.3C43,31.7,42.9,32,43,32.3C43,32.2,43,32.3,43,32.3z"/>
<path style="fill:#644E43;" d="M58.2,30c0,0.2,0.2,0.4,0.4,0.4l0,0c0.2,0,0.4-0.2,0.4-0.4h-0.3H58.2z"/>
<path style="fill:#644E43;" d="M58.3,32.2c0.2,0,0.4-0.1,0.4-0.3l0,0c0.1-0.2-0.1-0.4-0.3-0.5s-0.5,0.1-0.5,0.3
	C57.8,31.9,58,32.1,58.3,32.2L58.3,32.2z"/>
<path style="fill:#644E43;" d="M58.2,27.1c0.1,0,0.1,0,0.2,0c0.2-0.1,0.3-0.3,0.2-0.6l-0.4,0.1l-0.4,0.2C57.8,27,58,27.1,58.2,27.1z
	"/>
<path style="fill:#644E43;" d="M58.2,28.4c0,0.2,0.2,0.3,0.4,0.3c0,0,0,0,0.1,0c0.2,0,0.4-0.3,0.3-0.5l0,0c0-0.2-0.3-0.3-0.5-0.3
	S58.1,28.2,58.2,28.4z"/>
<path style="fill:#644E43;" d="M51.5,22.1L51.5,22.1c0.3,0,0.4-0.2,0.5-0.4c0-0.2-0.2-0.4-0.4-0.5h-0.1c-0.2,0-0.4,0.2-0.4,0.4
	S51.3,22,51.5,22.1z"/>
<path style="fill:#644E43;" d="M57.3,33.2c-0.1,0.2-0.1,0.5,0.1,0.6c0.1,0,0.1,0.1,0.2,0.1c0.1,0,0.3-0.1,0.4-0.2v-0.1
	c0.1-0.2,0-0.4-0.2-0.5C57.7,32.9,57.4,33,57.3,33.2z"/>
</svg>
