<?xml version="1.0" encoding="utf-8"?>
<!-- Generator: Adobe Illustrator 22.0.1, SVG Export Plug-In . SVG Version: 6.00 Build 0)  -->
<svg version="1.1" id="Capa_1" xmlns="http://www.w3.org/2000/svg" xmlns:xlink="http://www.w3.org/1999/xlink" x="0px" y="0px"
	 viewBox="0 0 100 100" style="enable-background:new 0 0 100 100;" xml:space="preserve">
<path id="color" class="mainColorFill" style="fill:#6F9A2E;" d="M76.2,40.6c0,0-15.9-4.5-26.6-4.4c-10.7,0.1-25.4,4.4-25.4,4.4l-1.6,15.3
	c0,0,1.9,5.9,9.7,7.7c4.1,0.9,7.5-0.3,10.3-1.7c0.3-0.5,7.4-5.1,7.4-5.1l7.4,5.1h-0.4c2.5,0.9,5.6,1.7,9.5,1.6
	c9.3-0.2,11.2-8.2,11.2-8.2L76.2,40.6z"/>
<polygon style="opacity:0.1;fill:#FFFFFF;" points="74.8,59.9 67.6,63.9 64,37.7 72.6,39.5 "/>
<path style="opacity:0.1;" d="M59.5,62.4l-9.8-5.5l-9.3,5.5l2.3-4.2c1.3-2.4,4-5,6.9-5c3.5,0,6.4,2.6,7.7,5.1L59.5,62.4z"/>
<g>
	<g>
		<polyline style="fill:#644E43;" points="23.5,40.6 19.7,40.3 18.8,47.7 22.7,48.3 		"/>
		<path style="fill:#644E43;" d="M22.7,49.3c-0.1,0-0.1,0-0.2,0l-4-0.6c-0.5-0.1-0.9-0.6-0.8-1.1l1-7.4c0.1-0.5,0.5-0.9,1.1-0.9
			l3.8,0.3c0.6,0,1,0.5,0.9,1.1c0,0.6-0.5,1-1.1,0.9l-2.9-0.2l-0.7,5.5l3,0.5c0.5,0.1,0.9,0.6,0.8,1.1
			C23.7,48.9,23.2,49.3,22.7,49.3z"/>
	</g>
	<g>
		<polyline style="fill:#644E43;" points="76.5,41 80.3,40.7 81.3,48.1 77.3,48.7 		"/>
		<path style="fill:#644E43;" d="M77.3,49.7c-0.5,0-0.9-0.4-1-0.8c-0.1-0.5,0.3-1.1,0.8-1.1l3-0.5l-0.7-5.5L76.6,42
			c-0.5,0-1-0.4-1.1-0.9c0-0.6,0.4-1,0.9-1.1l3.8-0.3c0.5,0,1,0.3,1.1,0.9l1,7.4c0.1,0.5-0.3,1-0.8,1.1l-4,0.6
			C77.4,49.7,77.3,49.7,77.3,49.7z"/>
	</g>
	<path style="fill:#644E43;" d="M35.3,64.6c-0.1,0-0.2,0-0.3,0c-10.3-0.1-13.9-8.8-13.9-8.9c-0.1-0.1-0.1-0.3-0.1-0.5l1.5-14.8
		c0-0.4,0.3-0.7,0.6-0.8c0.5-0.2,12.2-4.8,26.7-4.5c0.6,0,1,0.5,1,1c0,0.6-0.5,1-1,1c-12.4-0.3-22.9,3.2-25.4,4.2l-1.4,13.9
		c0.6,1.2,3.8,7.3,12,7.4c2.8,0,4.9-0.2,6.7-0.8c1-0.3,1.8-0.7,2.6-1c1.5-0.7,2.9-1.4,5.5-1.4c0.6,0,1,0.4,1,1s-0.4,1-1,1
		c-2.2,0-3.3,0.5-4.7,1.2c-0.8,0.4-1.7,0.8-2.8,1.1C40.4,64.3,38.2,64.6,35.3,64.6z"/>
	<path style="fill:#644E43;" d="M64.4,64.6c-5.6,0-7.9-1.1-9.8-2c-1.4-0.7-2.5-1.2-4.7-1.2c-0.6,0-1-0.4-1-1s0.4-1,1-1
		c2.6,0,4.1,0.7,5.5,1.4c1.8,0.9,3.9,1.9,9.2,1.8c8.2-0.1,11.4-6.1,12-7.4l-1.4-13.9c-2.5-0.9-13-4.4-25.4-4.2c-0.5,0-1-0.4-1-1
		c0-0.6,0.4-1,1-1c14.5-0.3,26.2,4.3,26.7,4.5c0.3,0.1,0.6,0.5,0.6,0.8l1.5,14.8c0,0.2,0,0.3-0.1,0.5c0,0.1-3.6,8.8-13.9,8.9
		C64.5,64.6,64.5,64.6,64.4,64.6z"/>
	<path style="fill:#FFFFFF;" d="M28.1,44.3c-0.4,0-0.8-0.2-0.9-0.6c-0.2-0.5,0-1.1,0.5-1.3c0.5-0.2,3.6-1.1,8.4-1.9
		c0.5-0.1,1.1,0.3,1.2,0.8s-0.3,1.1-0.8,1.2c-4.7,0.8-7.7,1.7-8,1.8C28.3,44.3,28.2,44.3,28.1,44.3z"/>
	<path style="fill:none;stroke:#644E43;stroke-width:2;stroke-linecap:round;stroke-linejoin:round;stroke-miterlimit:10;" d="
		M38,40.9"/>
	<path style="fill:#FFFFFF;" d="M40,41.7c-0.5,0-0.9-0.3-1-0.8c-0.1-0.5,0.3-1.1,0.8-1.1c0.5-0.1,0.7-0.1,0.8-0.1c0,0,0.1,0,0.2,0
		c0.5-0.1,1,0.3,1.1,0.9c0.1,0.5-0.3,1-0.9,1.1c-0.3,0-0.4,0.1-0.6,0c-0.1,0-0.2,0-0.4,0.1C40.1,41.7,40.1,41.7,40,41.7z"/>
	<path style="fill:#644E43;" d="M40.9,64c-0.2,0-0.4-0.1-0.6-0.2c-0.4-0.3-0.5-0.9-0.2-1.4c0-0.1,5.5-6.7,9.6-6.7c0,0,0,0,0,0
		c3.8,0,9.1,5.7,9.7,6.3c0.4,0.4,0.3,1-0.1,1.4c-0.4,0.4-1,0.3-1.4-0.1c-1.4-1.6-5.7-5.7-8.2-5.7c0,0,0,0,0,0c-2.6,0-7,4.6-8,5.8
		C41.5,63.9,41.2,64,40.9,64z"/>
</g>
</svg>
