<?xml version="1.0" encoding="utf-8"?>
<!-- Generator: Adobe Illustrator 22.0.1, SVG Export Plug-In . SVG Version: 6.00 Build 0)  -->
<svg version="1.1" id="Capa_1" xmlns="http://www.w3.org/2000/svg" xmlns:xlink="http://www.w3.org/1999/xlink" x="0px" y="0px"
	 viewBox="0 0 100 100" style="enable-background:new 0 0 100 100;" xml:space="preserve">
<rect id="COLOR" class="dashboard_main_color" x="39.7" y="24.3" style="fill:#7DA92B;" width="28.6" height="44.1"/>
<g>
	<path style="fill:#EFEBE2;" d="M68.4,22c0-1.6-1.3-3-3-3H42.7c-1.6,0-3,1.3-3,3v2.6h28.6V22z"/>
	<path style="fill:#EFEBE2;" d="M39.7,69.7v2.2c0,1.6,1.3,3,3,3h22.7c1.6,0,3-1.3,3-3v-2.2H39.7z"/>
</g>
<g>
	<path style="fill:#644E43;" d="M77.1,78H35.9c-0.6,0-1,0.5-1,1s0.5,1,1,1h41.2c0.6,0,1-0.5,1-1S77.7,78,77.1,78z"/>
	<path style="fill:#644E43;" d="M82.5,78h-1.6c-0.6,0-1,0.5-1,1s0.5,1,1,1h1.6c0.6,0,1-0.5,1-1S83.1,78,82.5,78z"/>
	<path style="fill:#644E43;" d="M31.7,78h-8.1c-0.6,0-1,0.5-1,1s0.5,1,1,1h8.1c0.6,0,1-0.5,1-1S32.2,78,31.7,78z"/>
</g>
<g>
	<path style="fill:#644E43;" d="M65.4,75.9H42.7c-2.2,0-4-1.8-4-4V22c0-2.2,1.8-4,4-4h22.7c2.2,0,4,1.8,4,4v49.9
		C69.4,74.1,67.6,75.9,65.4,75.9z M42.7,20.1c-1.1,0-2,0.9-2,2v49.9c0,1.1,0.9,2,2,2h22.7c1.1,0,2-0.9,2-2V22c0-1.1-0.9-2-2-2H42.7z
		"/>
</g>
<path style="fill:#644E43;" d="M56.5,22.9h-5c-0.6,0-1-0.5-1-1s0.5-1,1-1h5c0.6,0,1,0.5,1,1S57.1,22.9,56.5,22.9z"/>
<path style="fill:#644E43;" d="M68.4,69.7H39.7c-0.6,0-1-0.5-1-1s0.5-1,1-1h28.6c0.6,0,1,0.5,1,1S68.9,69.7,68.4,69.7z"/>
<path style="fill:#644E43;" d="M54,73.4c-0.9,0-1.5-0.7-1.5-1.5s0.7-1.5,1.5-1.5s1.5,0.7,1.5,1.5S54.9,73.4,54,73.4z M54,71.4
	c-0.3,0-0.5,0.2-0.5,0.5s0.2,0.5,0.5,0.5s0.5-0.2,0.5-0.5S54.3,71.4,54,71.4z"/>
<path style="fill:#FFFFFF;" d="M54.8,40.4L54.8,40.4l4.5-3.8l-5.8-4.9v7.6l-3.7-3.1c-0.2-0.2-0.5-0.1-0.7,0.1
	c-0.2,0.2-0.1,0.5,0.1,0.7l4.1,3.4l-4.1,3.4c-0.2,0.2-0.2,0.5-0.1,0.7c0.1,0.1,0.2,0.2,0.4,0.2c0.1,0,0.2,0,0.3-0.1l3.7-3.1v7.6
	l5.8-4.9L54.8,40.4L54.8,40.4z M54.5,33.8l3.3,2.7l-3.3,2.7V33.8z M54.5,46.9v-5.5l3.3,2.7L54.5,46.9z"/>
<polygon style="opacity:0.1;fill:#FFFFFF;" points="62,24.6 46.1,68.7 68.4,68.7 68.4,24.6 "/>
<rect x="65.6" y="24.9" style="opacity:0.1;" width="2.4" height="43.8"/>
<g>
	<defs>
		<path id="SVGID_1_" d="M68.4,69.7H39.7c-0.6,0-1-0.5-1-1V24.6c0-0.6,0.5-1,1-1h28.6c0.6,0,1,0.5,1,1v44.1
			C69.4,69.3,68.9,69.7,68.4,69.7z M40.7,67.7h26.6v-42H40.7V67.7z"/>
	</defs>
	<use xlink:href="#SVGID_1_"  style="overflow:visible;fill:#644E43;"/>
	<clipPath id="SVGID_2_">
		<use xlink:href="#SVGID_1_"  style="overflow:visible;"/>
	</clipPath>
</g>
<path style="fill:#EFEBE2;" d="M44.4,56.7L44.4,56.7c-1.7,1.7-4.5,1.7-6.3,0L23,41.5l6.3-6.3l15.2,15.2C46.1,52.2,46.1,55,44.4,56.7
	z"/>
<g>
	<path style="fill:#644E43;" d="M45.1,49.7l-9.4-9.4v-4.9c0-7.2-5.8-13-13-13s-13,5.8-13,13c0,1.1,0.1,2.3,0.4,3.4
		c-0.4,0.4-0.6,0.9-0.6,1.5c0,1.2,1,2.1,2.1,2.1s2.1-1,2.1-2.1c0-1-0.7-1.9-1.7-2.1c-0.2-0.9-0.3-1.9-0.3-2.8c0-6,4.9-11,11-11
		s11,4.9,11,11v2.9L30,34.6c-0.4-0.4-1-0.4-1.4,0l-6.3,6.3C22.1,41,22,41.3,22,41.5s0.1,0.5,0.3,0.7l15.2,15.2c1,1,2.4,1.6,3.8,1.6
		c1.5,0,2.8-0.6,3.8-1.6c1-1,1.6-2.4,1.6-3.8S46.1,50.7,45.1,49.7z M43.7,56c-1.3,1.3-3.5,1.3-4.8,0L24.4,41.5l4.8-4.8l4.8,4.8
		c0,0,0,0,0,0l9.6,9.6c0.6,0.6,1,1.5,1,2.4S44.3,55.3,43.7,56z"/>
	<path style="fill:#644E43;" d="M41.2,53.8c-0.1,0-0.2,0-0.3-0.1l0,0c-0.2-0.2-0.2-0.4,0-0.6c0.2-0.2,0.4-0.2,0.6,0
		c0.2,0.2,0.2,0.5,0,0.6C41.4,53.7,41.3,53.8,41.2,53.8z M39.9,52.5c-0.1,0-0.2,0-0.3-0.1l0,0c-0.2-0.2-0.2-0.4,0-0.6s0.4-0.2,0.6,0
		s0.2,0.5,0,0.6C40.2,52.5,40,52.5,39.9,52.5z M38.7,51.3c-0.1,0-0.2,0-0.3-0.1l0,0c-0.2-0.2-0.2-0.4,0-0.6s0.4-0.2,0.6,0
		s0.2,0.5,0,0.6C38.9,51.3,38.8,51.3,38.7,51.3z M37.5,50.1c-0.1,0-0.2,0-0.3-0.1l0,0c-0.2-0.2-0.2-0.4,0-0.6s0.4-0.2,0.6,0
		s0.2,0.5,0,0.6C37.7,50,37.6,50.1,37.5,50.1z M36.2,48.8c-0.1,0-0.2,0-0.3-0.1l0,0c-0.2-0.2-0.2-0.4,0-0.6s0.4-0.2,0.6,0
		s0.2,0.5,0,0.6C36.4,48.8,36.3,48.8,36.2,48.8z M35,47.6c-0.1,0-0.2,0-0.3-0.1l0,0c-0.2-0.2-0.2-0.4,0-0.6s0.4-0.2,0.6,0
		s0.2,0.5,0,0.6C35.2,47.6,35.1,47.6,35,47.6z M33.8,46.4c-0.1,0-0.2,0-0.3-0.1l0,0c-0.2-0.2-0.2-0.4,0-0.6s0.4-0.2,0.6,0
		s0.2,0.5,0,0.6C34,46.3,33.9,46.4,33.8,46.4z M32.5,45.1c-0.1,0-0.2,0-0.3-0.1l0,0c-0.2-0.2-0.2-0.4,0-0.6s0.4-0.2,0.6,0
		s0.2,0.5,0,0.6C32.7,45.1,32.6,45.1,32.5,45.1z M31.3,43.9c-0.1,0-0.2,0-0.3-0.1l0,0c-0.2-0.2-0.2-0.4,0-0.6s0.4-0.2,0.6,0
		s0.2,0.5,0,0.6C31.5,43.8,31.4,43.9,31.3,43.9z M30,42.7c-0.1,0-0.2,0-0.3-0.1l0,0c-0.2-0.2-0.2-0.4,0-0.6s0.4-0.2,0.6,0
		s0.2,0.5,0,0.6C30.3,42.6,30.2,42.7,30,42.7z"/>
</g>
</svg>
