<?xml version="1.0" encoding="utf-8"?>
<!-- Generator: Adobe Illustrator 22.0.1, SVG Export Plug-In . SVG Version: 6.00 Build 0)  -->
<svg version="1.1" id="Capa_1" xmlns="http://www.w3.org/2000/svg" xmlns:xlink="http://www.w3.org/1999/xlink" x="0px" y="0px"
	 viewBox="0 0 100 100" style="enable-background:new 0 0 100 100;" xml:space="preserve">
<g id="color">
	<defs>
		<rect id="XMLID_23_" x="32.3" y="27.6" width="28.6" height="44.1"/>
	</defs>
	<use xlink:href="#XMLID_23_"  class="dashboard_main_icon">
	<clipPath id="XMLID_2_">
		<use xlink:href="#XMLID_23_"  style="overflow:visible;"/>
	</clipPath>
</g>
<g>
	<path style="fill:#EFEBE2;" d="M32.3,74.8c0,1.6,1.3,3,3,3h22.7c1.6,0,3-1.3,3-3v-3.2H32.3V74.8z"/>
	<path style="fill:#EFEBE2;" d="M57.9,22H35.2c-1.6,0-3,1.3-3,3v2.6h28.6V25C60.9,23.3,59.6,22,57.9,22z"/>
</g>
<path style="fill:#644E43;" d="M49.1,25.9h-5c-0.6,0-1-0.5-1-1s0.5-1,1-1h5c0.6,0,1,0.5,1,1S49.6,25.9,49.1,25.9z"/>
<path style="fill:#644E43;" d="M60.9,72.7H32.3c-0.6,0-1-0.5-1-1s0.5-1,1-1h28.6c0.6,0,1,0.5,1,1S61.5,72.7,60.9,72.7z"/>
<circle style="fill:none;stroke:#644E43;stroke-width:2.0176;stroke-linecap:round;stroke-linejoin:round;stroke-miterlimit:10;" cx="46.6" cy="74.8" r="0.5"/>
<polygon style="opacity:8.000000e-02;fill:#FFFFFF;" points="53.7,28.6 38.6,70.6 59.9,70.6 59.9,28.6 "/>
<rect x="58.2" y="28.6" style="opacity:0.1;" width="1.7" height="42"/>
<path style="fill:#FFFAF9;" d="M63.2,46.5l-1-2.3l1.4-3L61.4,39l-3,1.4l-2.3-1L55,36.3h-3.2l-1.1,3.1l-2.3,1l-3-1.4l-2.3,2.3l1.4,3
	l-1,2.3l-3.1,1.1v3.2l2.9,1l1.1,2.6l-1.1,2.2l2.5,2.5l2.2-1.1l2.6,1.1l0.8,2.3h3.6l0.8-2.3l2.6-1.1l2.2,1.1l2.5-2.5l-1.1-2.2
	l1.1-2.6l2.9-1v-3.2L63.2,46.5z M53.5,54.3c-2.9,0-5.3-2.4-5.3-5.3s2.4-5.3,5.3-5.3c2.9,0,5.3,2.4,5.3,5.3S56.4,54.3,53.5,54.3z"/>
<g>
	<path style="fill:#644E43;" d="M67.3,51.5v-4.6l-3.3-1.2l-0.6-1.5l1.5-3.2l-2.9-2.9V27.6V25c0-2.2-1.8-4-4-4H35.2c-2.2,0-4,1.8-4,4
		v2.6v44.1v3.2c0,2.2,1.8,4,4,4h22.7c2.2,0,4-1.8,4-4v-3.2V59.5l2.7-2.7l-1.2-2.5l0.7-1.8L67.3,51.5z M33.3,25c0-1.1,0.9-2,2-2h22.7
		c1.1,0,2,0.9,2,2v1.6H33.3V25z M59.9,74.8c0,1.1-0.9,2-2,2H35.2c-1.1,0-2-0.9-2-2v-2.2h26.6V74.8z M33.3,70.6v-42h26.6v10l-1.5,0.7
		l-1.5-0.6l-1.2-3.3h-4.6l-1.2,3.3l-1.5,0.6l-3.2-1.5L42,41l1.5,3.2l-0.6,1.5l-3.3,1.2v4.6l3.1,1.1l0.7,1.8l-1.2,2.5l3.5,3.5
		l2.5-1.2l1.8,0.7l0.9,2.6h5l0.9-2.6l1.8-0.7l1.3,0.6v10.8H33.3z M62.6,51l-1.4,3.4l1,2L60.7,58l-2-1l-3.4,1.4l-0.7,2.1h-2.2
		l-0.7-2.1L48.2,57l-2,1l-1.5-1.5l1-2L44.2,51l-2.6-0.9v-1.8l2.8-1l1.3-3.1l-1.3-2.7l1.3-1.3l2.7,1.3l3.1-1.3l1-2.8h1.8l1,2.8
		l3.1,1.3l2.7-1.3l1.3,1.3l-1.3,2.7l1.3,3.1l2.8,1v1.8L62.6,51z"/>
	<path style="fill:#644E43;" d="M53.5,42.7c-3.5,0-6.3,2.8-6.3,6.3c0,3.5,2.8,6.3,6.3,6.3s6.3-2.8,6.3-6.3
		C59.8,45.5,57,42.7,53.5,42.7z M53.5,53.3c-2.4,0-4.3-1.9-4.3-4.3s1.9-4.3,4.3-4.3c2.4,0,4.3,1.9,4.3,4.3S55.9,53.3,53.5,53.3z"/>
</g>
<path style="fill:#FFFAF9;" d="M77.4,57.8l1-1.4l-1.1-1.9l-1.7,0.2L74.3,54l-0.7-1.6h-2.2L70.7,54l-1.2,0.7l-1.7-0.2l-1.1,1.9l1,1.4
	v1.4l-1,1.4l1.1,1.9l1.7-0.2l1.2,0.7l0.7,1.6h2.2l0.7-1.6l1.2-0.7l1.7,0.2l1.1-1.9l-1-1.4V57.8z M72.5,60.3c-0.9,0-1.7-0.8-1.7-1.7
	c0-0.9,0.8-1.7,1.7-1.7s1.7,0.8,1.7,1.7C74.2,59.5,73.5,60.3,72.5,60.3z"/>
<path style="fill:#644E43;" d="M74.3,65.7h-3.5l-0.8-1.9l-0.7-0.4l-2,0.2l-1.8-3.1l1.2-1.6v-0.8l-1.2-1.6l1.8-3.1l2,0.2l0.7-0.4
	l0.8-1.9h3.5l0.8,1.9l0.7,0.4l2-0.2l1.8,3.1l-1.2,1.6V59l1.2,1.6l-1.8,3.1l-2-0.2l-0.7,0.4L74.3,65.7z M72.1,63.7H73l0.6-1.3l1.8-1
	l1.4,0.2l0.5-0.8l-0.8-1.1v-2.1l0.8-1.1l-0.5-0.8l-1.4,0.2l-1.8-1L73,53.4h-0.9l-0.6,1.3l-1.8,1l-1.4-0.2l-0.5,0.8l0.8,1.1v2.1
	l-0.8,1.1l0.5,0.8l1.4-0.2l1.8,1L72.1,63.7z M72.5,61.3c-1.5,0-2.7-1.2-2.7-2.7s1.2-2.7,2.7-2.7s2.7,1.2,2.7,2.7S74,61.3,72.5,61.3z
	 M72.5,57.9c-0.4,0-0.7,0.3-0.7,0.7s0.3,0.7,0.7,0.7s0.7-0.3,0.7-0.7S72.9,57.9,72.5,57.9z"/>
</svg>
