<?xml version="1.0" encoding="utf-8"?>
<?xml-stylesheet href="style.css" type="text/css"?>
<!-- Generator: Adobe Illustrator 17.1.0, SVG Export Plug-In . SVG Version: 6.00 Build 0)  -->
<!DOCTYPE svg PUBLIC "-//W3C//DTD SVG 1.1//EN" "http://www.w3.org/Graphics/SVG/1.1/DTD/svg11.dtd">
<svg version="1.1" id="Capa_2" xmlns="http://www.w3.org/2000/svg" xmlns:xlink="http://www.w3.org/1999/xlink" x="0px" y="0px"
	 viewBox="0 0 100 100" enable-background="new 0 0 100 100" xml:space="preserve">
<rect class="dashboard_main_color" x="34.9" y="18.8" fill="#7EAA2B" width="27.2" height="41.9"/>
<rect x="59.4" y="18.2" opacity="0.1" fill="#010202" width="2.6" height="42.5"/>
<path fill="#F0ECE3" d="M62.2,14.5H32.6v73h29.6V14.5z M34.9,60.8v-42H62v42H34.9z"/>
<g>
	<path fill="#FFFFFF" d="M38.5,32c-0.6,0-1-0.5-1-1v-8.8c0-0.6,0.5-1,1-1h1.9c0.6,0,1,0.5,1,1s-0.5,1-1,1h-0.9V31
		C39.5,31.5,39.1,32,38.5,32z"/>
	<path fill="#FFFFFF" d="M38.5,37.4c-0.6,0-1-0.5-1-1v-2c0-0.6,0.5-1,1-1s1,0.5,1,1v2C39.5,36.9,39.1,37.4,38.5,37.4z"/>
</g>
<polyline opacity="8.000000e-02" fill="#FFFFFF" points="57,17.8 39,61.1 62,60.8 62,17.7 60.8,17.7 "/>
<g>
	<path fill="#644F43" d="M72.6,88.5h-6v-2.2h1.5c2.6,0,4.6-2.1,4.6-4.6S70.7,77,68.1,77h-1.5V33.3h3.6v0.4c0,1.5,1.2,2.7,2.7,2.7
		h4.3c0.6,0,1-0.5,1-1v-0.2h2.3c0.6,0,1-0.5,1-1s-0.5-1-1-1h-2.3v-1.7h2.3c0.6,0,1-0.5,1-1s-0.5-1-1-1h-2.3v-0.2c0-0.6-0.5-1-1-1
		h-4.3c-1.5,0-2.7,1.2-2.7,2.7v0.4h-3.6V15.2c0-0.6-0.5-1-1-1H31.4c-0.6,0-1,0.5-1,1v15.8h-3.8c-3.9,0-7.1,3.2-7.1,7.1
		s3.2,7.1,7.1,7.1h3.8v43.3h-2.3c-0.6,0-1,0.5-1,1s0.5,1,1,1h3.3c0,0,0,0,0,0h34.2c0,0,0,0,0,0h7c0.6,0,1-0.5,1-1
		S73.1,88.5,72.6,88.5z M72.3,30.9c0-0.4,0.3-0.7,0.7-0.7h3.3v4.1h-3.3c-0.4,0-0.7-0.3-0.7-0.7V30.9z M30.3,43.2h-3.8
		c-2.8,0-5.1-2.3-5.1-5.1c0-2.8,2.3-5.1,5.1-5.1h3.8V43.2z M68.1,79.1c1.4,0,2.6,1.2,2.6,2.6s-1.2,2.6-2.6,2.6h-1.5v-5.2H68.1z
		 M32.4,16.2h32.2v15.1h-1.5V18.6c0-0.6-0.5-1-1-1H34.9c-0.6,0-1,0.5-1,1v12.3h-1.5V16.2z M32.4,32.9h1.5v10.2h-1.5V32.9z
		 M32.4,88.5V45.2h1.5v15.9c0,0.6,0.5,1,1,1h27.2c0.6,0,1-0.5,1-1V58c0-0.6-0.5-1-1-1s-1,0.5-1,1v2.1H35.9V45.2v-2V32.9v-2V19.6
		h25.2v30.8c0,0.6,0.5,1,1,1s1-0.5,1-1V33.3h1.5V77v2v5.2v2v2.2H32.4z"/>
	<path fill="#644F43" d="M80.7,88.5h-3.7c-0.6,0-1,0.5-1,1s0.5,1,1,1h3.7c0.6,0,1-0.5,1-1S81.2,88.5,80.7,88.5z"/>
	<path fill="#644F43" d="M24.5,88.5h-2c-0.6,0-1,0.5-1,1s0.5,1,1,1h2c0.6,0,1-0.5,1-1S25.1,88.5,24.5,88.5z"/>
</g>
</svg>