<?xml version="1.0" encoding="utf-8"?>
<?xml-stylesheet href="style.css" type="text/css"?>
<!-- Generator: Adobe Illustrator 19.2.0, SVG Export Plug-In . SVG Version: 6.00 Build 0)  -->
<svg version="1.1" id="Capa_1" xmlns="http://www.w3.org/2000/svg" xmlns:xlink="http://www.w3.org/1999/xlink" x="0px" y="0px"
	 width="100px" height="100px" viewBox="0 0 100 100" enable-background="new 0 0 100 100" xml:space="preserve">
<path class="dashboard_main_color" fill="#6F9A2E" d="M75.6,61.4H18.9V26h56.7V61.4z"/>
<path fill="#EFEBE2" d="M22.2,29.2v28.6h49.9V29.2H22.2z M29.6,48.6c-0.8,0-1.4-0.6-1.4-1.4c0-0.8,0.6-1.4,1.4-1.4s1.4,0.6,1.4,1.4
	C31,47.9,30.4,48.6,29.6,48.6z M36.6,40.2c-0.8,0-1.4-0.6-1.4-1.4c0-0.8,0.6-1.4,1.4-1.4c0.8,0,1.4,0.6,1.4,1.4
	C38,39.6,37.4,40.2,36.6,40.2z M43.7,50.4c-0.8,0-1.4-0.6-1.4-1.4c0-0.8,0.6-1.4,1.4-1.4S45,48.3,45,49C45,49.8,44.4,50.4,43.7,50.4
	z M50.8,48.6c-0.8,0-1.4-0.6-1.4-1.4s0.6-1.4,1.4-1.4s1.4,0.6,1.4,1.4S51.6,48.6,50.8,48.6z M58,41.7c-0.8,0-1.4-0.6-1.4-1.4
	c0-0.8,0.6-1.4,1.4-1.4s1.4,0.6,1.4,1.4C59.3,41.1,58.7,41.7,58,41.7z M64.9,44.7c-0.8,0-1.5-0.7-1.5-1.5c0-0.8,0.7-1.5,1.5-1.5
	c0.8,0,1.5,0.7,1.5,1.5C66.4,44,65.7,44.7,64.9,44.7z"/>
<path opacity="0.5" fill="#FFFFFF" d="M62.9,29.5l-8-0.2l-11.2,29l28.5-0.1l-0.1-28.9L62.9,29.5z M50.8,48.3c-0.7,0-1.2-0.5-1.2-1.2
	c0-0.7,0.5-1.2,1.2-1.2c0.7,0,1.2,0.5,1.2,1.2C52,47.8,51.5,48.3,50.8,48.3z M57.9,41.4c-0.7,0-1.2-0.5-1.2-1.2
	c0-0.7,0.5-1.2,1.2-1.2s1.2,0.5,1.2,1.2C59.1,40.9,58.5,41.4,57.9,41.4z M65,44.7c-0.8,0-1.4-0.6-1.4-1.4s0.6-1.4,1.4-1.4
	s1.4,0.6,1.4,1.4S65.8,44.7,65,44.7z"/>
<rect x="45.9" y="31.6" transform="matrix(-1.836970e-16 1 -1 -1.836970e-16 103.6905 9.1625)" opacity="0.73" fill="#E6E0CF" width="2.7" height="49.8"/>
<path fill="#644E43" d="M81.8,54.9h-5.1V26c0-0.5-0.4-1-1-1H46.9l6-6h6.7c0.4,0.8,1.2,1.3,2.1,1.3c1.3,0,2.3-1,2.3-2.3
	s-1-2.3-2.3-2.3c-0.9,0-1.7,0.5-2.1,1.3h-7.1c-0.3,0-0.5,0.1-0.7,0.3L44.2,25h-2.2l5.5-5.5c0.2,0.1,0.5,0.1,0.8,0.1
	c0.6,0,1.2-0.2,1.6-0.7l0,0c0.4-0.4,0.7-1,0.7-1.6c0-0.6-0.2-1.2-0.7-1.6c-0.9-0.9-2.4-0.9-3.2,0c-0.4,0.4-0.7,1-0.7,1.6
	c0,0.3,0.1,0.5,0.1,0.8L39.2,25H18.8c-0.5,0-1,0.4-1,1v35.5c0,0.5,0.4,1,1,1h14.5L29.7,66c-0.8-0.3-1.8-0.1-2.4,0.5
	c-0.9,0.9-0.9,2.4,0,3.2c0,0,0,0,0,0c0.4,0.4,1,0.7,1.6,0.7s1.2-0.2,1.6-0.7c0.6-0.6,0.8-1.6,0.5-2.4l5-5h4.3L27,75.9
	c-0.2,0.2-0.3,0.4-0.3,0.7v7c-0.8,0.4-1.4,1.2-1.4,2.1c0,1.3,1,2.3,2.3,2.3s2.3-1,2.3-2.3c0-0.9-0.5-1.7-1.3-2.1V77l14.5-14.5
	c0,0,0,0,0,0h4.6L34.5,75.7c-0.8-0.3-1.8-0.1-2.4,0.5c-0.4,0.4-0.7,1-0.7,1.6s0.2,1.2,0.7,1.6l0,0c0.4,0.4,1,0.7,1.6,0.7
	s1.2-0.2,1.6-0.7c0.4-0.4,0.7-1,0.7-1.6c0-0.3-0.1-0.5-0.1-0.8l14.6-14.6c0,0,0,0,0,0h25.2c0.5,0,1-0.4,1-1v-4.6h5.1
	c2,0,3.7,1.7,3.7,3.7s-1.7,3.7-3.7,3.7h-1.7H65h-1.3c-2.6,0-4.8,2.1-4.8,4.8s2.1,4.8,4.8,4.8H65h1.6H68v0.5c0,1.5,1.2,2.7,2.7,2.7
	h4.5c0.5,0,1-0.4,1-1v-0.3h2.4c0.5,0,1-0.4,1-1s-0.4-1-1-1h-2.4v-1.9h2.4c0.5,0,1-0.4,1-1s-0.4-1-1-1h-2.4v-0.3c0-0.5-0.4-1-1-1
	h-4.5c-1.5,0-2.7,1.2-2.7,2.7v0.5h-1.3H65h-1.3c-1.6,0-2.8-1.3-2.8-2.8s1.3-2.8,2.8-2.8H65h15.1h1.7c3.1,0,5.6-2.5,5.6-5.6
	S84.9,54.9,81.8,54.9z M61.6,17.7c0.2,0,0.4,0.2,0.4,0.4s-0.2,0.4-0.4,0.4s-0.4-0.2-0.4-0.4S61.4,17.7,61.6,17.7z M48,17.1
	c0.1-0.1,0.2-0.1,0.2-0.1c0.1,0,0.2,0,0.2,0.1c0.1,0.1,0.1,0.2,0.1,0.2c0,0.1,0,0.2-0.1,0.2c0,0,0,0,0,0c-0.2,0.2-0.3,0.2-0.5,0
	c-0.1-0.1-0.1-0.2-0.1-0.2C47.9,17.3,47.9,17.2,48,17.1z M29.2,68.4c-0.1,0.1-0.4,0.1-0.5,0c-0.1-0.1-0.1-0.4,0-0.5
	c0.1-0.1,0.4-0.1,0.5,0C29.3,68.1,29.3,68.3,29.2,68.4z M27.6,86c-0.2,0-0.4-0.2-0.4-0.4s0.2-0.4,0.4-0.4s0.4,0.2,0.4,0.4
	S27.8,86,27.6,86z M34,78.1c-0.2,0.2-0.3,0.2-0.5,0c0,0,0,0,0,0c-0.1-0.1-0.1-0.2-0.1-0.2c0-0.1,0-0.2,0.1-0.2
	c0.1-0.1,0.2-0.1,0.2-0.1c0.1,0,0.2,0,0.2,0.1c0.1,0.1,0.1,0.2,0.1,0.2C34.1,77.9,34.1,78,34,78.1z M74.7,54.9h-1.6v-1
	c0-0.5-0.4-1-1-1s-1,0.4-1,1v1.8c0,0.1,0,0.1,0,0.2s0,0.1,0,0.2v0.8H23.4V30.6h47.8v18c0,0.5,0.4,1,1,1s1-0.4,1-1v-19
	c0-0.5-0.4-1-1-1H22.4c-0.5,0-1,0.4-1,1v28.2c0,0.5,0.4,1,1,1h49.8c0.5,0,1-0.4,1-1v-0.9h1.6v3.6H19.8V26.9h54.9V54.9z M69.9,71.4
	c0-0.4,0.3-0.8,0.8-0.8h3.5V75h-3.5c-0.4,0-0.8-0.3-0.8-0.8V71.4z"/>
<g>
	<path fill="#E6E0CF" d="M29,44.3v-9.6c0-0.5-0.4-1-1-1s-1,0.4-1,1v9.6c-1.2,0.4-2,1.5-2,2.8s0.8,2.4,2,2.8v2.8c0,0.5,0.4,1,1,1
		s1-0.4,1-1v-2.8c1.2-0.4,2-1.5,2-2.8S30.2,44.7,29,44.3z M29.6,48.6c-0.8,0-1.4-0.6-1.4-1.4c0-0.8,0.6-1.4,1.4-1.4s1.4,0.6,1.4,1.4
		C31,47.9,30.4,48.6,29.6,48.6z"/>
	<path fill="#E6E0CF" d="M36.1,36v-1.4c0-0.5-0.4-1-1-1s-1,0.4-1,1V36c-1.2,0.4-2,1.5-2,2.8s0.8,2.4,2,2.8v11.1c0,0.5,0.4,1,1,1
		s1-0.4,1-1V41.7c1.2-0.4,2-1.5,2-2.8S37.3,36.4,36.1,36z M36.6,40.2c-0.7,0-1.4-0.6-1.4-1.4s0.6-1.4,1.4-1.4s1.4,0.6,1.4,1.4
		S37.4,40.2,36.6,40.2z"/>
	<path fill="#E6E0CF" d="M43.2,46.3V34.7c0-0.5-0.4-1-1-1s-1,0.4-1,1v11.7c-1.2,0.4-2,1.5-2,2.8s0.8,2.4,2,2.8v0.8c0,0.5,0.4,1,1,1
		s1-0.4,1-1v-0.8c1.2-0.4,2-1.5,2-2.8S44.3,46.7,43.2,46.3z M43.7,50.5c-0.8,0-1.4-0.6-1.4-1.4c0-0.8,0.6-1.4,1.4-1.4
		s1.4,0.6,1.4,1.4C45.1,49.9,44.5,50.5,43.7,50.5z"/>
	<path fill="#E6E0CF" d="M50.3,44.3v-9.6c0-0.5-0.4-1-1-1s-1,0.4-1,1v9.6c-1.2,0.4-2,1.5-2,2.8s0.8,2.4,2,2.8v2.8c0,0.5,0.4,1,1,1
		s1-0.4,1-1v-2.8c1.2-0.4,2-1.5,2-2.8S51.4,44.7,50.3,44.3z M50.8,48.6c-0.8,0-1.4-0.6-1.4-1.4s0.6-1.4,1.4-1.4s1.4,0.6,1.4,1.4
		S51.6,48.6,50.8,48.6z"/>
	<path fill="#E6E0CF" d="M57.3,37.4v-2.8c0-0.5-0.4-1-1-1s-1,0.4-1,1v2.8c-1.2,0.4-2,1.5-2,2.8s0.8,2.4,2,2.8v9.7c0,0.5,0.4,1,1,1
		s1-0.4,1-1V43c1.2-0.4,2-1.5,2-2.8S58.5,37.8,57.3,37.4z M57.8,41.6c-0.8,0-1.4-0.6-1.4-1.4s0.6-1.4,1.4-1.4c0.8,0,1.4,0.6,1.4,1.4
		S58.6,41.6,57.8,41.6z"/>
	<path fill="#E6E0CF" d="M64.4,40.4v-5.8c0-0.5-0.4-1-1-1s-1,0.4-1,1v5.8c-1.2,0.4-2,1.5-2,2.8s0.8,2.4,2,2.8v6.7c0,0.5,0.4,1,1,1
		s1-0.4,1-1V46c1.2-0.4,2-1.5,2-2.8S65.6,40.8,64.4,40.4z M64.9,44.7c-0.8,0-1.5-0.7-1.5-1.5c0-0.8,0.7-1.5,1.5-1.5
		c0.8,0,1.5,0.7,1.5,1.5C66.4,44,65.7,44.7,64.9,44.7z"/>
</g>
<path fill="#644E43" d="M32.6,47.1c0-1.3-0.8-2.4-2-2.8v-9.6c0-0.5-0.4-1-1-1s-1,0.4-1,1v9.6c-1.2,0.4-2,1.5-2,2.8s0.8,2.4,2,2.8
	v2.8c0,0.5,0.4,1,1,1s1-0.4,1-1v-2.8C31.7,49.5,32.6,48.4,32.6,47.1z M29.6,48.1c-0.6,0-1-0.5-1-1s0.5-1,1-1s1,0.5,1,1
	S30.1,48.1,29.6,48.1z"/>
<path fill="#644E43" d="M39.6,38.9c0-1.3-0.8-2.4-2-2.8v-1.4c0-0.5-0.4-1-1-1s-1,0.4-1,1V36c-1.2,0.4-2,1.5-2,2.8s0.8,2.4,2,2.8
	v11.1c0,0.5,0.4,1,1,1s1-0.4,1-1V41.7C38.8,41.3,39.6,40.2,39.6,38.9z M36.6,39.9c-0.6,0-1-0.5-1-1s0.5-1,1-1s1,0.5,1,1
	S37.2,39.9,36.6,39.9z"/>
<path fill="#644E43" d="M46.7,49.1c0-1.3-0.8-2.4-2-2.8V34.7c0-0.5-0.4-1-1-1s-1,0.4-1,1v11.7c-1.2,0.4-2,1.5-2,2.8s0.8,2.4,2,2.8
	v0.8c0,0.5,0.4,1,1,1s1-0.4,1-1v-0.8C45.9,51.5,46.7,50.4,46.7,49.1z M43.7,50.2c-0.6,0-1-0.5-1-1s0.5-1,1-1s1,0.5,1,1
	S44.3,50.2,43.7,50.2z"/>
<path fill="#644E43" d="M53.8,47.1c0-1.3-0.8-2.4-2-2.8v-9.6c0-0.5-0.4-1-1-1s-1,0.4-1,1v9.6c-1.2,0.4-2,1.5-2,2.8s0.8,2.4,2,2.8
	v2.8c0,0.5,0.4,1,1,1s1-0.4,1-1v-2.8C52.9,49.5,53.8,48.4,53.8,47.1z M50.8,48.1c-0.6,0-1-0.5-1-1s0.5-1,1-1s1,0.5,1,1
	S51.4,48.1,50.8,48.1z"/>
<path fill="#644E43" d="M60.9,40.2c0-1.3-0.8-2.4-2-2.8v-2.8c0-0.5-0.4-1-1-1s-1,0.4-1,1v2.8c-1.2,0.4-2,1.5-2,2.8s0.8,2.4,2,2.8
	v9.7c0,0.5,0.4,1,1,1s1-0.4,1-1V43C60,42.6,60.9,41.5,60.9,40.2z M57.9,41.3c-0.6,0-1-0.5-1-1s0.5-1,1-1s1,0.5,1,1
	S58.5,41.3,57.9,41.3z"/>
<path fill="#644E43" d="M67.9,43.2c0-1.3-0.8-2.4-2-2.8v-5.8c0-0.5-0.4-1-1-1s-1,0.4-1,1v5.8c-1.2,0.4-2,1.5-2,2.8s0.8,2.4,2,2.8
	v6.7c0,0.5,0.4,1,1,1s1-0.4,1-1V46C67.1,45.6,67.9,44.5,67.9,43.2z M65,44.3c-0.6,0-1-0.5-1-1s0.5-1,1-1s1,0.5,1,1
	S65.5,44.3,65,44.3z"/>
</svg>
