<?xml version="1.0" encoding="utf-8"?>
<!-- Generator: Adobe Illustrator 22.0.1, SVG Export Plug-In . SVG Version: 6.00 Build 0)  -->
<svg version="1.1" id="Capa_1" xmlns="http://www.w3.org/2000/svg" xmlns:xlink="http://www.w3.org/1999/xlink" x="0px" y="0px"
	 viewBox="0 0 100 100" style="enable-background:new 0 0 100 100;" xml:space="preserve">
<g id="color">
	<rect class="dashboard_main_color" id="XMLID_1_" x="39.7" y="31.2" style="fill:#7DA92B;" width="25.2" height="38.8"/>
</g>
<g>
	<path style="fill:#EFEBE2;" d="M62,26.3H42.7c-1.6,0-3,1.3-3,3v2h25.2v-2C64.9,27.6,63.6,26.3,62,26.3z"/>
	<path style="fill:#EFEBE2;" d="M39.7,72.5c0,1.6,1.3,3,3,3H62c1.6,0,3-1.3,3-3V70H39.7V72.5z"/>
</g>
<polygon style="opacity:0.1;fill:#FFFFFF;enable-background:new    ;" points="59.3,31.2 45.3,70 65,70 65,31.2 "/>
<rect x="62.5" y="31.5" style="opacity:0.1;enable-background:new    ;" width="2.1" height="38.6"/>
<g>
	<path style="fill:#FFFFFF;" d="M44.5,33.7h-1.3c-0.6,0-1,0.5-1,1v5.9c0,0.6,0.5,1,1,1s1-0.5,1-1v-4.9h0.3c0.6,0,1-0.5,1-1
		S45.1,33.7,44.5,33.7z"/>
	<path style="fill:#FFFFFF;" d="M43.2,42c-0.6,0-1,0.5-1,1v1.4c0,0.6,0.5,1,1,1s1-0.5,1-1V43C44.2,42.4,43.8,42,43.2,42z"/>
</g>
<path style="fill:#644E43;" d="M64.9,32.2H39.7c-0.6,0-1-0.5-1-1s0.5-1,1-1h25.2c0.6,0,1,0.5,1,1S65.5,32.2,64.9,32.2z"/>
<path style="fill:#644E43;" d="M64.9,71H39.7c-0.6,0-1-0.5-1-1s0.5-1,1-1h25.2c0.6,0,1,0.5,1,1S65.5,71,64.9,71z"/>
<path style="fill:#644E43;" d="M54.5,29.8h-4.4c-0.6,0-1-0.5-1-1s0.5-1,1-1h4.4c0.6,0,1,0.5,1,1S55.1,29.8,54.5,29.8z"/>
<path style="fill:#634E42;" d="M48.8,14.1H48h-0.4c0.2-0.3,0.1-0.6-0.1-0.9c-0.2-0.2-0.6-0.3-0.9-0.1V9.7c0-0.4-0.3-0.8-0.8-0.8
	S45,9.2,45,9.7v3.5c-0.3-0.2-0.6-0.1-0.9,0.1c-0.2,0.2-0.3,0.6-0.1,0.9h-0.4h-0.8c-0.4,0-0.8,0.3-0.8,0.8s0.3,0.8,0.8,0.8h0.8H44
	c-0.2,0.3-0.1,0.6,0.1,0.9c0.1,0.1,0.3,0.2,0.5,0.2c0.1,0,0.2,0,0.4-0.1v3.5c0,0.4,0.3,0.8,0.8,0.8s0.8-0.3,0.8-0.8v-3.5
	c0.1,0.1,0.2,0.1,0.4,0.1s0.4-0.1,0.5-0.2c0.2-0.2,0.3-0.6,0.1-0.9H48h0.8c0.4,0,0.8-0.3,0.8-0.8S49.2,14.1,48.8,14.1z"/>
<path style="fill:#634E42;" d="M34.9,29.4h-0.6l0,0c0-0.2,0-0.4-0.2-0.6s-0.4-0.2-0.6-0.2v-2.3c0-0.4-0.3-0.8-0.8-0.8
	s-0.8,0.3-0.8,0.8v2.3c-0.2,0-0.4,0-0.6,0.2s-0.2,0.4-0.2,0.6l0,0h-0.6c-0.4,0-0.8,0.3-0.8,0.8S30,31,30.5,31h0.6l0,0
	c0,0.2,0,0.4,0.2,0.6c0.1,0.1,0.3,0.2,0.5,0.2c0,0,0,0,0.1,0V34c0,0.4,0.3,0.8,0.8,0.8s0.8-0.3,0.8-0.8v-2.3c0,0,0,0,0.1,0
	c0.2,0,0.4-0.1,0.5-0.2c0.2-0.2,0.2-0.4,0.2-0.6l0,0h0.6c0.4,0,0.8-0.3,0.8-0.8S35.3,29.4,34.9,29.4z"/>
<path style="fill:#634E42;" d="M73.5,43.3h-0.7h-0.1c0.1-0.2,0-0.5-0.2-0.7s-0.4-0.2-0.7-0.2v-2.7c0-0.4-0.3-0.8-0.8-0.8
	s-0.8,0.3-0.8,0.8v2.7c-0.2-0.1-0.5,0-0.7,0.2s-0.2,0.4-0.2,0.7h-0.1h-0.7c-0.4,0-0.8,0.3-0.8,0.8s0.3,0.8,0.8,0.8h0.7h0.1
	c-0.1,0.2,0,0.5,0.2,0.7c0.1,0.1,0.3,0.2,0.5,0.2c0.1,0,0.1,0,0.2,0v2.7c0,0.4,0.3,0.8,0.8,0.8s0.8-0.3,0.8-0.8v-2.7
	c0.1,0,0.1,0,0.2,0c0.2,0,0.4-0.1,0.5-0.2c0.2-0.2,0.2-0.4,0.2-0.7h0.1h0.7c0.4,0,0.8-0.3,0.8-0.8S73.9,43.3,73.5,43.3z"/>
<path style="fill:#634E42;" d="M28.6,14.1h1.8h1.4c0.4,0,0.8-0.3,0.8-0.8s-0.3-0.8-0.8-0.8h-1.4h-1.8l0.6-0.6c0.3-0.3,0.3-0.8,0-1.1
	s-0.8-0.3-1.1,0l-0.6,0.6v-7c0-0.4-0.3-0.8-0.8-0.8s-0.8,0.3-0.8,0.8v7L25.5,11c-0.3-0.3-0.8-0.3-1.1,0s-0.3,0.8,0,1.1l0.6,0.6h-1.8
	h-1.4c-0.4,0-0.8,0.3-0.8,0.8s0.3,0.8,0.8,0.8h1.4H25l-0.6,0.6c-0.3,0.3-0.3,0.8,0,1.1c0.1,0.1,0.3,0.2,0.5,0.2s0.4-0.1,0.5-0.2
	l0.6-0.6v7c0,0.4,0.3,0.8,0.8,0.8s0.8-0.3,0.8-0.8v-7l0.6,0.6c0.1,0.1,0.3,0.2,0.5,0.2s0.4-0.1,0.5-0.2c0.3-0.3,0.3-0.8,0-1.1
	L28.6,14.1z"/>
<path style="fill:#FFFFFF;" d="M64.9,72.8c0,1.5-1.2,2.7-2.8,2.6c-1.4-0.1-2.5-1.3-2.5-2.8v-5.1V67v-3.9c0-1.4-1.1-2.7-2.5-2.8
	c-1.5-0.1-2.8,1.1-2.8,2.6v17.8C54.5,86.4,59,91,64.6,91h0.3"/>
<path style="fill:#644E43;" d="M65.9,70.1C65.9,70,65.9,70,65.9,70.1V31.3l0,0v-1.9c0-2.2-1.8-4-4-4H42.7c-2.2,0-4,1.8-4,4v1.9l0,0
	V70l0,0v2.4c0,2.2,1.8,4,4,4H44c-0.2,0.5-0.4,1-0.4,1.6c0,2,1.6,3.6,3.6,3.6h2c-0.2,0.5-0.4,1-0.4,1.6c0,2,1.6,3.6,3.6,3.6h2.9
	c2,3,5.4,5.1,9.3,5.1h0.3c0.6,0,1-0.5,1-1s-0.5-1-1-1h-0.3c-5,0-9.1-4.1-9.1-9.1V63c0-0.4,0.2-0.9,0.5-1.2s0.7-0.5,1.2-0.4
	c0.8,0,1.5,0.8,1.5,1.7v9.5c0,1.8,1.2,3.3,2.9,3.7c0,0,0.5,0.1,0.6,0.1c1,0,2-0.3,2.7-1c0.7-0.7,1.1-1.6,1.1-2.6c0-0.1,0-0.1,0-0.1
	c0-0.1,0-0.1,0-0.2L65.9,70.1L65.9,70.1z M42.7,74.4c-1.1,0-2-0.9-2-2V71h12.8v0.9c-0.3-0.3-0.7-0.6-1.2-0.6c-0.8,0-1.5,0.7-1.5,1.5
	s0.7,1.5,1.5,1.5c0.5,0,0.9-0.2,1.2-0.6v0.7h-2.2l0,0h-4h-0.1H42.7z M52.9,72.8c0,0.3-0.2,0.5-0.5,0.5s-0.5-0.2-0.5-0.5
	s0.2-0.5,0.5-0.5S52.9,72.5,52.9,72.8z M47.2,79.7c-0.9,0-1.6-0.7-1.6-1.6s0.7-1.6,1.6-1.6h4l0,0h2.2v3.2H47.2z M52.4,84.9
	c-0.9,0-1.6-0.7-1.6-1.6s0.7-1.6,1.6-1.6h1.1c0.1,1.1,0.3,2.2,0.7,3.2H52.4z M57.3,59.4c-1,0-2,0.3-2.7,1S53.5,62,53.5,63v6H40.7
	V32.2h23.2V69h-3.2v-5.8C60.7,61.2,59.2,59.5,57.3,59.4z M63.9,72.5c0,1-0.8,1.8-1.8,1.9c-0.8-0.1-1.5-0.8-1.5-1.7V71h3.2L63.9,72.5
	L63.9,72.5z M63.9,30.2H40.7v-1c0-1.1,0.9-2,2-2H62c1.1,0,2,0.9,2,2L63.9,30.2L63.9,30.2z"/>
</svg>
