<?xml version="1.0" encoding="utf-8"?>
<!-- Generator: Adobe Illustrator 22.0.1, SVG Export Plug-In . SVG Version: 6.00 Build 0)  -->
<svg version="1.1" id="Capa_1" xmlns="http://www.w3.org/2000/svg" xmlns:xlink="http://www.w3.org/1999/xlink" x="0px" y="0px"
	 viewBox="0 0 100 100" style="enable-background:new 0 0 100 100;" xml:space="preserve">
<rect x="40.1" y="55.1" style="fill:#634E42;" width="20.7" height="12"/>
<g>
	<path style="fill:#F1ECE2;" d="M55.6,59.8v5.7c0,2.9-2.4,5.3-5.3,5.3h0c-2.9,0-5.3-2.4-5.3-5.3v-5.7"/>
	<path style="fill:#634E42;" d="M50.3,72c-3.5,0-6.3-2.8-6.3-6.3V60c0-0.6,0.4-1,1-1s1,0.4,1,1v5.7c0,2.4,1.9,4.3,4.3,4.3
		c2.4,0,4.3-1.9,4.3-4.3V60c0-0.6,0.4-1,1-1s1,0.4,1,1v5.7C56.6,69.2,53.8,72,50.3,72z"/>
	<g>
		<g>
			<path style="fill:#F1ECE2;" d="M54,60.3l-2.6,1.3c-0.7,0.4-1.6,0.4-2.3,0l-2.6-1.3c-4.2-2.1-6.8-6.6-6.8-11.5v-9.2V29.3h21.2
				v19.5C60.8,53.7,58.2,58.2,54,60.3z"/>
			<path style="fill:#634E42;" d="M50.2,62.9c-0.5,0-1.1-0.1-1.6-0.4L46,61.2c-4.5-2.3-7.4-7.1-7.4-12.4V29.3c0-0.6,0.4-1,1-1h21.2
				c0.6,0,1,0.4,1,1v19.5c0,5.2-2.9,10.1-7.4,12.4l-2.6,1.3C51.3,62.8,50.8,62.9,50.2,62.9z M40.6,30.3v18.5c0,4.5,2.5,8.6,6.3,10.6
				l2.6,1.3c0.4,0.2,0.9,0.2,1.4,0l2.6-1.3l0,0c3.8-1.9,6.3-6.1,6.3-10.6V30.3H40.6z"/>
		</g>
	</g>
	<g>
		<polygon style="fill:none;" points="46,31.5 46.1,31.8 39.8,39.8 39.8,78.6 60.8,78.6 60.8,37.4 		"/>
		<g>
			<path style="fill:#7A6A58;" d="M60.8,37.4v41.1h4.8v-41c0-8.1-6.9-14.7-15.4-14.7c-2.9,0-5.7,0.8-8,2.1l3.8,6.5L60.8,37.4z"/>
			<path style="fill:#634E42;" d="M65.7,79.6h-4.8c-0.6,0-1-0.4-1-1V38.1l-14.2-5.6c-0.2-0.1-0.4-0.2-0.5-0.4l-3.8-6.5
				c-0.3-0.5-0.1-1.1,0.4-1.4c2.6-1.5,5.5-2.3,8.5-2.3c9.1,0,16.4,7.1,16.4,15.7v41C66.7,79.1,66.2,79.6,65.7,79.6z M61.8,77.6h2.8
				v-40c0-7.6-6.5-13.7-14.4-13.7c-2.3,0-4.6,0.5-6.6,1.5l3.1,5.3l14.5,5.8c0.4,0.2,0.6,0.5,0.6,0.9V77.6z"/>
		</g>
		<g>
			<path style="fill:#7A6A58;" d="M39.8,39.8l6.1-8.3l0,0l0,0L42.2,25c-0.4,0.3-1.5,1-1.8,1.2C37,29,34.8,33,34.8,37.6v41h5V39.8z"
				/>
			<path style="fill:#634E42;" d="M39.8,79.6h-5c-0.6,0-1-0.4-1-1v-41c0-4.7,2.2-9.1,6-12.1c0.3-0.2,1-0.7,1.7-1.1l0.2-0.2
				c0.2-0.2,0.5-0.2,0.8-0.1c0.3,0.1,0.5,0.2,0.6,0.5l3.7,6.5c0.1,0.2,0.2,0.4,0.2,0.6c0,0.1,0,0.2-0.1,0.4
				c-0.1,0.1-0.1,0.2-0.2,0.3l-5.9,7.9v38.4C40.8,79.1,40.4,79.6,39.8,79.6z M35.8,77.6h3V39.8c0-0.2,0.1-0.4,0.2-0.6l5.8-7.8
				l-2.9-5c-0.4,0.2-0.7,0.5-0.9,0.6c-3.3,2.6-5.2,6.5-5.2,10.5V77.6z"/>
		</g>
	</g>
</g>
<path style="fill:#FFFFFF;stroke:#634E42;stroke-width:2;stroke-linecap:round;stroke-linejoin:round;stroke-miterlimit:10;" d="
	M44.4,68.4"/>
<path style="fill:#FFFFFF;" d="M65.1,70.5l-3.2-2.2l-5.5-1.5c-0.5,2.8-3.1,4.9-6.1,4.9c-3,0-5.5-2.1-6.1-4.9L38.7,68l-3.1,1.9
	L32,72.6l-2.5,7.7l41.7,0.6l-0.5-4.6L65.1,70.5z"/>
<g>
	<path style="fill:#FFFFFF;" d="M70.9,80.1v-0.4c0-5.8-6-12-13.4-12h-2.3"/>
	<path style="fill:#634E42;" d="M70.9,81.1c-0.6,0-1-0.4-1-1v-0.4c0-5.1-5.4-11-12.4-11h-2.3c-0.6,0-1-0.4-1-1s0.4-1,1-1h2.3
		c8.3,0,14.4,6.9,14.4,13v0.4C71.9,80.7,71.5,81.1,70.9,81.1z"/>
</g>
<g>
	<path style="fill:#FFFFFF;" d="M45.4,67.7h-2.5c-7.4,0-13.4,6.2-13.4,12"/>
	<path style="fill:#634E42;" d="M29.5,80.7c-0.6,0-1-0.4-1-1c0-6.1,6.2-13,14.4-13h2.5c0.6,0,1,0.4,1,1s-0.4,1-1,1h-2.5
		c-7,0-12.4,5.9-12.4,11C30.5,80.2,30.1,80.7,29.5,80.7z"/>
</g>
<path id="XMLID_1_" style="fill:none;stroke:#634E42;stroke-width:2;stroke-linecap:round;stroke-linejoin:round;stroke-miterlimit:10;" d="
	M39.7,37.4"/>
<g>
	<path style="fill:#634E42;" d="M50.3,50.1c-0.8,0-1.4-0.6-1.4-1.4s0.6-1.4,1.4-1.4s1.4,0.6,1.4,1.4S51.1,50.1,50.3,50.1z
		 M50.3,48.1c-0.4,0-0.6,0.3-0.6,0.6s0.3,0.6,0.6,0.6c0.3,0,0.6-0.3,0.6-0.6S50.7,48.1,50.3,48.1z"/>
	<path style="fill:#634E42;" d="M43.5,46.1c-0.3,0-0.5-0.1-0.7-0.3c-0.4-0.4-0.3-1,0.1-1.4c0.7-0.6,2.5-1.5,4.1,0
		c0.4,0.4,0.4,1,0.1,1.4c-0.4,0.4-1,0.4-1.4,0.1c-0.7-0.6-1.3-0.1-1.5,0C44,46,43.7,46.1,43.5,46.1z"/>
	<path style="fill:#634E42;" d="M56.6,46.1c-0.2,0-0.5-0.1-0.7-0.3c-0.6-0.6-1.2-0.2-1.5,0c-0.4,0.4-1,0.3-1.4-0.1
		c-0.4-0.4-0.3-1,0.1-1.4c0.7-0.6,2.5-1.5,4.1,0c0.4,0.4,0.4,1,0.1,1.4C57.2,45.9,56.9,46.1,56.6,46.1z"/>
	<path style="fill:#634E42;" d="M50.3,55.8c-0.1,0-0.1,0-0.2,0c-1.3,0-2.4-0.5-3.1-1.3c-0.4-0.4-0.3-1,0.1-1.4
		c0.4-0.4,1-0.3,1.4,0.1c0.3,0.3,0.9,0.6,1.7,0.6c0.8,0,1.7-0.2,2.1-0.6c0.4-0.4,1-0.4,1.4,0c0.4,0.4,0.4,1,0,1.4
		C52.8,55.4,51.6,55.8,50.3,55.8z"/>
</g>
<path id="color_1_" class="dashboard_main_color" style="fill:#7DA92B;" d="M28.9,42.1L26,38.9c-0.3-0.3-0.7-0.4-1.1-0.1c-0.3,0.3-0.3,0.7-0.1,1.1l1.4,1.6
	c-3.2-1.1-5.5-3.5-6.7-6.9c-1.3-3.9-0.4-8.2,2.3-11.2c0.3-0.3,0.2-0.8-0.1-1.1c-0.3-0.3-0.8-0.2-1.1,0.1c-3.1,3.4-4.1,8.3-2.6,12.7
	c1.3,3.8,3.9,6.6,7.5,7.8L24,43.5c-0.4,0.2-0.6,0.6-0.4,1c0.1,0.3,0.4,0.5,0.7,0.5c0.1,0,0.2,0,0.3-0.1l4-1.6
	c0.2-0.1,0.4-0.3,0.5-0.5C29.1,42.6,29,42.3,28.9,42.1z"/>
<path style="fill:#634E42;" d="M18.1,75.8c-0.3-0.5-0.1-1.1,0.4-1.4l0,0c0.5-0.3,1.1-0.1,1.4,0.4l0,0c0.3,0.5,0.1,1.1-0.4,1.4l0,0
	c-0.1,0.1-0.3,0.1-0.5,0.1l0,0C18.6,76.3,18.3,76.1,18.1,75.8z M16.4,71.2c-0.1-0.5,0.3-1.1,0.8-1.2l0,0c0.6-0.1,1.1,0.3,1.2,0.8
	l0,0c0.1,0.5-0.3,1.1-0.8,1.2l0,0c-0.1,0-0.1,0-0.2,0l0,0C16.9,72.1,16.5,71.7,16.4,71.2z M17.2,67.5c-0.5-0.1-0.9-0.6-0.8-1.1l0,0
	c0.1-0.5,0.6-0.9,1.1-0.8l0,0c0.6,0.1,0.9,0.6,0.8,1.1l0,0c-0.1,0.5-0.5,0.9-1,0.9l0,0C17.3,67.5,17.2,67.5,17.2,67.5z M18.3,63.1
	c-0.5-0.3-0.7-0.9-0.4-1.3l0,0c0.3-0.5,0.9-0.7,1.4-0.4l0,0c0.5,0.3,0.7,0.9,0.4,1.4l0,0c-0.2,0.3-0.5,0.5-0.9,0.5l0,0
	C18.6,63.2,18.4,63.2,18.3,63.1z M20.7,59.3c-0.4-0.4-0.4-1,0-1.4l0,0c0.4-0.4,1-0.4,1.4,0l0,0c0.4,0.4,0.4,1,0,1.4l0,0
	c-0.2,0.2-0.4,0.3-0.7,0.3l0,0C21.1,59.6,20.9,59.5,20.7,59.3z M24.2,56.5c-0.2-0.5,0-1.1,0.5-1.3l0,0l0,0l0,0
	c0.5-0.2,1.1,0,1.3,0.5l0,0c0.2,0.5,0,1.1-0.5,1.3l0,0c-0.1,0.1-0.3,0.1-0.4,0.1l0,0C24.8,57.1,24.4,56.8,24.2,56.5z M28.5,55.1
	c0-0.5,0.4-1,0.9-1.1l0,0c0.6,0,1,0.4,1.1,0.9l0,0c0,0.5-0.4,1-0.9,1.1l0,0c0,0,0,0-0.1,0l0,0C29,56,28.6,55.6,28.5,55.1z"/>
<path id="color" class="dashboard_main_color" style="fill:#7DA92B;" d="M82.7,71.3c-1.1-3.4-3.5-5.9-6.6-7.1l1.3-0.5c0.5-0.2,0.8-0.8,0.6-1.3s-0.8-0.8-1.3-0.6
	l-3.7,1.4c-0.3,0.1-0.5,0.4-0.6,0.7c-0.1,0.3,0,0.6,0.2,0.9l2.6,3c0.2,0.2,0.5,0.3,0.8,0.3c0.2,0,0.5-0.1,0.7-0.2
	c0.4-0.4,0.5-1,0.1-1.4l-0.6-0.7c2.5,1.1,4.2,3.2,5.2,5.9c1.2,3.5,0.4,7.4-2.1,10.1c-0.3,0.3-0.2,0.8,0.1,1.1
	c0.1,0.1,0.3,0.2,0.5,0.2c0.2,0,0.4-0.1,0.6-0.3C83.1,79.7,84.1,75.3,82.7,71.3z"/>
<path style="fill:#634E42;" d="M69.5,52.4c0-0.5,0.4-1,0.9-1.1l0,0c0.6,0,1,0.4,1.1,0.9l0,0c0,0.5-0.4,1-0.9,1.1l0,0l0,0l0,0
	c0,0,0,0-0.1,0l0,0C69.9,53.3,69.5,52.9,69.5,52.4z M73.9,51.7c-0.2-0.5,0-1.1,0.5-1.3l0,0c0.5-0.2,1.1,0,1.3,0.5l0,0
	c0.2,0.5,0,1.1-0.5,1.3l0,0c-0.1,0.1-0.3,0.1-0.4,0.1l0,0C74.5,52.3,74.1,52.1,73.9,51.7z M77.9,49.4c-0.4-0.4-0.4-1,0-1.4l0,0
	c0.4-0.4,1-0.4,1.4,0l0,0c0.4,0.4,0.4,1,0,1.4l0,0l0,0l0,0c-0.2,0.2-0.5,0.3-0.7,0.3l0,0C78.3,49.8,78.1,49.6,77.9,49.4z M80.8,46
	c-0.5-0.3-0.7-0.9-0.4-1.4l0,0c0.3-0.5,0.9-0.7,1.4-0.4l0,0c0.5,0.3,0.7,0.8,0.4,1.3l0,0l0,0l0,0c-0.2,0.4-0.5,0.5-0.9,0.5l0,0
	C81.1,46.1,81,46.1,80.8,46z M82.5,41.8c-0.5-0.1-0.9-0.6-0.8-1.1l0,0c0.1-0.6,0.6-0.9,1.1-0.9l0,0c0.5,0.1,0.9,0.6,0.8,1.1l0,0
	c-0.1,0.5-0.5,0.9-1,0.9l0,0C82.6,41.8,82.6,41.8,82.5,41.8z M81.6,36.5c-0.1-0.6,0.3-1.1,0.8-1.2l0,0c0.5-0.1,1.1,0.3,1.2,0.8l0,0
	c0.1,0.5-0.3,1.1-0.8,1.2l0,0c-0.1,0-0.1,0-0.2,0l0,0C82.1,37.3,81.7,37,81.6,36.5z M80.2,32.5L80.2,32.5c-0.3-0.5-0.1-1.1,0.4-1.4
	l0,0c0.5-0.3,1.1-0.1,1.4,0.4l0,0c0.3,0.5,0.1,1.1-0.4,1.4l0,0C81.4,33,81.2,33,81.1,33l0,0C80.7,33,80.4,32.9,80.2,32.5z"/>
<path style="fill:#634E42;" d="M61.9,81.3H25.8c-0.6,0-1-0.4-1-1s0.4-1,1-1h36.1c0.6,0,1,0.4,1,1S62.4,81.3,61.9,81.3z"/>
<path style="fill:#634E42;" d="M75.3,81.3h-9c-0.6,0-1-0.4-1-1s0.4-1,1-1h9c0.6,0,1,0.4,1,1S75.8,81.3,75.3,81.3z"/>
<path style="fill:#644E43;" d="M66.9,23c-1.1,0-1.9-0.7-1.9-1.5c0-0.9,0.8-1.5,1.9-1.5s1.9,0.7,1.9,1.5C68.8,22.3,68,23,66.9,23z
	 M67.4,21.6L67.4,21.6L67.4,21.6z M66.7,21.5c0.1,0,0.3,0,0.5,0C67,21.5,66.8,21.5,66.7,21.5z"/>
<path style="fill:#644E43;" d="M72,21.7c-1.1,0-1.9-0.7-1.9-1.5s0.8-1.5,1.9-1.5s1.9,0.7,1.9,1.5S73.1,21.7,72,21.7z M72.5,20.3
	L72.5,20.3L72.5,20.3z M71.8,20.2c0.1,0,0.3,0,0.5,0C72.1,20.2,71.9,20.2,71.8,20.2z"/>
<path style="fill:#644E43;" d="M66.6,23.1c-0.8,0-1.5-0.4-1.7-1.1c-0.1-0.5,0-1,0.4-1.4c0.3-0.3,0.7-0.6,1.2-0.7
	c0.6-0.2,1.3-0.1,1.7,0.1c0.3,0.2,0.6,0.5,0.7,0.8c0.1,0.5,0,1-0.4,1.4c-0.3,0.3-0.7,0.6-1.2,0.7C67.1,23.1,66.8,23.1,66.6,23.1z
	 M66.5,21.6c0.1,0,0.2,0,0.4,0c0.2,0,0.3-0.1,0.4-0.2c-0.1,0-0.2,0-0.4,0C66.7,21.5,66.6,21.5,66.5,21.6z"/>
<path style="fill:#644E43;" d="M71.7,21.8c-0.4,0-0.7-0.1-1-0.2c-0.3-0.2-0.6-0.5-0.7-0.8c-0.1-0.5,0-1,0.4-1.4
	c0.3-0.3,0.7-0.6,1.2-0.7c0.6-0.2,1.3-0.1,1.7,0.1c0.3,0.2,0.6,0.5,0.7,0.8l0,0c0.1,0.3,0,0.7-0.1,1c-0.3,0.5-0.8,0.8-1.4,1
	C72.2,21.8,72,21.8,71.7,21.8z M71.6,20.3c0.1,0,0.2,0,0.4,0c0.2,0,0.3-0.1,0.4-0.2c-0.1,0-0.3,0-0.4,0
	C71.9,20.2,71.7,20.3,71.6,20.3z"/>
<path style="fill:#644E43;" d="M68.2,22.1c-0.4,0-0.8-0.3-0.8-0.8V16c0-0.3,0.2-0.6,0.5-0.7l5.2-1.5c0.2-0.1,0.5,0,0.7,0.1
	c0.2,0.1,0.3,0.4,0.3,0.6V20c0,0.4-0.3,0.8-0.8,0.8s-0.8-0.3-0.8-0.8v-4.5l-3.7,1.1v4.8C68.9,21.8,68.6,22.1,68.2,22.1z"/>
</svg>
