<?xml version="1.0" encoding="utf-8"?>
<!-- Generator: Adobe Illustrator 22.0.1, SVG Export Plug-In . SVG Version: 6.00 Build 0)  -->
<svg version="1.1" id="Capa_1" xmlns="http://www.w3.org/2000/svg" xmlns:xlink="http://www.w3.org/1999/xlink" x="0px" y="0px"
	 viewBox="0 0 100 100" style="enable-background:new 0 0 100 100;" xml:space="preserve">
<g>
	<polygon style="fill:#E6E0CF;" points="48.8,30.5 55.6,26.4 55.6,72.3 48.8,68.7 	"/>
	<path style="fill:#E6E0CF;" d="M55.6,73.3c-0.1,0-0.3,0-0.4-0.1l-6.9-3.6c-0.3-0.2-0.5-0.5-0.5-0.8l0-38.2c0-0.3,0.2-0.6,0.4-0.8
		l6.9-4.1c0.3-0.2,0.6-0.2,0.9,0c0.3,0.2,0.5,0.5,0.5,0.8v46c0,0.3-0.2,0.6-0.4,0.8C56,73.2,55.8,73.3,55.6,73.3z M49.7,68.2l5,2.7
		V28l-5,3L49.7,68.2z"/>
</g>
<polygon style="opacity:0.73;fill:#D6D0C4;" points="54.6,72.6 48.8,68.2 48.8,58.6 54.6,61.3 "/>
<polygon id="color" class="dashboard_main_color" style="fill:#729C2E;" points="48.8,68.7 29,57.5 29,41.7 48.8,31.1 "/>
<g>
	<rect x="22.1" y="42.2" style="fill:#E6E0CF;" width="6.9" height="15.4"/>
	<path style="fill:#644E43;" d="M29,58.5h-6.9c-0.5,0-0.9-0.4-0.9-0.9V42.2c0-0.5,0.4-0.9,0.9-0.9H29c0.5,0,0.9,0.4,0.9,0.9v15.4
		C29.9,58.1,29.5,58.5,29,58.5z M23.1,56.6h5V43.1h-5V56.6z"/>
</g>
<path style="fill:none;stroke:#644E43;stroke-width:1.9021;stroke-linecap:round;stroke-linejoin:round;stroke-miterlimit:10;" d="
	M31.2,57.5"/>
<polygon style="opacity:8.000000e-02;fill:#FFFFFF;" points="29.4,42.2 48.8,31.1 48.8,58.4 29.2,50.7 "/>
<g>
	<line style="fill:#FFFFFF;" x1="48.8" y1="31.1" x2="48.8" y2="58.4"/>
	<path style="fill:#644E43;" d="M48.8,59.3c-0.5,0-1-0.4-1-1V31.1c0-0.5,0.4-1,1-1s1,0.4,1,1v27.3C49.7,58.9,49.3,59.3,48.8,59.3z"
		/>
</g>
<path style="fill:#644E43;" d="M55.6,73.7c-0.2,0-0.3,0-0.5-0.1L28.5,58.2C28.2,58,28,57.7,28,57.4V42c0-0.3,0.2-0.6,0.5-0.8
	l26.7-15.7c0.3-0.2,0.7-0.2,1,0c0.3,0.2,0.5,0.5,0.5,0.8v46.4c0,0.3-0.2,0.7-0.5,0.8C56,73.7,55.8,73.7,55.6,73.7z M29.9,56.8
	l24.8,14.3V28L29.9,42.6V56.8z"/>
<g>
	<line style="fill:#FFFFFF;" x1="48.8" y1="62.5" x2="48.8" y2="68.7"/>
	<path style="fill:#644E43;" d="M48.8,69.7c-0.5,0-1-0.4-1-1v-6.2c0-0.5,0.4-1,1-1s1,0.4,1,1v6.2C49.7,69.2,49.3,69.7,48.8,69.7z"/>
</g>
<path style="fill:#FFFFFF;" d="M34.9,44.2c-0.3,0-0.6-0.2-0.8-0.5c-0.3-0.5-0.1-1,0.3-1.3l4-2.4c0.5-0.3,1-0.1,1.3,0.3
	c0.3,0.5,0.1,1-0.3,1.3l-4,2.4C35.2,44.1,35,44.2,34.9,44.2z"/>
<path style="fill:#FFFFFF;" d="M41.7,40.1c-0.3,0-0.6-0.2-0.8-0.5c-0.3-0.5-0.1-1,0.3-1.3l0.5-0.3c0.5-0.3,1-0.1,1.3,0.3
	c0.3,0.5,0.1,1-0.3,1.3L42.1,40C42,40.1,41.8,40.1,41.7,40.1z"/>
<rect x="23.1" y="50.6" style="opacity:0.73;fill:#D6D0C4;" width="4.9" height="6"/>
<path style="fill:#644E43;" d="M63.6,57c-1.4,0-2.6-0.7-3-1.8c-0.2-0.8,0-1.6,0.7-2.3c0.5-0.6,1.3-1.1,2.2-1.3
	c0.9-0.3,1.8-0.3,2.6,0c0.9,0.3,1.6,0.9,1.8,1.6c0.4,1.5-0.9,3.1-2.9,3.6C64.5,56.9,64,57,63.6,57z M64.9,53.3c-0.3,0-0.6,0-0.9,0.1
	c-0.5,0.2-1,0.4-1.3,0.8c-0.2,0.2-0.3,0.4-0.2,0.5c0.1,0.3,0.9,0.6,2,0.3c1.1-0.3,1.6-1,1.6-1.3c0-0.1-0.2-0.2-0.5-0.3
	C65.4,53.3,65.1,53.3,64.9,53.3z"/>
<path style="fill:#644E43;" d="M74.6,54.2c-0.4,0-0.8-0.1-1.2-0.2c-0.9-0.3-1.6-0.9-1.8-1.6c-0.4-1.5,0.9-3.1,2.9-3.6
	c0.9-0.3,1.8-0.3,2.6,0c0.9,0.3,1.6,0.9,1.8,1.6c0.2,0.8,0,1.6-0.7,2.3c-0.5,0.6-1.3,1.1-2.2,1.3C75.5,54.2,75,54.2,74.6,54.2z
	 M75.9,50.5c-0.3,0-0.6,0-0.9,0.1c-1.1,0.3-1.6,1-1.6,1.3c0,0.1,0.2,0.2,0.5,0.3c0.4,0.1,1,0.1,1.5,0c0.5-0.2,1-0.4,1.3-0.8
	C77,51.3,77,51,77,50.9c0-0.1-0.2-0.2-0.5-0.3C76.3,50.6,76.1,50.5,75.9,50.5z"/>
<path style="fill:#644E43;" d="M67,54.8c-0.5,0-1-0.4-1-1V42.5c0-0.4,0.3-0.8,0.7-0.9l11-3.2c0.3-0.1,0.6,0,0.8,0.2S79,39,79,39.3
	V51c0,0.5-0.4,1-1,1s-1-0.4-1-1V40.6l-9.1,2.7v10.7C67.9,54.4,67.5,54.8,67,54.8z"/>
<path style="fill:#644E43;" d="M67.3,47.2c-0.4,0-0.8-0.3-0.9-0.7c-0.2-0.5,0.1-1,0.6-1.2l6.5-2c0.5-0.2,1,0.1,1.2,0.6
	c0.2,0.5-0.1,1-0.6,1.2l-6.5,2C67.5,47.2,67.4,47.2,67.3,47.2z"/>
</svg>
