<?xml version="1.0" encoding="utf-8"?>
<!-- Generator: Adobe Illustrator 22.0.1, SVG Export Plug-In . SVG Version: 6.00 Build 0)  -->
<svg version="1.1" id="Capa_1" xmlns="http://www.w3.org/2000/svg" xmlns:xlink="http://www.w3.org/1999/xlink" x="0px" y="0px"
	 viewBox="0 0 100 100" style="enable-background:new 0 0 100 100;" xml:space="preserve">
<circle id="color_4_" class="dashboard_main_color" style="fill:#7EA82B;" cx="81.8" cy="36.2" r="2.5"/>
<circle id="color_3_" class="dashboard_main_color" style="fill:#7EA82B;" cx="78.8" cy="19.1" r="2.5"/>
<circle id="color_2_" class="dashboard_main_color" style="fill:#7EA82B;" cx="19.7" cy="53.2" r="2.5"/>
<circle id="color_1_" class="dashboard_main_color" style="fill:#7EA82B;" cx="19.7" cy="19.4" r="2.5"/>
<rect id="color" class="dashboard_main_color" x="36.5" y="17.3" style="fill:#7DA82B;" width="24.9" height="41.1"/>
<polyline style="fill:none;stroke:#644E43;stroke-width:2;stroke-linecap:round;stroke-linejoin:round;stroke-miterlimit:10;" points="
	22.2,21.9 27.2,27.1 33.3,27.1 "/>
<g>
	<path style="fill:#644E43;" d="M19.7,22.9c-0.4,0-0.8-0.1-1.2-0.2c-0.9-0.3-1.6-0.9-2-1.8c-0.4-0.8-0.5-1.8-0.1-2.7
		c0.6-1.8,2.6-2.8,4.5-2.1c0.9,0.3,1.6,0.9,2,1.8c0.4,0.8,0.5,1.8,0.1,2.7C22.5,22,21.2,22.9,19.7,22.9z M19.7,17.9
		c-0.6,0-1.2,0.4-1.4,1c-0.1,0.4-0.1,0.8,0.1,1.1c0.2,0.4,0.5,0.6,0.9,0.8c0.8,0.3,1.6-0.1,1.9-0.9c0.1-0.4,0.1-0.8-0.1-1.1
		c-0.2-0.4-0.5-0.6-0.9-0.8C20.1,17.9,19.9,17.9,19.7,17.9z"/>
</g>
<polyline style="fill:#FFFAF9;stroke:#644E43;stroke-width:2;stroke-linecap:round;stroke-linejoin:round;stroke-miterlimit:10;" points="
	77.2,20.9 72,26.9 66.2,26.9 "/>
<polyline style="fill:none;stroke:#644E43;stroke-width:2;stroke-linecap:round;stroke-linejoin:round;stroke-miterlimit:10;" points="
	22.2,50.7 27.2,45.6 33.3,45.6 "/>
<path style="fill:#EFEBE2;" d="M32.3,13.1v73.6h33.9V13.1H32.3z M61.4,58.4H36.5V17.3h24.9V58.4z"/>
<polygon style="opacity:8.000000e-02;fill:#FFFFFF;" points="52.8,17.6 36.5,58.4 61.4,58.4 60.7,17.6 "/>
<rect x="58.8" y="18" style="opacity:0.1;fill:#020202;" width="2.6" height="40.4"/>
<polyline style="fill:none;stroke:#644E43;stroke-width:2;stroke-linecap:round;stroke-linejoin:round;stroke-miterlimit:10;" points="
	61.4,51.9 61.4,58.4 36.5,58.4 36.5,17.4 61.4,17.4 61.4,46.1 "/>
<rect x="62.8" y="13.7" style="opacity:0.1;" width="3.4" height="73.6"/>
<g>
	<path style="fill:#644E43;" d="M31,43v43.3h-2.3c-0.6,0-1,0.5-1,1s0.5,1,1,1H32c0,0,0,0,0,0h34.2c0,0,0,0,0,0h7c0.6,0,1-0.5,1-1
		s-0.5-1-1-1h-6v-2.2v-2v-5.2v-2V31v-2V13c0-0.6-0.5-1-1-1H32c-0.6,0-1,0.5-1,1v15.8v2V41v2.8 M33,43v-2V30.7v-2V14h32.2V29v2v43.8
		v2v5.2v2v2.2H33V43z"/>
	<path style="fill:#644E43;" d="M81.3,86.3h-3.7c-0.6,0-1,0.5-1,1s0.5,1,1,1h3.7c0.6,0,1-0.5,1-1S81.9,86.3,81.3,86.3z"/>
	<path style="fill:#644E43;" d="M25.2,86.3h-2c-0.6,0-1,0.5-1,1s0.5,1,1,1h2c0.6,0,1-0.5,1-1S25.7,86.3,25.2,86.3z"/>
</g>
<g>
	<path style="fill:#644E43;" d="M19.7,56.7c-1.4,0-2.8-0.9-3.3-2.3c-0.3-0.9-0.3-1.8,0.1-2.7c0.4-0.8,1.1-1.5,2-1.8
		c0.9-0.3,1.8-0.3,2.7,0.1c0.8,0.4,1.5,1.1,1.8,2c0.6,1.8-0.3,3.8-2.1,4.5C20.5,56.7,20.1,56.7,19.7,56.7z M19.7,51.7
		c-0.2,0-0.3,0-0.5,0.1c-0.4,0.1-0.7,0.4-0.9,0.8c-0.2,0.4-0.2,0.8-0.1,1.1c0.3,0.8,1.1,1.2,1.9,0.9c0.8-0.3,1.2-1.1,0.9-1.9
		c-0.1-0.4-0.4-0.7-0.8-0.9C20.2,51.8,20,51.7,19.7,51.7z"/>
</g>
<circle style="fill:#FFFFFF;stroke:#644E43;stroke-width:2;stroke-miterlimit:10;" cx="16.7" cy="36.2" r="2.5"/>
<g>
	<path style="fill:#644E43;" d="M81.8,39.7c-1.4,0-2.8-0.9-3.3-2.3c-0.3-0.9-0.3-1.8,0.1-2.7s1.1-1.5,2-1.8c1.8-0.6,3.8,0.3,4.5,2.1
		v0c0.6,1.8-0.3,3.8-2.1,4.5C82.6,39.6,82.2,39.7,81.8,39.7z M81.8,34.7c-0.2,0-0.3,0-0.5,0.1c-0.4,0.1-0.7,0.4-0.9,0.8
		c-0.2,0.4-0.2,0.8-0.1,1.1c0.3,0.8,1.1,1.2,1.9,0.9c0.8-0.3,1.2-1.1,0.9-1.9l0,0C83,35.1,82.5,34.7,81.8,34.7z"/>
</g>
<g>
	<path style="fill:#644E43;" d="M78.8,22.6c-0.5,0-1-0.1-1.5-0.3c-0.8-0.4-1.5-1.1-1.8-2c-0.3-0.9-0.3-1.8,0.1-2.7
		c0.4-0.8,1.1-1.5,2-1.8c1.8-0.6,3.8,0.3,4.5,2.1v0c0.6,1.8-0.3,3.8-2.1,4.5C79.6,22.5,79.2,22.6,78.8,22.6z M78.8,17.6
		c-0.2,0-0.3,0-0.5,0.1c-0.4,0.1-0.7,0.4-0.9,0.8c-0.2,0.4-0.2,0.8-0.1,1.1c0.1,0.4,0.4,0.7,0.8,0.9c0.4,0.2,0.8,0.2,1.1,0.1
		c0.8-0.3,1.2-1.1,0.9-1.9l0,0C80,18,79.5,17.6,78.8,17.6z"/>
</g>
<line style="fill:#FFFAF9;stroke:#644E43;stroke-width:2;stroke-miterlimit:10;" x1="19.6" y1="36.2" x2="49.8" y2="36.2"/>
<circle style="fill:#FFFAF9;stroke:#644E43;stroke-width:2;stroke-miterlimit:10;" cx="48.8" cy="36" r="8"/>
<line style="fill:none;stroke:#644E43;stroke-width:2;stroke-miterlimit:10;" x1="78.8" y1="36.2" x2="66.2" y2="36.2"/>
</svg>
