<?xml version="1.0" encoding="utf-8"?>
<!-- Generator: Adobe Illustrator 22.0.1, SVG Export Plug-In . SVG Version: 6.00 Build 0)  -->
<svg version="1.1" id="Capa_1" xmlns="http://www.w3.org/2000/svg" xmlns:xlink="http://www.w3.org/1999/xlink" x="0px" y="0px"
	 viewBox="0 0 100 100" style="enable-background:new 0 0 100 100;" xml:space="preserve">
<path id="color" class="dashboard_main_color" style="fill:#7DA92B;" d="M49.7,40.8c-5.1,0-9.6,2.5-12.2,6.4h-3.1c-4.7,0-8.4,3.8-8.4,8.4c0,4.7,3.8,8.4,8.4,8.4
	h3.1c2.7,3.9,7.2,6.4,12.2,6.4c8.2,0,14.9-6.7,14.9-14.9S57.9,40.8,49.7,40.8z"/>
<g>
	<path style="fill:#634E42;" d="M34.5,41.9c-0.2-0.2-0.3-0.4-0.3-0.7l0,0c0-0.3,0.1-0.5,0.3-0.7l0,0c0.2-0.2,0.4-0.3,0.7-0.3l0,0
		c0.3,0,0.5,0.1,0.7,0.3l0,0c0.2,0.2,0.3,0.5,0.3,0.7l0,0c0,0.3-0.1,0.5-0.3,0.7l0,0c-0.2,0.2-0.4,0.3-0.7,0.3l0,0
		C34.9,42.2,34.7,42,34.5,41.9z M63.3,41.4c-0.4-0.4-0.4-1,0-1.4l0,0c0.4-0.4,1-0.4,1.4,0l0,0c0.4,0.4,0.4,1,0,1.4l0,0
		c-0.2,0.2-0.5,0.3-0.7,0.3l0,0C63.7,41.7,63.5,41.6,63.3,41.4z M37.9,38.9c-0.3-0.5-0.1-1.1,0.3-1.4l0,0c0.5-0.3,1.1-0.2,1.4,0.3
		l0,0c0.3,0.5,0.2,1.1-0.3,1.4h0c-0.2,0.1-0.4,0.2-0.5,0.2l0,0C38.4,39.3,38.1,39.2,37.9,38.9z M59.8,38.8L59.8,38.8
		c-0.5-0.3-0.6-0.9-0.3-1.4l0,0c0.3-0.5,0.9-0.6,1.4-0.4l0,0c0.5,0.3,0.6,0.9,0.3,1.4l0,0C61,38.8,60.7,39,60.3,39l0,0
		C60.1,39,60,38.9,59.8,38.8z M41.9,36.7c-0.2-0.5,0.1-1.1,0.6-1.3l0,0c0.5-0.2,1.1,0.1,1.3,0.6l0,0c0.2,0.5-0.1,1.1-0.6,1.3l0,0
		c-0.1,0-0.2,0.1-0.3,0.1l0,0C42.4,37.3,42,37.1,41.9,36.7z M55.9,37c-0.5-0.2-0.8-0.7-0.7-1.3l0,0c0.2-0.5,0.7-0.8,1.3-0.6l0,0
		c0.5,0.2,0.8,0.7,0.6,1.3l0,0c-0.1,0.4-0.5,0.7-1,0.7l0,0C56.1,37.1,56,37.1,55.9,37z M46.2,35.4c-0.1-0.5,0.3-1,0.9-1.1l0,0
		c0.5-0.1,1,0.3,1.1,0.9l0,0c0.1,0.6-0.3,1.1-0.9,1.1l0,0c0,0-0.1,0-0.1,0l0,0C46.7,36.3,46.3,35.9,46.2,35.4z M51.6,36.2L51.6,36.2
		c-0.5-0.1-0.9-0.5-0.9-1.1l0,0c0-0.5,0.5-0.9,1.1-0.9l0,0c0,0,0,0,0,0l0,0c0.5,0.1,1,0.5,0.9,1.1l0,0
		C52.7,35.8,52.3,36.2,51.6,36.2L51.6,36.2C51.7,36.2,51.7,36.2,51.6,36.2z"/>
	<g>
		<path style="fill:#634E42;" d="M54.8,75.8c-0.1,0-0.3,0-0.4-0.1c-0.1,0-0.2-0.1-0.3-0.2c-0.1-0.1-0.2-0.2-0.2-0.3
			s-0.1-0.3-0.1-0.4s0-0.3,0.1-0.4s0.1-0.2,0.2-0.3c0.4-0.4,1-0.4,1.4,0c0.1,0.1,0.2,0.2,0.2,0.3c0,0.1,0.1,0.3,0.1,0.4
			s0,0.3-0.1,0.4c-0.1,0.1-0.1,0.2-0.2,0.3C55.3,75.7,55.1,75.8,54.8,75.8z"/>
		<path style="fill:#634E42;" d="M51.7,79c-0.4-0.3-0.5-1-0.2-1.4l0,0c0.3-0.5,1-0.5,1.4-0.2l0,0c0.4,0.3,0.5,1,0.2,1.4l0,0
			c-0.2,0.3-0.5,0.4-0.8,0.4l0,0C52.1,79.2,51.9,79.2,51.7,79z"/>
		<path style="fill:#634E42;" d="M49.8,82.6c-0.3,0-0.5-0.1-0.7-0.3c-0.1-0.1-0.2-0.2-0.2-0.3c-0.1-0.1-0.1-0.3-0.1-0.4
			c0-0.3,0.1-0.5,0.3-0.7c0.2-0.2,0.6-0.3,0.9-0.3c0.1,0,0.1,0,0.2,0.1c0.1,0,0.1,0.1,0.2,0.1c0,0,0.1,0.1,0.2,0.1
			c0.2,0.2,0.3,0.4,0.3,0.7c0,0.1,0,0.3-0.1,0.4c0,0.1-0.1,0.2-0.2,0.3C50.3,82.5,50.1,82.6,49.8,82.6z"/>
		<path style="fill:#634E42;" d="M46.5,78.8c-0.3-0.4-0.2-1.1,0.2-1.4l0,0c0.4-0.3,1.1-0.2,1.4,0.2l0,0c0.3,0.4,0.2,1.1-0.2,1.4l0,0
			c-0.2,0.1-0.4,0.2-0.6,0.2l0,0C47,79.2,46.7,79.1,46.5,78.8z"/>
		<path style="fill:#634E42;" d="M44.8,75.8c-0.1,0-0.3,0-0.4-0.1c-0.1,0-0.2-0.1-0.3-0.2c-0.1-0.1-0.2-0.2-0.2-0.3
			c0-0.1-0.1-0.3-0.1-0.4s0-0.3,0.1-0.4c0.1-0.1,0.1-0.2,0.2-0.3c0.3-0.3,0.7-0.4,1.1-0.2c0.1,0,0.2,0.1,0.3,0.2
			c0.1,0.1,0.2,0.2,0.2,0.3c0.1,0.1,0.1,0.3,0.1,0.4s0,0.3-0.1,0.4c0,0.1-0.1,0.2-0.2,0.3C45.3,75.7,45.1,75.8,44.8,75.8z"/>
	</g>
</g>
<path style="fill:#FFFFFF;" d="M58.2,47.3c-4.7,0-8.4,3.8-8.4,8.4v0c0,4.7-3.8,8.4-8.4,8.4h23.8c4.7,0,8.4-3.8,8.4-8.4v0
	c0-4.7-3.8-8.4-8.4-8.4H58.2z"/>
<g>
	<path style="fill:#634E42;" d="M65.7,55.7c-0.6,0-1,0.4-1,1V60c0,0.6,0.4,1,1,1s1-0.4,1-1v-3.2C66.7,56.2,66.2,55.7,65.7,55.7z"/>
	<path style="fill:#634E42;" d="M63.5,50.4h-6.2c-0.6,0-1,0.4-1,1V60c0,0.6,0.4,1,1,1s1-0.4,1-1v-3.3h3.2c0.6,0,1-0.4,1-1
		s-0.4-1-1-1h-3.2v-2.3h5.2c0.6,0,1-0.4,1-1S64,50.4,63.5,50.4z"/>
	<path style="fill:#634E42;" d="M65.7,54.4c0.6,0,1-0.5,1-1s-0.4-1-1-1s-1,0.4-1,1v0.1C64.7,54,65.1,54.4,65.7,54.4z"/>
</g>
<g>
	<path style="fill:#FFFFFF;" d="M44.1,55.7c-0.6,0-1,0.4-1,1V60c0,0.6,0.4,1,1,1s1-0.4,1-1v-3.2C45.1,56.2,44.6,55.7,44.1,55.7z"/>
	<path style="fill:#FFFFFF;" d="M41.5,50.4c-0.5-0.2-1.1,0.1-1.3,0.6l-2,5.8l-1-3l0.7-2.1c0.2-0.5-0.1-1.1-0.6-1.3
		c-0.5-0.2-0.9,0-1.2,0.4c-0.2-0.4-0.7-0.6-1.2-0.4c-0.5,0.2-0.8,0.7-0.6,1.3l0.7,2.1l-1,3l-2-5.8c-0.2-0.5-0.7-0.8-1.3-0.6
		c-0.5,0.2-0.8,0.7-0.6,1.3l2.9,8.6c0.1,0.4,0.5,0.7,0.9,0.7s0.8-0.3,0.9-0.7l1.2-3.4l1.2,3.4c0.1,0.4,0.5,0.7,0.9,0.7
		s0.8-0.3,0.9-0.7l2.9-8.6C42.3,51.2,42,50.6,41.5,50.4z"/>
</g>
<g>
	<line style="fill:#FFFFFF;" x1="44.1" y1="53.4" x2="44.1" y2="53.4"/>
	<path style="fill:#FFFFFF;" d="M44.1,54.4c-0.6,0-1-0.4-1-1v-0.1c0-0.6,0.4-1,1-1s1,0.4,1,1S44.6,54.4,44.1,54.4z"/>
</g>
<path style="fill:#634E42;" d="M65.2,46.3h-2.7c-2.9-3.9-7.5-6.4-12.7-6.4c-5.2,0-9.8,2.5-12.7,6.4h-2.6c-5.2,0-9.4,4.2-9.4,9.4
	s4.2,9.4,9.4,9.4H37c2.9,3.9,7.5,6.4,12.7,6.4c5.2,0,9.8-2.5,12.7-6.4h2.7c5.2,0,9.4-4.2,9.4-9.4S70.4,46.3,65.2,46.3z M49.7,41.8
	c4,0,7.6,1.7,10.1,4.4h-1.6c0,0,0,0-0.1,0c0,0,0,0,0,0H39.6C42.1,43.5,45.7,41.8,49.7,41.8z M34.3,63.1c-4.1,0-7.4-3.3-7.4-7.4
	s3.3-7.4,7.4-7.4h18c-2.2,1.7-3.6,4.4-3.6,7.4c0,4.1-3.3,7.4-7.4,7.4H34.3z M49.7,69.5c-4,0-7.6-1.7-10.1-4.4h1.7c0,0,0,0,0.1,0
	c0,0,0,0,0,0h18.5C57.3,67.8,53.7,69.5,49.7,69.5z M65.2,63.1h-18c2.2-1.7,3.6-4.4,3.6-7.4c0-4.1,3.3-7.4,7.4-7.4h7
	c4.1,0,7.4,3.3,7.4,7.4S69.3,63.1,65.2,63.1z"/>
<path style="fill:#634E42;" d="M28.6,35.4c-0.4-0.4-0.4-1,0-1.4l0,0c0.4-0.4,1-0.4,1.4,0l0,0c0.4,0.4,0.4,1,0,1.4l0,0
	c-0.2,0.2-0.5,0.3-0.7,0.3l0,0C29,35.7,28.8,35.6,28.6,35.4z M69.6,35L69.6,35c-0.4-0.4-0.4-1,0-1.4l0,0c0.4-0.4,1-0.4,1.4,0l0,0
	c0.4,0.4,0.4,1,0,1.4l0,0c-0.2,0.2-0.5,0.3-0.7,0.3l0,0C70,35.3,69.8,35.2,69.6,35z M31.9,32.4c-0.3-0.4-0.2-1.1,0.2-1.4l0,0l0,0
	l0,0c0.4-0.3,1.1-0.2,1.4,0.2l0,0c0.3,0.5,0.2,1.1-0.2,1.4l0,0c-0.2,0.1-0.4,0.2-0.6,0.2l0,0C32.4,32.8,32.1,32.6,31.9,32.4z
	 M66.2,32.2c-0.4-0.3-0.6-0.9-0.3-1.4l0,0c0.3-0.4,0.9-0.6,1.4-0.3l0,0l0,0l0,0c0.5,0.3,0.6,0.9,0.2,1.4l0,0
	c-0.2,0.3-0.5,0.4-0.8,0.4l0,0C66.6,32.4,66.4,32.3,66.2,32.2z M35.7,29.8c-0.3-0.5-0.1-1.1,0.4-1.3l0,0c0.5-0.3,1.1-0.1,1.4,0.4
	l0,0c0.3,0.5,0.1,1.1-0.4,1.3l0,0c-0.2,0.1-0.3,0.1-0.5,0.1l0,0C36.2,30.4,35.9,30.2,35.7,29.8z M62.4,30c-0.5-0.2-0.7-0.8-0.5-1.3
	l0,0c0.2-0.5,0.8-0.7,1.3-0.5l0,0c0.5,0.2,0.7,0.8,0.5,1.3l0,0c-0.2,0.3-0.5,0.6-0.9,0.6l0,0C62.7,30.1,62.6,30.1,62.4,30z
	 M39.8,27.9c-0.2-0.5,0.1-1.1,0.6-1.3l0,0c0.5-0.2,1.1,0.1,1.3,0.6l0,0c0.2,0.5-0.1,1.1-0.6,1.3l0,0c-0.1,0-0.2,0.1-0.3,0.1l0,0
	C40.3,28.6,39.9,28.4,39.8,27.9z M58.3,28.4L58.3,28.4c-0.5-0.2-0.8-0.7-0.7-1.3l0,0c0.2-0.5,0.7-0.8,1.3-0.7l0,0
	c0.5,0.2,0.8,0.7,0.7,1.3l0,0c-0.1,0.4-0.5,0.7-1,0.7l0,0C58.5,28.4,58.4,28.4,58.3,28.4z M44.2,26.7c-0.1-0.5,0.3-1.1,0.8-1.1l0,0
	c0.5-0.1,1.1,0.3,1.1,0.8l0,0c0.1,0.6-0.3,1.1-0.8,1.2l0,0c-0.1,0-0.1,0-0.2,0l0,0C44.7,27.5,44.3,27.2,44.2,26.7z M54.1,27.4
	c-0.5-0.1-0.9-0.6-0.8-1.1l0,0c0.1-0.5,0.6-0.9,1.1-0.9l0,0c0.5,0.1,0.9,0.6,0.9,1.1l0,0c-0.1,0.5-0.5,0.9-1,0.9l0,0
	C54.2,27.4,54.1,27.4,54.1,27.4z M48.7,26.1c0-0.6,0.4-1,1-1l0,0c0.6,0,1,0.4,1,1l0,0c0,0.5-0.4,1-1,1l0,0c0,0,0,0,0,0l0,0
	C49.1,27.1,48.7,26.7,48.7,26.1z"/>
<path style="fill:#634E42;" d="M22,28.6c-0.4-0.4-0.4-1,0-1.4l0,0l0,0l0,0c0.4-0.4,1-0.4,1.4,0l0,0c0.4,0.4,0.4,1,0,1.4l0,0
	c-0.2,0.2-0.5,0.3-0.7,0.3l0,0C22.4,28.9,22.2,28.8,22,28.6z M75.4,27.5c-0.4-0.4-0.4-1-0.1-1.4l0,0c0.4-0.4,1-0.4,1.4-0.1l0,0
	c0.4,0.4,0.4,1,0.1,1.4l0,0c-0.2,0.2-0.5,0.3-0.7,0.3l0,0C75.9,27.8,75.6,27.7,75.4,27.5z M25.3,25.5c-0.4-0.4-0.3-1.1,0.2-1.4l0,0
	l0,0l0,0c0.4-0.3,1.1-0.3,1.4,0.2l0,0c0.4,0.4,0.3,1.1-0.2,1.4l0,0c-0.2,0.1-0.4,0.2-0.6,0.2l0,0C25.8,25.9,25.5,25.8,25.3,25.5z
	 M72,24.7L72,24.7c-0.5-0.3-0.5-0.9-0.2-1.4l0,0c0.3-0.5,0.9-0.5,1.4-0.2l0,0c0.5,0.3,0.5,1,0.2,1.4l0,0c-0.2,0.3-0.5,0.4-0.8,0.4
	l0,0C72.4,24.9,72.2,24.8,72,24.7z M28.9,22.8c-0.3-0.5-0.1-1.1,0.3-1.4l0,0c0.5-0.3,1.1-0.1,1.4,0.3l0,0c0.3,0.5,0.1,1.1-0.3,1.4
	l0,0c-0.2,0.1-0.3,0.1-0.5,0.1l0,0C29.4,23.3,29.1,23.1,28.9,22.8z M68.3,22.3c-0.5-0.3-0.7-0.9-0.4-1.4l0,0
	c0.3-0.5,0.9-0.7,1.4-0.4l0,0c0.5,0.3,0.7,0.9,0.4,1.4l0,0c-0.2,0.3-0.5,0.5-0.9,0.5l0,0C68.6,22.5,68.4,22.4,68.3,22.3z M32.9,20.6
	c-0.2-0.5,0-1.1,0.5-1.3l0,0c0.5-0.2,1.1,0,1.3,0.5l0,0c0.2,0.5,0,1.1-0.5,1.3l0,0c-0.1,0.1-0.3,0.1-0.4,0.1l0,0
	C33.4,21.2,33,21,32.9,20.6z M64.3,20.4L64.3,20.4c-0.5-0.2-0.8-0.8-0.5-1.3l0,0c0.2-0.5,0.8-0.8,1.3-0.5l0,0
	c0.5,0.2,0.8,0.8,0.5,1.3l0,0c-0.2,0.4-0.5,0.6-0.9,0.6l0,0C64.5,20.5,64.4,20.5,64.3,20.4z M37.1,18.8c-0.2-0.5,0.1-1.1,0.6-1.3
	l0,0c0.5-0.2,1.1,0.1,1.3,0.6l0,0c0.2,0.5-0.1,1.1-0.6,1.3l0,0c-0.1,0-0.2,0.1-0.3,0.1l0,0C37.6,19.5,37.2,19.3,37.1,18.8z M60.1,19
	c-0.5-0.2-0.9-0.7-0.7-1.2l0,0c0.1-0.5,0.7-0.8,1.2-0.7l0,0l0,0l0,0c0.5,0.1,0.9,0.7,0.7,1.2l0,0c-0.1,0.4-0.5,0.7-1,0.7l0,0
	C60.3,19,60.2,19,60.1,19z M41.4,17.6c-0.1-0.5,0.2-1.1,0.8-1.2l0,0c0.6-0.1,1.1,0.2,1.2,0.8l0,0c0.1,0.5-0.2,1.1-0.8,1.2l0,0
	c-0.1,0-0.1,0-0.2,0l0,0C41.9,18.4,41.5,18,41.4,17.6z M55.8,18.1c-0.5-0.1-0.9-0.6-0.8-1.1l0,0c0.1-0.5,0.6-0.9,1.1-0.8l0,0
	c0.5,0.1,0.9,0.6,0.8,1.1l0,0c-0.1,0.5-0.5,0.8-1,0.8l0,0C55.9,18.1,55.8,18.1,55.8,18.1z M45.9,16.8c-0.1-0.5,0.4-1,0.9-1.1l0,0
	c0.6-0.1,1,0.4,1.1,0.9l0,0c0.1,0.6-0.4,1-0.9,1.1h0c0,0,0,0-0.1,0l0,0C46.4,17.7,45.9,17.3,45.9,16.8z M51.4,17.6c-0.6,0-1-0.5-1-1
	l0,0c0-0.5,0.5-1,1-1l0,0l0,0l0,0c0.5,0,1,0.5,1,1l0,0C52.4,17.2,52,17.6,51.4,17.6L51.4,17.6C51.4,17.6,51.4,17.6,51.4,17.6z"/>
</svg>
