<?xml version="1.0" encoding="utf-8"?>
<!-- Generator: Adobe Illustrator 22.0.1, SVG Export Plug-In . SVG Version: 6.00 Build 0)  -->
<svg version="1.1" id="Capa_1" xmlns="http://www.w3.org/2000/svg" xmlns:xlink="http://www.w3.org/1999/xlink" x="0px" y="0px"
	 viewBox="0 0 100 100" style="enable-background:new 0 0 100 100;" xml:space="preserve">
<path style="fill:#644E43;" d="M50,16.9c-9.3,0-16.9,7.6-16.9,16.9v3.5h2v-3.5c0-8.2,6.7-14.8,14.8-14.8s14.8,6.7,14.8,14.8v3.5h1.8
	v0.1h0.2v-3.6C66.8,24.4,59.3,16.9,50,16.9z"/>
<path id="color_2_" class="dashboard_main_color" style="fill:#6F9A2E;" d="M65.3,36.6h-1.2c-0.2,0-0.3,0.1-0.3,0.3v1.3H36.4v-1c0-0.2-0.1-0.3-0.3-0.3h-1.2
	c-1.6,0-3,1.3-3,3v5c0,1.6,1.3,3,3,3h1.2c0.2,0,0.3-0.1,0.3-0.3v-4.8h27.4v4.5c0,0.2,0.1,0.3,0.3,0.3h1.2c1.6,0,3-1.3,3-3v-5
	C68.3,38,66.9,36.6,65.3,36.6z"/>
<path id="color" class="dashboard_main_color" style="fill:#6F9A2E;" d="M29.5,80.2v-3.7c0-7.6,6.2-13.8,13.8-13.8h13.1c7.6,0,13.8,6.2,13.8,13.8v3.7"/>
<path style="fill:none;stroke:#644E43;stroke-width:2.0176;stroke-linecap:round;stroke-linejoin:round;stroke-miterlimit:10;" d="
	M50,22.1"/>
<g>
	<g>
		<path style="fill:#6F9A2E;" d="M62.3,25.4c-0.5,0-1-0.2-1.3-0.6c-2.7-3.4-6.7-5.3-11-5.3s-8.3,1.9-11,5.3
			c-0.6,0.7-1.6,0.8-2.3,0.3c-0.7-0.6-0.8-1.6-0.3-2.3c3.3-4.1,8.3-6.5,13.6-6.5s10.3,2.4,13.6,6.5c0.6,0.7,0.5,1.8-0.3,2.3
			C63.1,25.3,62.7,25.4,62.3,25.4z"/>
		<path style="fill:#644E43;" d="M62.3,26.4c-0.8,0-1.6-0.4-2.1-1c-2.5-3.1-6.3-4.9-10.3-4.9s-7.7,1.8-10.3,4.9
			c-0.4,0.6-1.1,0.9-1.8,1s-1.4-0.1-2-0.6c-1.1-0.9-1.3-2.6-0.4-3.8c3.5-4.4,8.8-6.9,14.4-6.9s10.9,2.5,14.4,6.9
			c0.9,1.1,0.7,2.8-0.4,3.8C63.5,26.2,62.9,26.4,62.3,26.4z M50,18.5c4.6,0,8.9,2.1,11.8,5.7c0.1,0.2,0.3,0.2,0.5,0.2
			c0.1,0,0.3,0,0.4-0.1c0.3-0.2,0.3-0.6,0.1-0.9c-3.2-3.9-7.8-6.1-12.9-6.1c-5,0-9.7,2.2-12.9,6.1c0,0.1,0,0.3,0,0.4
			s0.1,0.3,0.2,0.4c0.1,0.1,0.3,0.2,0.5,0.1c0.2,0,0.3-0.1,0.4-0.2C41.1,20.6,45.4,18.5,50,18.5z"/>
	</g>
</g>
<path style="fill:#EFEBE2;" d="M43.4,55.9h12.5v6.8c0,3.4-2.8,6.2-6.2,6.2l0,0c-3.4,0-6.2-2.8-6.2-6.2L43.4,55.9L43.4,55.9z"/>
<path style="fill:#FFFFFF;" d="M63.5,36.9h1.7c-0.3-0.3-0.6-0.6-1-0.8c1.3-0.7,2.3-2.1,2.3-3.8c0-1.9-1.2-3.5-2.9-4.1
	c0-0.2,0.1-0.3,0.1-0.5c0-2.4-1.9-4.3-4.3-4.3c-0.6,0-1.2,0.1-1.7,0.3c-0.2-2.2-2.1-3.8-4.3-3.8c-1.5,0-2.8,0.8-3.6,1.9
	c-0.8-1-2.1-1.8-3.6-1.8c-2.2,0-4,1.7-4.3,3.8c-0.5-0.2-1-0.3-1.6-0.3c-2.4,0-4.3,1.9-4.3,4.3c0,0.2,0,0.4,0.1,0.5
	c-1.7,0.6-2.9,2.2-2.9,4.1c0,1.6,0.9,3.1,2.3,3.8c-0.1,0.1-0.2,0.1-0.3,0.2h1.5v7.8c0.3,0.1,0.6,0.1,0.8,0.1h24.6
	c0.5,0,0.9-0.1,1.4-0.2V36.9z"/>
<path style="fill:#EFEBE2;" d="M55.2,30.6c3.2,1,5.6,4,5.6,7.5v12.3c0,5.7-4.7,10.4-10.4,10.4h-1.1c-5.7,0-10.4-4.7-10.4-10.4V38.1
	c0-3.4,2.2-6.4,5.3-7.4"/>
<path style="fill:#FFFFFF;" d="M49.8,54.5c2.8,0,5-2.2,5-5h-10C44.8,52.2,47.1,54.5,49.8,54.5z"/>
<g>
	<circle style="fill:#FFFFFF;" cx="49.8" cy="45.2" r="0.4"/>
	<path style="fill:#644E43;" d="M49.8,46.6c-0.8,0-1.4-0.6-1.4-1.4s0.6-1.4,1.4-1.4c0.8,0,1.4,0.6,1.4,1.4S50.6,46.6,49.8,46.6z
		 M49.8,44.6c-0.3,0-0.6,0.3-0.6,0.6s0.3,0.6,0.6,0.6s0.6-0.3,0.6-0.6S50.2,44.6,49.8,44.6z"/>
</g>
<g>
	<g>
		<circle style="fill:#FFFFFF;" cx="54.5" cy="41.7" r="0.4"/>
		<path style="fill:#644E43;" d="M54.5,43.1c-0.8,0-1.4-0.6-1.4-1.4s0.6-1.4,1.4-1.4c0.8,0,1.4,0.6,1.4,1.4S55.2,43.1,54.5,43.1z
			 M54.5,41.1c-0.3,0-0.6,0.3-0.6,0.6s0.3,0.6,0.6,0.6s0.6-0.3,0.6-0.6C55.1,41.4,54.8,41.1,54.5,41.1z"/>
	</g>
	<g>
		<circle style="fill:#FFFFFF;" cx="45.2" cy="41.7" r="0.4"/>
		<path style="fill:#644E43;" d="M45.2,43.1c-0.8,0-1.4-0.6-1.4-1.4s0.6-1.4,1.4-1.4c0.8,0,1.4,0.6,1.4,1.4S46,43.1,45.2,43.1z
			 M45.2,41.1c-0.3,0-0.6,0.3-0.6,0.6s0.3,0.6,0.6,0.6s0.6-0.3,0.6-0.6C45.8,41.4,45.6,41.1,45.2,41.1z"/>
	</g>
</g>
<path style="fill:#FFFFFF;" d="M55.5,29.3c0,3.1-2.5,5.6-5.6,5.6s-5.6-2.5-5.6-5.6"/>
<g>
	<g>
		<g>
			<path style="fill:#FFFFFF;" d="M34.8,78.2c-0.1,0-0.2,0-0.3-0.1c-0.2-0.2-0.2-0.4,0-0.6c0.1-0.1,0.3-0.2,0.5-0.1
				c0.1,0,0.1,0,0.2,0.1c0.2,0.2,0.2,0.4,0,0.6l0,0C35.1,78.2,35,78.2,34.8,78.2z"/>
			<path style="fill:#FFFFFF;" d="M33.6,77c-0.1,0-0.2,0-0.3-0.1l0,0c-0.2-0.2-0.2-0.4,0-0.6s0.4-0.2,0.6,0s0.2,0.5,0,0.6
				C33.8,77,33.7,77,33.6,77z"/>
			<path style="fill:#FFFFFF;" d="M32.4,75.8c-0.1,0-0.2,0-0.3-0.1l0,0c-0.2-0.2-0.2-0.4,0-0.6s0.4-0.2,0.6,0
				c0.1,0.1,0.2,0.3,0.1,0.5c0,0.1-0.1,0.1-0.1,0.2C32.6,75.7,32.5,75.8,32.4,75.8z"/>
			<path style="fill:#FFFFFF;" d="M33.6,74.5c-0.1,0-0.2,0-0.3-0.1c-0.2-0.2-0.2-0.4,0-0.6l0,0c0.2-0.2,0.4-0.2,0.6,0s0.2,0.4,0,0.6
				C33.8,74.4,33.7,74.5,33.6,74.5z"/>
			<path style="fill:#FFFFFF;" d="M34.9,73.3c-0.1,0-0.1,0-0.2,0c-0.1,0-0.1-0.1-0.2-0.1c-0.2-0.2-0.2-0.4,0-0.6l0,0
				c0.2-0.2,0.4-0.2,0.6,0s0.2,0.4,0,0.6C35.1,73.2,35,73.3,34.9,73.3z"/>
			<path style="fill:#FFFFFF;" d="M36.1,74.5c-0.1,0-0.2,0-0.3-0.1c-0.2-0.2-0.2-0.5,0-0.6c0.2-0.2,0.4-0.2,0.6,0l0,0
				c0.2,0.2,0.2,0.4,0,0.6C36.3,74.5,36.2,74.5,36.1,74.5z"/>
			<path style="fill:#FFFFFF;" d="M37.3,75.7c-0.1,0-0.2,0-0.3-0.1s-0.2-0.3-0.1-0.5c0-0.1,0.1-0.1,0.1-0.2c0.2-0.2,0.4-0.2,0.6,0
				l0,0c0.2,0.2,0.2,0.4,0,0.6C37.6,75.7,37.4,75.7,37.3,75.7z"/>
			<path style="fill:#FFFFFF;" d="M36.1,77c-0.1,0-0.2,0-0.3-0.1c-0.2-0.2-0.2-0.4,0-0.6s0.5-0.2,0.6,0c0.2,0.2,0.2,0.4,0,0.6l0,0
				C36.3,77,36.2,77,36.1,77z"/>
		</g>
		<g>
			<path style="fill:#FFFFFF;" d="M39.8,78.2L39.8,78.2c-0.1,0-0.2,0-0.3-0.1c-0.2-0.2-0.2-0.4,0-0.6c0.1-0.1,0.3-0.2,0.5-0.1
				c0.1,0,0.1,0.1,0.2,0.1c0.2,0.2,0.2,0.4,0,0.6l0,0C40.1,78.2,40,78.2,39.8,78.2z"/>
			<path style="fill:#FFFFFF;" d="M38.6,77c-0.1,0-0.2,0-0.3-0.1l0,0c-0.2-0.2-0.2-0.4,0-0.6s0.4-0.2,0.6,0c0.2,0.2,0.2,0.5,0,0.6
				C38.8,77,38.7,77,38.6,77z"/>
			<path style="fill:#FFFFFF;" d="M37.4,75.8c-0.1,0-0.2,0-0.3-0.1l0,0C37,75.6,37,75.5,37,75.4c0-0.1,0-0.2,0.1-0.3
				c0.2-0.2,0.4-0.2,0.6,0c0.1,0.1,0.2,0.3,0.1,0.5c0,0.1,0,0.1-0.1,0.2C37.6,75.7,37.5,75.8,37.4,75.8z"/>
			<path style="fill:#FFFFFF;" d="M38.6,74.5c-0.1,0-0.2,0-0.3-0.1c-0.2-0.2-0.2-0.4,0-0.6l0,0c0.2-0.2,0.4-0.2,0.6,0s0.2,0.4,0,0.6
				C38.8,74.4,38.7,74.5,38.6,74.5z"/>
			<path style="fill:#FFFFFF;" d="M39.9,73.3c-0.1,0-0.1,0-0.2,0c-0.1,0-0.1-0.1-0.2-0.1c-0.2-0.2-0.2-0.4,0-0.6l0,0
				c0.2-0.2,0.4-0.2,0.6,0c0.2,0.2,0.2,0.4,0,0.6C40.1,73.2,40,73.3,39.9,73.3z"/>
			<path style="fill:#FFFFFF;" d="M41.1,74.5c-0.1,0-0.2,0-0.3-0.1c-0.2-0.2-0.2-0.5,0-0.6c0.2-0.2,0.4-0.2,0.6,0l0,0
				c0.2,0.2,0.2,0.4,0,0.6C41.3,74.5,41.2,74.5,41.1,74.5z"/>
			<path style="fill:#FFFFFF;" d="M42.3,75.7c-0.1,0-0.2,0-0.3-0.1s-0.2-0.3-0.1-0.5c0-0.1,0.1-0.1,0.1-0.2c0.2-0.2,0.4-0.2,0.6,0
				l0,0c0.2,0.2,0.2,0.4,0,0.6C42.6,75.7,42.4,75.7,42.3,75.7z"/>
			<path style="fill:#FFFFFF;" d="M41.1,77c-0.1,0-0.2,0-0.3-0.1c-0.2-0.2-0.2-0.4,0-0.6s0.5-0.2,0.6,0c0.2,0.2,0.2,0.4,0,0.6l0,0
				C41.3,77,41.2,77,41.1,77z"/>
		</g>
		<g>
			<path style="fill:#FFFFFF;" d="M44.8,78.2L44.8,78.2c-0.1,0-0.2,0-0.3-0.1c-0.2-0.2-0.2-0.4,0-0.6c0.1-0.1,0.3-0.2,0.5-0.1
				c0.1,0,0.1,0.1,0.2,0.1c0.2,0.2,0.2,0.4,0,0.6l0,0C45.1,78.2,45,78.2,44.8,78.2z"/>
			<path style="fill:#FFFFFF;" d="M43.6,77c-0.1,0-0.2,0-0.3-0.1l0,0c-0.2-0.2-0.2-0.4,0-0.6s0.4-0.2,0.6,0s0.2,0.5,0,0.6
				C43.8,77,43.7,77,43.6,77z"/>
			<path style="fill:#FFFFFF;" d="M42.4,75.8c-0.1,0-0.2,0-0.3-0.1l0,0C42,75.6,42,75.5,42,75.4c0-0.1,0-0.2,0.1-0.3
				c0.2-0.2,0.4-0.2,0.6,0c0.1,0.1,0.2,0.3,0.1,0.5c0,0.1,0,0.1-0.1,0.2C42.6,75.7,42.5,75.8,42.4,75.8z"/>
			<path style="fill:#FFFFFF;" d="M43.6,74.5c-0.1,0-0.2,0-0.3-0.1c-0.2-0.2-0.2-0.4,0-0.6l0,0c0.2-0.2,0.4-0.2,0.6,0s0.2,0.4,0,0.6
				C43.8,74.4,43.7,74.5,43.6,74.5z"/>
			<path style="fill:#FFFFFF;" d="M44.9,73.3c-0.1,0-0.1,0-0.2,0c-0.1,0-0.1-0.1-0.2-0.1c-0.2-0.2-0.2-0.4,0-0.6l0,0
				c0.2-0.2,0.4-0.2,0.6,0c0.2,0.2,0.2,0.4,0,0.6C45.1,73.2,45,73.3,44.9,73.3z"/>
			<path style="fill:#FFFFFF;" d="M46.1,74.5c-0.1,0-0.2,0-0.3-0.1c-0.2-0.2-0.2-0.5,0-0.6c0.2-0.2,0.4-0.2,0.6,0l0,0
				c0.2,0.2,0.2,0.4,0,0.6C46.3,74.5,46.2,74.5,46.1,74.5z"/>
			<path style="fill:#FFFFFF;" d="M47.3,75.7c-0.1,0-0.2,0-0.3-0.1s-0.2-0.3-0.1-0.5c0-0.1,0-0.1,0.1-0.2c0.2-0.2,0.4-0.2,0.6,0l0,0
				c0.1,0.1,0.1,0.2,0.1,0.3c0,0.1,0,0.2-0.1,0.3C47.6,75.7,47.4,75.7,47.3,75.7z"/>
			<path style="fill:#FFFFFF;" d="M46.1,77c-0.1,0-0.2,0-0.3-0.1c-0.2-0.2-0.2-0.4,0-0.6s0.5-0.2,0.6,0c0.2,0.2,0.2,0.4,0,0.6l0,0
				C46.3,77,46.2,77,46.1,77z"/>
		</g>
		<g>
			<path style="fill:#FFFFFF;" d="M49.8,78.2c-0.1,0-0.2,0-0.3-0.1c-0.2-0.2-0.2-0.4,0-0.6c0.1-0.1,0.3-0.2,0.5-0.1
				c0.1,0,0.1,0,0.2,0.1c0.2,0.2,0.2,0.4,0,0.6l0,0C50.1,78.2,50,78.2,49.8,78.2L49.8,78.2z"/>
			<path style="fill:#FFFFFF;" d="M48.6,77c-0.1,0-0.2,0-0.3-0.1l0,0c-0.2-0.2-0.2-0.4,0-0.6s0.4-0.2,0.6,0s0.2,0.5,0,0.6
				C48.8,77,48.7,77,48.6,77z"/>
			<path style="fill:#FFFFFF;" d="M47.4,75.8c-0.1,0-0.2,0-0.3-0.1l0,0c-0.2-0.2-0.2-0.4,0-0.6s0.4-0.2,0.6,0
				c0.1,0.1,0.2,0.3,0.1,0.5c0,0.1-0.1,0.1-0.1,0.2C47.6,75.7,47.5,75.8,47.4,75.8z"/>
			<path style="fill:#FFFFFF;" d="M48.6,74.5c-0.1,0-0.2,0-0.3-0.1c-0.2-0.2-0.2-0.4,0-0.6l0,0c0.2-0.2,0.4-0.2,0.6,0s0.2,0.4,0,0.6
				C48.8,74.4,48.7,74.5,48.6,74.5z"/>
			<path style="fill:#FFFFFF;" d="M49.9,73.3c-0.1,0-0.1,0-0.2,0c-0.1,0-0.1-0.1-0.2-0.1c-0.2-0.2-0.2-0.4,0-0.6l0,0
				c0.2-0.2,0.4-0.2,0.6,0c0.2,0.2,0.2,0.4,0,0.6C50.1,73.2,50,73.3,49.9,73.3z"/>
			<path style="fill:#FFFFFF;" d="M51.1,74.5c-0.1,0-0.2,0-0.3-0.1c-0.2-0.2-0.2-0.5,0-0.6c0.2-0.2,0.4-0.2,0.6,0l0,0
				c0.2,0.2,0.2,0.4,0,0.6C51.3,74.5,51.2,74.5,51.1,74.5z"/>
			<path style="fill:#FFFFFF;" d="M52.3,75.7c-0.1,0-0.2,0-0.3-0.1s-0.2-0.3-0.1-0.5c0-0.1,0-0.1,0.1-0.2c0.2-0.2,0.4-0.2,0.6,0l0,0
				c0.1,0.1,0.1,0.2,0.1,0.3c0,0.1,0,0.2-0.1,0.3C52.6,75.7,52.4,75.7,52.3,75.7z"/>
			<path style="fill:#FFFFFF;" d="M51.1,77c-0.1,0-0.2,0-0.3-0.1c-0.2-0.2-0.2-0.4,0-0.6s0.5-0.2,0.6,0c0.2,0.2,0.2,0.4,0,0.6l0,0
				C51.3,77,51.2,77,51.1,77z"/>
		</g>
		<g>
			<path style="fill:#FFFFFF;" d="M54.8,78.2c-0.1,0-0.2,0-0.3-0.1c-0.2-0.2-0.2-0.4,0-0.6c0.1-0.1,0.3-0.2,0.5-0.1
				c0.1,0,0.1,0,0.2,0.1c0.2,0.2,0.2,0.4,0,0.6l0,0C55.1,78.2,55,78.2,54.8,78.2L54.8,78.2z"/>
			<path style="fill:#FFFFFF;" d="M53.6,77c-0.1,0-0.2,0-0.3-0.1l0,0c-0.2-0.2-0.2-0.4,0-0.6s0.4-0.2,0.6,0s0.2,0.5,0,0.6
				C53.8,77,53.7,77,53.6,77z"/>
			<path style="fill:#FFFFFF;" d="M52.4,75.8c-0.1,0-0.2,0-0.3-0.1l0,0c-0.2-0.2-0.2-0.4,0-0.6s0.4-0.2,0.6,0
				c0.1,0.1,0.2,0.3,0.1,0.5c0,0.1-0.1,0.1-0.1,0.2C52.6,75.7,52.5,75.8,52.4,75.8z"/>
			<path style="fill:#FFFFFF;" d="M53.6,74.5c-0.1,0-0.2,0-0.3-0.1c-0.2-0.2-0.2-0.4,0-0.6l0,0c0.2-0.2,0.4-0.2,0.6,0s0.2,0.4,0,0.6
				C53.8,74.4,53.7,74.5,53.6,74.5z"/>
			<path style="fill:#FFFFFF;" d="M54.8,73.3c-0.1,0-0.1,0-0.2,0c-0.1,0-0.1-0.1-0.2-0.1c-0.2-0.2-0.2-0.4,0-0.6l0,0
				c0.2-0.2,0.4-0.2,0.6,0c0.2,0.2,0.2,0.4,0,0.6C55.1,73.2,55,73.3,54.8,73.3z"/>
			<path style="fill:#FFFFFF;" d="M56.1,74.5c-0.1,0-0.2,0-0.3-0.1c-0.2-0.2-0.2-0.5,0-0.6c0.2-0.2,0.4-0.2,0.6,0l0,0
				c0.2,0.2,0.2,0.4,0,0.6C56.3,74.5,56.2,74.5,56.1,74.5z"/>
			<path style="fill:#FFFFFF;" d="M57.3,75.7c-0.1,0-0.2,0-0.3-0.1s-0.2-0.3-0.1-0.5c0-0.1,0.1-0.1,0.1-0.2c0.2-0.2,0.4-0.2,0.6,0
				l0,0c0.2,0.2,0.2,0.4,0,0.6C57.6,75.7,57.4,75.7,57.3,75.7z"/>
			<path style="fill:#FFFFFF;" d="M56.1,77c-0.1,0-0.2,0-0.3-0.1c-0.2-0.2-0.2-0.4,0-0.6s0.5-0.2,0.6,0s0.2,0.4,0,0.6l0,0
				C56.3,77,56.2,77,56.1,77z"/>
		</g>
	</g>
	<g>
		<g>
			<path style="fill:#FFFFFF;" d="M59.8,78.2c-0.1,0-0.2,0-0.3-0.1c-0.2-0.2-0.2-0.4,0-0.6c0.1-0.1,0.3-0.2,0.5-0.1
				c0.1,0,0.1,0,0.2,0.1c0.2,0.2,0.2,0.4,0,0.6l0,0C60.1,78.2,60,78.2,59.8,78.2z"/>
			<path style="fill:#FFFFFF;" d="M58.6,77c-0.1,0-0.2,0-0.3-0.1l0,0c-0.2-0.2-0.2-0.4,0-0.6s0.4-0.2,0.6,0s0.2,0.5,0,0.6
				C58.8,77,58.7,77,58.6,77z"/>
			<path style="fill:#FFFFFF;" d="M57.3,75.8c-0.1,0-0.2,0-0.3-0.1l0,0c-0.2-0.2-0.2-0.4,0-0.6s0.4-0.2,0.6,0
				c0.1,0.1,0.2,0.3,0.1,0.5c0,0.1-0.1,0.1-0.1,0.2C57.6,75.7,57.5,75.8,57.3,75.8z"/>
			<path style="fill:#FFFFFF;" d="M58.6,74.5c-0.1,0-0.2,0-0.3-0.1c-0.2-0.2-0.2-0.4,0-0.6l0,0c0.2-0.2,0.4-0.2,0.6,0s0.2,0.4,0,0.6
				C58.8,74.4,58.7,74.5,58.6,74.5z"/>
			<path style="fill:#FFFFFF;" d="M59.8,73.3c-0.1,0-0.1,0-0.2,0c-0.1,0-0.1-0.1-0.2-0.1c-0.2-0.2-0.2-0.4,0-0.6l0,0
				c0.2-0.2,0.4-0.2,0.6,0s0.2,0.4,0,0.6C60.1,73.2,60,73.3,59.8,73.3z"/>
			<path style="fill:#FFFFFF;" d="M61.1,74.5c-0.1,0-0.2,0-0.3-0.1c-0.2-0.2-0.2-0.5,0-0.6c0.2-0.2,0.4-0.2,0.6,0l0,0
				c0.2,0.2,0.2,0.4,0,0.6C61.3,74.5,61.2,74.5,61.1,74.5z"/>
			<path style="fill:#FFFFFF;" d="M62.3,75.7c-0.1,0-0.2,0-0.3-0.1s-0.2-0.3-0.1-0.5c0-0.1,0.1-0.1,0.1-0.2c0.2-0.2,0.4-0.2,0.6,0
				l0,0c0.2,0.2,0.2,0.4,0,0.6C62.6,75.7,62.4,75.7,62.3,75.7z"/>
			<path style="fill:#FFFFFF;" d="M61.1,77c-0.1,0-0.2,0-0.3-0.1c-0.2-0.2-0.2-0.4,0-0.6s0.5-0.2,0.6,0s0.2,0.4,0,0.6l0,0
				C61.3,77,61.2,77,61.1,77z"/>
		</g>
		<g>
			<path style="fill:#FFFFFF;" d="M64.8,78.2c-0.1,0-0.2,0-0.3-0.1c-0.2-0.2-0.2-0.4,0-0.6c0.1-0.1,0.3-0.2,0.5-0.1
				c0.1,0,0.1,0,0.2,0.1c0.2,0.2,0.2,0.4,0,0.6l0,0C65.1,78.2,65,78.2,64.8,78.2z"/>
			<path style="fill:#FFFFFF;" d="M63.6,77c-0.1,0-0.2,0-0.3-0.1l0,0c-0.2-0.2-0.2-0.4,0-0.6s0.4-0.2,0.6,0c0.2,0.2,0.2,0.5,0,0.6
				C63.8,77,63.7,77,63.6,77z"/>
			<path style="fill:#FFFFFF;" d="M62.3,75.8c-0.1,0-0.2,0-0.3-0.1l0,0c-0.2-0.2-0.2-0.4,0-0.6s0.4-0.2,0.6,0
				c0.1,0.1,0.2,0.3,0.1,0.5c0,0.1-0.1,0.1-0.1,0.2C62.6,75.7,62.5,75.8,62.3,75.8z"/>
			<path style="fill:#FFFFFF;" d="M63.6,74.5c-0.1,0-0.2,0-0.3-0.1c-0.2-0.2-0.2-0.4,0-0.6l0,0c0.2-0.2,0.4-0.2,0.6,0
				c0.2,0.2,0.2,0.4,0,0.6C63.8,74.4,63.7,74.5,63.6,74.5z"/>
			<path style="fill:#FFFFFF;" d="M64.8,73.3c-0.1,0-0.1,0-0.2,0s-0.1-0.1-0.2-0.1c-0.2-0.2-0.2-0.4,0-0.6l0,0
				c0.2-0.2,0.4-0.2,0.6,0s0.2,0.4,0,0.6C65.1,73.2,65,73.3,64.8,73.3z"/>
			<path style="fill:#FFFFFF;" d="M66.1,74.5c-0.1,0-0.2,0-0.3-0.1c-0.2-0.2-0.2-0.5,0-0.6c0.2-0.2,0.4-0.2,0.6,0l0,0
				c0.2,0.2,0.2,0.4,0,0.6C66.3,74.5,66.2,74.5,66.1,74.5z"/>
			<path style="fill:#FFFFFF;" d="M67.3,75.7c-0.1,0-0.2,0-0.3-0.1c-0.1-0.1-0.2-0.3-0.1-0.5c0-0.1,0.1-0.1,0.1-0.2
				c0.2-0.2,0.4-0.2,0.6,0l0,0c0.2,0.2,0.2,0.4,0,0.6C67.6,75.7,67.4,75.7,67.3,75.7z"/>
			<path style="fill:#FFFFFF;" d="M66.1,77c-0.1,0-0.2,0-0.3-0.1c-0.2-0.2-0.2-0.4,0-0.6s0.5-0.2,0.6,0s0.2,0.4,0,0.6l0,0
				C66.3,77,66.2,77,66.1,77z"/>
		</g>
	</g>
</g>
<path style="fill:none;stroke:#644E43;stroke-width:2.0176;stroke-linecap:round;stroke-linejoin:round;stroke-miterlimit:10;" d="
	M50,21.3"/>
<line style="fill:none;" x1="36.4" y1="36.1" x2="36.4" y2="48.8"/>
<path id="color_1_" style="fill:#6F9A2E;" d="M51.4,58.3h3.7c0.7,0,1.3-0.6,1.3-1.3l0,0c0-0.7-0.6-1.3-1.3-1.3h-3.7
	c-0.7,0-1.3,0.6-1.3,1.3l0,0C50.1,57.7,50.7,58.3,51.4,58.3z"/>
<path style="fill:#644E43;" d="M56.9,61.7v-1.9c1.4-0.9,2.5-2.1,3.4-3.5c2.5-1.6,4.2-4.3,4.5-7.4h0.6c2,0,3.7-1.5,3.9-3.5
	c0.1,0,0.2,0.1,0.3,0.1c0.6,0,1-0.5,1-1v-4.1c0-0.6-0.5-1-1-1c-0.1,0-0.2,0-0.3,0.1C69,37.7,67.7,36.3,66,36c0.9-1,1.5-2.3,1.5-3.6
	c0-2-1.1-3.8-2.8-4.7c-0.1-2.9-2.4-5.2-5.3-5.2c-0.3,0-0.6,0-1,0.1c-0.7-2.1-2.7-3.6-5-3.6c-1.4,0-2.6,0.5-3.6,1.4
	c-1-0.9-2.3-1.4-3.6-1.4c-2.3,0-4.3,1.5-5,3.6c-0.3,0-0.6-0.1-0.8-0.1c-2.9,0-5.3,2.3-5.3,5.2c-1.7,0.9-2.8,2.7-2.8,4.7
	c0,1.4,0.6,2.8,1.6,3.7c-1.5,0.4-2.6,1.7-2.8,3.3c-0.1,0-0.2-0.1-0.4-0.1c-0.6,0-1,0.5-1,1v4.1c0,0.6,0.5,1,1,1c0.1,0,0.3,0,0.4-0.1
	c0.2,2,1.9,3.5,3.9,3.5h0.4c0,0.5,0.4,1,1,1c0.6,0,1-0.5,1-1V48c0.1-0.1,0.1-0.3,0.1-0.5v-2.3h0.1H38v5.2c0,3.7,1.7,6.9,4.4,9v2.4
	c-7.8,0.5-13.9,6.9-13.9,14.8v3.7c0,0.5,0.5,1,1,1s1-0.4,1-1v-3.7c0-6.8,5.4-12.3,12-12.8c0.5,3.5,3.5,6.2,7.1,6.2
	c3.7,0,6.6-2.7,7.2-6.2c6.9,0.2,12.4,5.9,12.4,12.8v3.7c0,0.5,0.4,1,1,1c0.6,0,1-0.4,1-1v-3.7C71.2,68.5,64.9,62,56.9,61.7z
	 M61.8,51.7c0-0.4,0.1-0.9,0.1-1.3v-5.2h0.4c0.2,0,0.4,0,0.6-0.1C62.9,45.1,62.4,50.5,61.8,51.7z M67.3,40v4.9c0,1.1-0.9,2-2,2h-0.5
	V38h0.5C66.4,38,67.3,38.9,67.3,40z M34.9,46.9c-1.1,0-2-0.9-2-2v-5c0-1.1,0.9-2,2-2h0.5v9H34.9z M37.8,38.2v5.1h-0.4v-7.2
	c0-0.5-0.5-1-1-1c-0.2,0-0.4,0.1-0.5,0.2c-1.1-0.6-1.7-1.7-1.7-2.9c0-1.4,0.9-2.6,2.2-3.1c0.4-0.2,0.7-0.6,0.7-1.1v-0.1
	c0-0.1,0-0.2,0-0.3c0-1.8,1.5-3.3,3.3-3.3c0.4,0,0.8,0.1,1.2,0.2c0.3,0.1,0.6,0.1,0.9-0.1s0.4-0.4,0.5-0.7c0.2-1.7,1.6-2.9,3.3-2.9
	c1.1,0,2.1,0.6,2.8,1.5c0.4,0.6,1.3,0.6,1.7,0c0.6-0.9,1.6-1.5,2.8-1.5c1.7,0,3.1,1.3,3.3,2.9c0,0.3,0.2,0.6,0.5,0.8
	c0.3,0.2,0.6,0.2,0.9,0.1c0.4-0.2,0.8-0.3,1.3-0.3c1.8,0,3.3,1.5,3.3,3.3c0,0.1,0,0.2,0,0.3v0.1c-0.1,0.5,0.2,0.9,0.7,1.1
	c1.3,0.5,2.2,1.7,2.2,3.1c-0.3,1.2-1,2.3-2.1,2.9c-0.3,0.2-0.5,0.5-0.5,0.9v0.1c-0.3,0.2-0.5,0.6-0.5,1v3.6v2.3
	c-0.2,0-0.4,0.1-0.6,0.1h-0.4v-5.1c0-3.5-2.1-6.7-5.3-8.1c0-0.2,0-0.5,0-0.7c0-0.6-0.5-1-1-1s-1,0.5-1,1c0,0.2,0,0.4-0.1,0.6
	l-0.2,0.9c-0.6,1.8-2.3,3.1-4.4,3.1c-2.6,0-4.6-2.1-4.6-4.6c0-0.6-0.5-1-1-1s-1,0.5-1,1c0,0.2,0,0.5,0,0.7
	C39.9,31.5,37.8,34.7,37.8,38.2z M54.8,62.8c0,2.9-2.3,5.2-5.2,5.2c-2.9,0-5.2-2.3-5.2-5.2v-2.2c1.5,0.7,3.2,1.2,5,1.2h1.1
	c1.5,0,3-0.3,4.3-0.8V62.8z M55.1,57.3h-3.7c-0.1,0-0.3-0.1-0.3-0.3s0.1-0.3,0.3-0.3h3.7c0.1,0,0.3,0.1,0.3,0.3S55.3,57.3,55.1,57.3
	z M49.8,53.5c-1.9,0-3.4-1.3-3.9-3h7.7C53.3,52.2,51.7,53.5,49.8,53.5z M55.2,54.7h-2.4c1.9-1,3.1-3,3.1-5.3c0-0.6-0.5-1-1-1h-10
	c-0.6,0-1,0.5-1,1c0,3.3,2.6,5.9,5.9,6c-0.4,0.4-0.6,0.9-0.6,1.5c0,1.3,1,2.3,2.3,2.3h2.1c-1,0.3-2,0.5-3.1,0.5h-1.1
	c-5.2,0-9.4-4.2-9.4-9.4V38.1c0-2.6,1.5-5,3.8-6.1c1,2.3,3.4,4,6.1,4c2.7,0,5-1.6,6.1-4c2.3,1.1,3.8,3.5,3.8,6.2v12.2
	c0,1.6-0.4,3.1-1.1,4.4c-0.5,0.3-1.1,0.6-1.7,0.8C56.6,55.1,55.9,54.7,55.2,54.7z"/>
</svg>
