<?xml version="1.0" encoding="utf-8"?>
<!-- Generator: Adobe Illustrator 22.0.1, SVG Export Plug-In . SVG Version: 6.00 Build 0)  -->
<svg version="1.1" id="Capa_1" xmlns="http://www.w3.org/2000/svg" xmlns:xlink="http://www.w3.org/1999/xlink" x="0px" y="0px"
	 viewBox="0 0 100 100" style="enable-background:new 0 0 100 100;" xml:space="preserve">
<rect id="color" class="dashboard_main_color" x="35.4" y="28.4" style="fill:#7EAA2A;" width="28.9" height="29.7"/>
<path style="fill:#E6E0CF;" d="M31.4,24v37.3h37.3V24H31.4z M49.4,58.2c-1.1,0-2-0.9-2-2s0.9-2,2-2s2,0.9,2,2S50.5,58.2,49.4,58.2z
	 M64.3,51.1H35.4V28.4h28.9V51.1z"/>
<polygon style="opacity:0.73;fill:#FFFFFF;enable-background:new    ;" points="61.8,75 40.1,75 39.9,61.8 58.8,61.8 59.1,70.1 
	61.8,70.1 "/>
<rect x="39.5" y="61.8" style="opacity:0.73;fill:#E6E0CF;enable-background:new    ;" width="17.7" height="1.6"/>
<rect x="40" y="71.9" style="fill:#E3DACD;" width="4.8" height="2.6"/>
<g>
	<polygon style="opacity:8.000000e-02;fill:#FFFFFF;enable-background:new    ;" points="64.3,51.1 64.3,27.3 56,27.7 50,51.1 	"/>
	<polygon style="opacity:0.1;" points="64.3,48.9 64.3,28.7 62.6,28.7 62.6,48.9 35.4,48.9 35.4,51.2 64.3,51.2 64.3,48.9 	"/>
</g>
<path style="fill:#644E43;" d="M67.4,23.1H32.6c-1.2,0-2.2,1.1-2.2,2.5v34.2c0,1.4,1,2.5,2.2,2.5h5.5v10.4c0,2.3,1.8,4.1,4,4.1h17.2
	c1.2,0,2.1-0.3,2.7-1c1.1-1.1,1.1-2.9,1-4.9c0-0.4,0-0.7,0-1.1c0-0.1,0-0.1,0-0.2c0-0.6-0.5-1-1-1h-2.8v-6.3h8.1
	c1.2,0,2.2-1.1,2.2-2.5V25.5C69.5,24.2,68.6,23.1,67.4,23.1z M60.6,74.2c-0.2,0.2-0.7,0.4-1.3,0.4H45.5c0.4-1.1,0.4-2.4,0.4-3.9
	c0-0.1,0-0.2,0-0.2H61c0,0.1,0,0.2,0,0.3C61.1,72.3,61.1,73.7,60.6,74.2z M57.3,68.5H44.8c-0.6,0-1,0.5-1,1c0,0.4,0,0.9,0,1.3
	c0,1.5,0.1,2.9-0.5,3.5c-0.2,0.2-0.7,0.4-1.3,0.4c-1.1,0-2-0.9-2-2.1V62.1h17.2L57.3,68.5L57.3,68.5z M67.7,59.7
	c0,0.4-0.2,0.6-0.4,0.6H32.6c-0.1,0-0.4-0.3-0.4-0.6V25.5c0-0.4,0.2-0.6,0.4-0.6h34.7c0.1,0,0.4,0.3,0.4,0.6
	C67.7,25.5,67.7,59.7,67.7,59.7z"/>
<g>
	<path style="fill:#644E43;" d="M49.4,59.2c-1.6,0-3-1.3-3-3s1.3-3,3-3s3,1.3,3,3S51,59.2,49.4,59.2z M49.4,55.2c-0.6,0-1,0.5-1,1
		s0.5,1,1,1s1-0.5,1-1S49.9,55.2,49.4,55.2z"/>
</g>
<g>
	<path style="fill:#FFFFFF;" d="M57.2,43.3h-6.3v-3.4h6.2c0.6,0,1-0.4,1-1v-4.6c0-0.6-0.4-1-1-1h-7.2c-0.6,0-1,0.4-1,1s0.4,1,1,1
		h6.2v2.6h-6.2c-0.6,0-1,0.4-1,1v5.4c0,0.6,0.4,1,1,1h7.3c0.6,0,1-0.4,1-1S57.7,43.3,57.2,43.3z"/>
	<path style="fill:#FFFFFF;" d="M44.1,33.2h-2.9c-0.6,0-1,0.4-1,1s0.4,1,1,1h1.9v9.1c0,0.6,0.4,1,1,1s1-0.4,1-1V34.2
		C45.1,33.7,44.6,33.2,44.1,33.2z"/>
</g>
<path style="fill:#644E43;" d="M64.3,52H35.4c-0.5,0-0.9-0.4-0.9-0.9V28.2c0-0.5,0.4-0.9,0.9-0.9h28.9c0.5,0,0.9,0.4,0.9,0.9v15
	c0,0.5-0.4,0.9-0.9,0.9s-0.9-0.4-0.9-0.9V29H36.3v21.2h27.1v-3.1c0-0.5,0.4-0.9,0.9-0.9s0.9,0.4,0.9,0.9v4
	C65.2,51.6,64.8,52,64.3,52z"/>
</svg>
