<?xml version="1.0" encoding="utf-8"?>
<?xml-stylesheet href="style.css" type="text/css"?>
<!-- Generator: Adobe Illustrator 19.2.0, SVG Export Plug-In . SVG Version: 6.00 Build 0)  -->
<svg version="1.1" id="Capa_1" xmlns="http://www.w3.org/2000/svg" xmlns:xlink="http://www.w3.org/1999/xlink" x="0px" y="0px"
	 width="100px" height="100px" viewBox="0 0 100 100" enable-background="new 0 0 100 100" xml:space="preserve">
<polygon class="dashboard_main_color" fill="#7DA92B" points="84.1,35 34,10.8 29.1,20.8 31.1,21.8 27,30.2 72.7,52.3 79.1,39.1 82.7,37.9 "/>
<path fill="#EFEBE2" d="M77.2,49.6l-2.7-1.2c-0.7-0.4,3.3-8.7,4-8.4l2.7,1.2c0.7,0.4,1,1.2,0.7,2l-2.8,5.7
	C78.8,49.6,78,49.9,77.2,49.6z"/>
<polyline opacity="0.1" points="53,32.4 60.2,35.8 38.6,35.8 27,30.2 31.2,21.2 41.9,26.7 53,32.4 "/>
<path fill="#E3DACD" d="M40.8,37.1L20.5,48.8l0,11.4C25.3,47.9,34.7,41.8,40.8,39l2.6-0.6L40.8,37.1z"/>
<path fill="#644E43" d="M38,27.5l-4.9-2.4c-0.5-0.2-1.1,0-1.3,0.5c-0.2,0.5,0,1.1,0.5,1.3l4.9,2.4c0.1,0.1,0.3,0.1,0.4,0.1
	c0.4,0,0.7-0.2,0.9-0.6C38.7,28.4,38.5,27.7,38,27.5z"/>
<path fill="#644E43" d="M36.7,30.3l-4.9-2.4c-0.5-0.2-1.1,0-1.3,0.5c-0.2,0.5,0,1.1,0.5,1.3l4.9,2.4c0.1,0.1,0.3,0.1,0.4,0.1
	c0.4,0,0.7-0.2,0.9-0.6C37.4,31.1,37.2,30.5,36.7,30.3z"/>
<path fill="#644E43" d="M17.2,29.3c-0.6,0-1,0.5-1,1v33.8v5.8v14.9c0,0.6,0.5,1,1,1s1-0.5,1-1V69.8v-5.8V30.3
	C18.2,29.8,17.8,29.3,17.2,29.3z"/>
<path fill="#644E43" d="M17.2,22.5c-0.6,0-1,0.5-1,1v2.2c0,0.6,0.5,1,1,1s1-0.5,1-1v-2.2C18.2,22.9,17.8,22.5,17.2,22.5z"/>
<polygon opacity="0.15" fill="#FFFFFF" points="71.9,41.5 29.1,20.8 34,10.8 84.1,35 82.7,37.9 "/>
<path fill="#644E43" d="M85,34.7c-0.1-0.3-0.3-0.5-0.5-0.6l-2.5-1.2c0,0,0,0,0,0L36.4,10.8c0,0,0,0,0,0l-2-0.9
	c-0.5-0.2-1.1,0-1.3,0.5l-4.9,10c-0.1,0.2-0.1,0.5,0,0.8c0.1,0.3,0.3,0.5,0.5,0.6l1,0.5l-3.7,7.6C26,30,26,30.3,26,30.6
	c0.1,0.3,0.3,0.5,0.5,0.6l12.2,5.9L21.6,47v-3.3c0.5,0,0.9-0.5,0.9-1v-1.9c0-0.5-0.4-0.9-0.9-1v-1.4c0-0.6-0.5-1-1-1s-1,0.5-1,1
	v10.4v11.4v9.6c0,0.6,0.5,1,1,1s1-0.5,1-1v-1.4c0.5,0,0.9-0.5,0.9-1v-1.9c0-0.5-0.4-0.9-0.9-1v-4.1c4.8-12.2,14.3-18,19.5-20.4
	l2.5-0.6l28.7,13.9c0.1,0.1,0.3,0.1,0.4,0.1c0.4,0,0.7-0.2,0.9-0.6l1.5-3.1l1.8,0.8c0.3,0.2,0.7,0.2,1.1,0.2c0.3,0,0.6,0,0.8-0.1
	c0.6-0.2,1.1-0.7,1.4-1.3l2.8-5.7c0.6-1.2,0.1-2.7-1.2-3.3l-1.3-0.6l2.6-0.9c0.3-0.1,0.5-0.3,0.6-0.5l1.4-2.8
	C85.1,35.2,85.1,35,85,34.7z M21.6,55.6v-6.2l9.6-5.6C27.8,46.6,24.3,50.4,21.6,55.6z M72.2,51L28.3,29.8l3.2-6.6l39.9,19.3
	c0.1,0.1,0.3,0.1,0.4,0.1c0.1,0,0.2,0,0.3-0.1l4.9-1.6L72.2,51z M80.8,42.1c0.2,0.1,0.3,0.4,0.2,0.6l-2.8,5.7
	c-0.1,0.2-0.4,0.3-0.6,0.2c0,0,0,0,0,0l-1.7-0.8l3.2-6.5L80.8,42.1z M82,37.1l-10.1,3.4L30.5,20.4l4-8.2l48.3,23.4L82,37.1z"/>
<path fill="#FFFFFF" d="M44,20.5c-0.1,0-0.3,0-0.4-0.1l-8.4-4c-0.5-0.2-0.7-0.8-0.5-1.3c0.2-0.5,0.8-0.7,1.3-0.5l8.4,4
	c0.5,0.2,0.7,0.8,0.5,1.3C44.8,20.3,44.4,20.5,44,20.5z"/>
<path fill="#FFFFFF" d="M48.4,22.6c-0.1,0-0.3,0-0.4-0.1l-0.9-0.4c-0.5-0.2-0.7-0.8-0.5-1.3c0.2-0.5,0.8-0.7,1.3-0.5l0.9,0.4
	c0.5,0.2,0.7,0.8,0.5,1.3C49.1,22.4,48.7,22.6,48.4,22.6z"/>
</svg>
