<?xml version="1.0" encoding="utf-8"?>
<!-- Generator: Adobe Illustrator 19.2.0, SVG Export Plug-In . SVG Version: 6.00 Build 0)  -->
<svg version="1.1" id="Capa_1" xmlns="http://www.w3.org/2000/svg" xmlns:xlink="http://www.w3.org/1999/xlink" x="0px" y="0px"
	 width="100px" height="100px" viewBox="0 0 100 100" enable-background="new 0 0 100 100" xml:space="preserve">
<path class="dashboard_main_color" fill="#6F9A2E" d="M73.9,39.9h-2.4c-1.9-4.1-5-7.5-8.9-9.9c-2.2-3.6-5-5.9-7.7-5.9c-1.6,0-2.7,1.5-3.3,2.6c-0.3,0-0.6,0-0.9,0
	c-0.1,0-0.3,0-0.4,0c-0.6-1.2-1.7-2.5-3.2-2.5c-2.5,0-5.1,2-7.2,5.3c-4.3,2.3-7.8,6-9.9,10.5h-2.8c-7,0-12.7,5.7-12.7,12.7v0
	c0,7,5.7,12.7,12.7,12.7h6.9c4.2,4.4,10.1,7.2,16.7,7.2s12.5-2.8,16.7-7.2h6.5c7,0,12.7-5.7,12.7-12.7v0
	C86.6,45.5,80.9,39.9,73.9,39.9z"/>
<g>
	<path fill="#644E43" d="M71.8,77.1H20.4c-0.6,0-1,0.5-1,1s0.5,1,1,1h51.4c0.6,0,1-0.5,1-1S72.3,77.1,71.8,77.1z"/>
	<path fill="#644E43" d="M16.6,77.1h-3.4c-0.6,0-1,0.5-1,1s0.5,1,1,1h3.4c0.6,0,1-0.5,1-1S17.1,77.1,16.6,77.1z"/>
	<path fill="#644E43" d="M81.7,77.1h-4.9c-0.6,0-1,0.5-1,1s0.5,1,1,1h4.9c0.6,0,1-0.5,1-1S82.3,77.1,81.7,77.1z"/>
	<path fill="#644E43" d="M88.8,77.1h-2.3c-0.6,0-1,0.5-1,1s0.5,1,1,1h2.3c0.6,0,1-0.5,1-1S89.4,77.1,88.8,77.1z"/>
</g>
<path fill="#E3DACD" d="M73,39.9l-0.7,0.7l-1.2-11c0-1.7-1.3-3.1-3-3.3c-1.8-2.8-9-4.8-17.6-4.8s-15.7,2.1-17.6,4.8
	c-1.7,0.1-3,1.5-3,3.3v9.3l-0.7,2l-1-1h-0.4v6.3h7.4l-5.3-4.6l0.7-2.5l3.6-5.4l4.7-3.2l5.5-5.9l4.1,0l2.5,2.7l2.4-2.7l3.6,0l6.2,6.6
	l6.9,5.9l1.5,4.3l-5.7,5h7.5v-6.3H73z"/>
<path fill="none" stroke="#644E43" stroke-width="2.0176" stroke-linecap="round" stroke-linejoin="round" stroke-miterlimit="10" d="
	M42.1,44.2"/>
<path fill="#644E43" d="M52.8,51.2c-0.6,0-1-0.5-1-1s0.5-1,1-1c2.8,0,5.1-2.3,5.1-5.1c0-0.6,0.5-1,1-1s1,0.5,1,1
	C59.9,48.1,56.7,51.2,52.8,51.2z"/>
<ellipse fill="#FFFFFF" cx="47" cy="34.3" rx="4.1" ry="5.6"/>
<ellipse fill="#FFFFFF" cx="55.1" cy="34.3" rx="4.1" ry="5.6"/>
<path fill="#644E43" d="M55.1,27.7c-1.7,0-3.1,1-4.1,2.7c-0.9-1.6-2.4-2.7-4.1-2.7c-2.8,0-5.1,2.9-5.1,6.6c0,3.6,2.3,6.6,5.1,6.6
	c1.7,0,3.1-1,4.1-2.7c0.9,1.6,2.4,2.7,4.1,2.7c2.8,0,5.1-2.9,5.1-6.6C60.1,30.7,57.9,27.7,55.1,27.7z M47,38.8c-1.7,0-3-2.1-3-4.6
	s1.4-4.6,3-4.6c1.7,0,3,2.1,3,4.6S48.6,38.8,47,38.8z M55.1,38.8c-1.7,0-3-2.1-3-4.6s1.4-4.6,3-4.6c1.7,0,3,2.1,3,4.6
	S56.7,38.8,55.1,38.8z"/>
<path fill="#644E43" d="M47,36.9c-0.9,0-1.6-0.7-1.6-1.6c0-0.9,0.7-1.6,1.6-1.6s1.6,0.7,1.6,1.6C48.6,36.2,47.8,36.9,47,36.9z
	 M47,34.9c-0.2,0-0.4,0.2-0.4,0.4c0,0.2,0.2,0.4,0.4,0.4s0.4-0.2,0.4-0.4C47.4,35.1,47.2,34.9,47,34.9z"/>
<path fill="#644E43" d="M55.1,36.9c-0.9,0-1.6-0.7-1.6-1.6c0-0.9,0.7-1.6,1.6-1.6s1.6,0.7,1.6,1.6C56.7,36.2,56,36.9,55.1,36.9z
	 M55.1,34.9c-0.2,0-0.4,0.2-0.4,0.4c0,0.2,0.2,0.4,0.4,0.4s0.4-0.2,0.4-0.4C55.5,35.1,55.3,34.9,55.1,34.9z"/>
<path opacity="0.1" fill="#FFFFFF" d="M70.4,62.2c-4,0-7.2-3.2-7.2-7.2c0-0.6,0.5-1,1-1s1,0.5,1,1c0,2.8,2.3,5.1,5.1,5.1
	c0.6,0,1,0.5,1,1S71,62.2,70.4,62.2z"/>
<path opacity="0.15" fill="#FFFFFF" d="M25.2,62.2c-4,0-7.2-3.2-7.2-7.2c0-0.6,0.5-1,1-1s1,0.5,1,1c0,2.8,2.3,5.1,5.1,5.1
	c0.6,0,1,0.5,1,1S25.8,62.2,25.2,62.2z"/>
<path opacity="0.15" fill="#FFFFFF" d="M50.6,69.3c-2.9,0-5.8-0.7-8.4-2.1c-0.5-0.3-0.7-0.9-0.4-1.4c0.3-0.5,0.9-0.7,1.4-0.4
	c4.7,2.5,10.2,2.5,14.9,0c0.5-0.3,1.1-0.1,1.4,0.4s0.1,1.1-0.4,1.4C56.3,68.6,53.4,69.3,50.6,69.3z"/>
<path fill="#644E43" d="M41.4,26.9"/>
<path fill="#644E43" d="M38.2,32.4c0.1-0.2,4.7-7.1,4.7-7.1"/>
<path fill="#644E43" d="M73.9,38.8h-0.5H73h-0.8v-9.3c0-1.9-1.2-3.4-2.9-4c-1.7-3.3-10.2-5.1-18.8-5.1s-17.1,1.7-18.8,5.1
	c-1.7,0.6-2.9,2.2-2.9,4v9.3h-0.7h-0.4h-0.7c-7.6,0-13.7,6.2-13.7,13.7s6.2,13.7,13.7,13.7h4.1h0.1c0,0,0,0,0,0
	c0.7,0,1.4-0.1,2.1-0.2c2.1,2.2,4.5,3.9,7.3,5.2l2.1,3.4h-4.2c-0.6,0-1,0.5-1,1s0.5,1,1,1h8.5c0.6,0,1-0.5,1-1s-0.5-1-1-1h-2
	l-1.4-2.2c2.2,0.7,4.5,1,6.9,1c2.4,0,4.7-0.4,6.9-1l-1.4,2.2h-2c-0.6,0-1,0.5-1,1s0.5,1,1,1h8.5c0.6,0,1-0.5,1-1s-0.5-1-1-1h-4.2
	l2.1-3.4c2.7-1.3,5.2-3,7.2-5.2c0.6,0.1,1.1,0.2,1.7,0.2c0,0,0,0,0,0h0.1h4.1c7.6,0,13.7-6.2,13.7-13.7S81.5,38.8,73.9,38.8z
	 M72.4,41.8V45h-2.7c-0.2,0-0.3,0-0.5,0L72.4,41.8z M70.1,29.5v6.1c-1.8-2.5-4.1-4.7-6.8-6.4c-0.5-0.7-0.9-1.4-1.4-2h5.9
	C69.1,27.2,70.1,28.2,70.1,29.5z M50.5,22.4c7.7,0,13.3,1.4,15.7,2.8h-6.3c-1.6-1.4-3.3-2.2-5-2.2c-1.9,0-3.2,1.5-4,2.8
	c-0.8-1.3-2.1-2.7-3.9-2.7c-1.6,0-3.3,0.7-4.9,2.1h-7.4C37.2,23.8,42.8,22.4,50.5,22.4z M30.9,29.5c0-1.3,1-2.3,2.3-2.3h7
	c-0.4,0.4-0.7,0.9-1.1,1.4c-3.3,1.8-6.1,4.4-8.2,7.5V29.5z M38.1,30.4C38.1,30.4,38,30.4,38.1,30.4C38,30.4,38,30.4,38.1,30.4
	L38.1,30.4z M28.8,41.9l3.1,3.1c-0.2,0-0.4,0-0.6,0h-2.5V41.9z M31.3,64.3h-4.1c-6.5,0-11.7-5.3-11.7-11.7c0-6.3,5.1-11.5,11.4-11.7
	V45h-1.2c-0.6,0-1,0.5-1,1s0.5,1,1,1h5.7c4.8,0,8.6,3.9,8.6,8.6S36,64.3,31.3,64.3z M59.9,69.4c-0.2,0-0.3,0.1-0.4,0.2
	c-2.7,1.2-5.6,1.8-8.7,1.8c-3.1,0-6.1-0.7-8.7-1.8c-0.1-0.1-0.3-0.2-0.4-0.2c-2.2-1-4.2-2.4-6-4.1c3.7-1.7,6.4-5.4,6.4-9.7
	c0-4.3-2.6-8-6.2-9.7l-5.1-5.1c0,0,0,0,0,0h0.7c0.6,0,1-0.5,1-1c0-0.5-0.3-0.8-0.7-0.9c1.4-2.4,3.2-4.6,5.3-6.4
	c0,0.1-0.1,0.2-0.1,0.2c-0.2,0.5,0,1.1,0.5,1.3c0.1,0.1,0.3,0.1,0.4,0.1c0.4,0,0.8-0.2,0.9-0.6c2.3-5.1,5.6-8.4,8.4-8.4
	c1.9,0,3,3.4,3,3.4c0.2,0.5,0.7,0.8,1.3,0.7c0.4-0.1,0.7-0.5,0.7-0.9c0.3-1,1.4-3.3,2.9-3.3c2.8,0,6.1,3.3,8.4,8.4
	c0.2,0.4,0.5,0.6,0.9,0.6c0.1,0,0.3,0,0.4-0.1c0.3-0.2,0.5-0.5,0.6-0.8c1.8,1.6,3.4,3.5,4.6,5.7h-0.1c-0.6,0-1,0.5-1,1s0.5,1,1,1
	h0.9l-5,5c-3.8,1.6-6.5,5.4-6.5,9.8c0,4.5,2.8,8.3,6.7,9.9C64,67.1,62.1,68.4,59.9,69.4z M73.9,64.3h-4.1c-4.8,0-8.6-3.9-8.6-8.6
	S65,47,69.8,47h5.7c0.6,0,1-0.5,1-1s-0.5-1-1-1h-1v-4.1c6.2,0.3,11.2,5.4,11.2,11.7C85.6,59,80.4,64.3,73.9,64.3z"/>
</svg>
