<svg id="Calque_3" data-name="Calque 3" xmlns="http://www.w3.org/2000/svg" viewBox="0 0 434 95.55"><defs><style>.cls-1{fill:none;}</style></defs><title>Mesa de trabajo 1</title><path d="M55.61,3.65c2.42.52,4.89.88,7.25,1.58C74.85,8.79,82,16.91,84.68,29a48,48,0,0,1-.46,23.18c-3.57,13.36-12.49,20.88-26,23.07a57,57,0,0,1-8.47.63c-9.4.07-18.8,0-28.19,0-.71,0-1.41.06-2.12.1V3.65Zm-17.36,56c5.86-.09,11.52.44,17.08-1,5.18-1.38,8.84-4.44,10.35-9.67a31.16,31.16,0,0,0,.21-17.31,14.75,14.75,0,0,0-9.1-10.16C50.78,19,44.5,20,38.25,19.81Z"/><path d="M250.33,94.44c-2.39-.35-4.8-.59-7.16-1.09-7.64-1.64-12.93-5.84-14.69-13.77-.12-.56-.18-1.15-.3-1.91h17a1.76,1.76,0,0,1,.26.5,5.85,5.85,0,0,0,5.51,4.73,24.84,24.84,0,0,0,5.65.09c3.32-.38,5.7-2.29,6.23-5.63.57-3.56.63-7.21.89-10.53-1.22,1-2.42,1.91-3.58,2.89C255.05,74,249.2,74.41,243.05,73c-6.4-1.44-11.2-5.1-13.83-11.11-4-9.16-4.24-18.5,0-27.66A21.53,21.53,0,0,1,253.1,22.18,14.19,14.19,0,0,1,261.35,27c.65.76,1.23,1.57,2.16,2.76V23.44h16.58v1.91c0,15,0,30,0,45a37,37,0,0,1-.72,7.21c-1.84,8.86-7.53,13.9-16.18,15.81-2,.45-4.06.7-6.08,1Zm-7.15-46.62a49.28,49.28,0,0,0,1.52,6.67,8.47,8.47,0,0,0,7.83,5.95c4.27.28,7.8-1.14,9.66-5.14A16.42,16.42,0,0,0,261.34,39c-3.52-5.67-12.38-5.35-15.81.38C244,42,243.57,44.82,243.18,47.82Z"/><path d="M417.37,3.65q0,13.64.05,27.28V75.82H400.28c0-.66-.09-1.35-.1-2q0-34.29,0-68.57a13.69,13.69,0,0,1,.16-1.57Z"/><path d="M222.31,3.65v13H204.93v-13Z"/><path d="M344.07,39.41c0-7.42,4.53-13.35,12.2-15.75a44.41,44.41,0,0,1,25.36-.29c7.79,2.12,11.63,7.42,11.69,15.49.06,8.8-.07,17.61.13,26.41a106.31,106.31,0,0,0,1.28,10.67h-2c-4.32,0-8.63-.06-12.94,0-1.38,0-2.08-.36-2.21-1.78-.09-.92-.36-1.82-.6-3A21.71,21.71,0,0,1,366,76.79a26.45,26.45,0,0,1-14.17-.59c-7.18-2.49-10.81-8.78-9.94-16.82.71-6.56,4.49-10.64,10.56-12.36,4.86-1.37,9.93-2,14.91-2.93,2-.37,4-.64,5.93-1.07a4.09,4.09,0,0,0,3.56-3.66,4.43,4.43,0,0,0-2.29-4.8,11.29,11.29,0,0,0-10.87-.44,6.41,6.41,0,0,0-3.31,4.19c-.22.74-.45,1.23-1.39,1.23-4.73,0-9.46,0-14.18,0A4.5,4.5,0,0,1,344.07,39.41ZM376.7,51.6c-1.58.45-2.92.88-4.29,1.21s-2.8.48-4.15.87a30.48,30.48,0,0,0-6.33,2.16,5.75,5.75,0,0,0-.5,9.65c4.62,3.18,12.36.77,14.28-4.48C376.81,58,376.81,54.89,376.7,51.6Z"/><path d="M321.58,75.83V69a9.72,9.72,0,0,0-1,1c-7.06,9.16-19.41,8.88-26.49,5-4.7-2.58-6.65-7-7.5-12a48.18,48.18,0,0,1-.65-7.58c-.07-10.1,0-20.21,0-30.31V23.47h17.25V52.85c0,.77,0,1.54.05,2.3.26,4.4,2,6.94,5.45,7.75,4.52,1.09,8.79-.43,10.66-4.21a14.93,14.93,0,0,0,1.6-6.08c.19-9,.11-18,.13-26.94V23.45h17.11V75.83Z"/><path d="M145.83,53.73h-38.5a10.83,10.83,0,0,0,8,11.57c4.8,1.14,10.48-.22,12.92-4.63a1.56,1.56,0,0,1,1.07-.69c5,0,10,0,15.3,0a20.1,20.1,0,0,1-4.71,9.1A22.86,22.86,0,0,1,129.7,75.6a35.09,35.09,0,0,1-21.8.24c-8.85-2.76-14.72-8.63-17-17.68C88.2,47.26,90,37.35,98.4,29.33c9.44-9,25.64-10.2,36.07-2.74C140.6,31,143.7,37.22,145,44.45,145.46,47.39,145.53,50.4,145.83,53.73ZM107.16,44h21c-.07-5.54-4.31-10.18-9.44-10.51C112.83,33.08,108.09,37.32,107.16,44Z"/><path d="M200.15,58.64c-.28,7.21-3.4,12.47-9.79,15.59-6.13,3-12.71,3.47-19.39,3a28.92,28.92,0,0,1-14.83-4.77c-6.29-4.39-8.68-12.94-5.42-19.67,2.14-4.4,5.87-6.89,10.5-8s9.15-1.81,13.69-2.89a24.93,24.93,0,0,0,5.36-2.21A3.1,3.1,0,0,0,182,36.45a3.3,3.3,0,0,0-2.56-2.88,14,14,0,0,0-9,.1c-2.28.8-3.27,2.58-3.46,5H151.18a15,15,0,0,1,5.14-11.59c3.27-2.85,7.25-4.13,11.46-4.76,7.24-1.07,14.39-.86,21.3,1.8,4.16,1.6,7.58,4.13,9.26,8.47,3,7.64-.18,15.44-7.81,18.39-4,1.54-8.29,2.27-12.44,3.4a67.71,67.71,0,0,0-9,2.59c-3.36,1.43-3.46,5.44-.45,7.57a5,5,0,0,0,.91.55,11.82,11.82,0,0,0,10.13,0,7,7,0,0,0,4.09-6.44Z"/><path d="M222.17,75.82h-17V23.43h17Z"/><path class="cls-1" d="M38.25,59.63V19.81C44.5,20,50.78,19,56.79,21.45a14.75,14.75,0,0,1,9.1,10.16,31.16,31.16,0,0,1-.21,17.31c-1.51,5.23-5.17,8.29-10.35,9.67C49.77,60.07,44.1,59.54,38.25,59.63Z"/><path class="cls-1" d="M243.18,47.82c.39-3,.82-5.84,2.35-8.41,3.43-5.73,12.29-6,15.81-.38a16.42,16.42,0,0,1,.85,16.27c-1.86,4-5.39,5.42-9.66,5.15a8.5,8.5,0,0,1-7.83-6A47.81,47.81,0,0,1,243.18,47.82Z"/><path class="cls-1" d="M376.7,51.6c.11,3.29.11,6.42-1,9.41-1.92,5.25-9.66,7.66-14.28,4.48a5.75,5.75,0,0,1,.5-9.65,30.48,30.48,0,0,1,6.33-2.16c1.35-.4,2.78-.53,4.15-.87S375.12,52.05,376.7,51.6Z"/><path class="cls-1" d="M107.16,44c.93-6.64,5.67-10.88,11.58-10.51,5.13.33,9.37,5,9.44,10.51Z"/></svg>