<svg id="Capa_1" data-name="Capa 1" xmlns="http://www.w3.org/2000/svg" viewBox="0 0 61 61"><defs><style>.cls-1{opacity:0.17;}.cls-2{fill:#707070;}</style></defs><title>Mesa de trabajo 1</title><g id="Outline" class="cls-1"><path class="cls-2" d="M42.89,5.73H18.12a5,5,0,0,0-5,4.95V50.32a5,5,0,0,0,5,4.93l24.77,0a5,5,0,0,0,5-5V10.68A5,5,0,0,0,42.89,5.73ZM18.12,50.32V10.68H42.89V50.32Z"/><path class="cls-2" d="M30.5,23.07a5,5,0,1,0-4.95-4.95A5,5,0,0,0,30.5,23.07Z"/><path class="cls-2" d="M30.5,28a9.91,9.91,0,1,0,9.91,9.91A9.91,9.91,0,0,0,30.5,28Zm0,14.87a5,5,0,1,1,5-5A5,5,0,0,1,30.5,42.89Z"/></g></svg>