<svg xmlns="http://www.w3.org/2000/svg" viewBox="0 0 16 21.33"><defs><style>.cls-1{fill:#d3d3d3;}</style></defs><title>Recurso 3</title><g id="Capa_2" data-name="Capa 2"><g id="Capa_1-2" data-name="Capa 1"><path class="cls-1" d="M7.71,18.33A3.17,3.17,0,0,1,4.5,15.19a3.11,3.11,0,0,1,2.8-3.12,7.71,7.71,0,0,0,4.62-2.58,14,14,0,0,1,.58,4,4.8,4.8,0,0,1-4.79,4.8M9.5,0a21.49,21.49,0,0,1,.74,4.8A3.47,3.47,0,0,1,6.83,8.53,3.64,3.64,0,0,1,3.2,4.8l0-.37A13.78,13.78,0,0,0,0,13.33a8,8,0,0,0,16,0A17.1,17.1,0,0,0,9.5,0Z"/></g></g></svg>